<svg width="120" height="120" viewBox="0 0 120 120" fill="none" xmlns="http://www.w3.org/2000/svg">
<rect width="120" height="120" rx="60" fill="#EBF3FF"/>
<path d="M106.907 50.9998C107.285 50.2902 107.522 49.4859 107.522 48.6817C107.522 45.4174 104.21 42.7681 100.094 42.7681C99.621 42.7681 99.1006 42.8154 98.6749 42.8627C97.7287 40.7811 95.5525 39.3145 93.0451 39.3145C92.7613 39.3145 92.4774 39.3145 92.2409 39.3618C91.7678 36.476 89.497 34.2998 86.7057 34.2998C84.0564 34.2998 81.8802 36.2868 81.3125 38.8888C80.8394 38.7468 80.4137 38.6995 79.8933 38.6995C77.0074 38.6995 74.642 41.065 74.3581 44.0454C73.5539 43.5723 72.6077 43.2885 71.6615 43.2885C68.5865 43.2885 66.0791 45.9378 66.0791 49.2494C66.0791 49.8644 66.1737 50.4321 66.3156 50.9998H106.907Z" fill="white"/>
<path d="M58.8275 67.7C59.206 66.9904 59.4425 66.1861 59.4425 65.3819C59.4425 62.1176 56.1309 59.4683 52.015 59.4683C51.5419 59.4683 51.0215 59.5156 50.5958 59.5629C49.6496 57.4813 47.4734 56.0147 44.966 56.0147C44.6822 56.0147 44.3983 56.0147 44.1618 56.062C43.6887 53.1762 41.4178 51 38.6266 51C35.9773 51 33.8011 52.987 33.2334 55.589C32.7603 55.447 32.3346 55.3997 31.8142 55.3997C28.9283 55.3997 26.5629 57.7652 26.279 60.7456C25.4748 60.2725 24.5286 59.9887 23.5824 59.9887C20.5074 59.9887 18 62.638 18 65.9496C18 66.5646 18.0946 67.1323 18.2365 67.7H58.8275Z" fill="white"/>
<path d="M67.1951 90.8067V94.893C67.1951 96.0422 66.2374 97 65.0881 97H54.2339C53.0847 97 52.127 96.0422 52.127 94.893V90.8067C52.127 89.6574 53.0847 88.6997 54.2339 88.6997H65.0881C66.2374 88.7636 67.1951 89.6574 67.1951 90.8067Z" fill="#0C66F1"/>
<path opacity="0.34" d="M67.1951 90.8067V94.893C67.1951 96.0422 66.2374 97 65.0881 97H54.2339C53.0847 97 52.127 96.0422 52.127 94.893V93.9353C53.0208 94.3822 54.617 94.8291 59.9803 94.6376C65.8543 94.446 65.4712 90.679 64.9604 88.6997H65.0881C66.2374 88.7636 67.1951 89.6574 67.1951 90.8067Z" fill="#0C66F1"/>
<path opacity="0.74" d="M67.1951 90.8067C67.1313 90.8067 67.0674 90.8067 67.0036 90.8067H52.3185C52.2546 90.8067 52.1908 90.8067 52.127 90.8067C52.127 89.6574 53.0847 88.6997 54.2339 88.6997H65.0881C66.2374 88.7636 67.1951 89.6574 67.1951 90.8067Z" fill="#054CBB"/>
<path d="M68.7276 88.3806C68.7276 89.3384 67.9614 90.1045 67.0037 90.1045H52.3186C51.8717 90.1045 51.4248 89.913 51.1055 89.5938C50.7863 89.2745 50.5947 88.8914 50.5947 88.4445V88.3806C50.5947 87.4229 51.3609 86.6567 52.3186 86.6567H67.0037C67.4506 86.6567 67.8976 86.8483 68.2168 87.1675C68.2807 87.2314 68.2807 87.2314 68.3445 87.2952C68.5999 87.5506 68.7276 87.9337 68.7276 88.3806Z" fill="#054CBB"/>
<path opacity="0.74" d="M68.7276 88.3807C68.7276 89.3384 67.9614 90.1046 67.0037 90.1046H52.3186C51.8717 90.1046 51.4248 89.9131 51.1055 89.5938C50.7863 89.2746 50.5947 88.8915 50.5947 88.4446C63.5559 90.1046 67.2591 88.253 68.3445 87.2314C68.5999 87.5507 68.7276 87.9338 68.7276 88.3807Z" fill="#054CBB"/>
<path opacity="0.34" d="M67.259 90.1689C67.259 90.6797 67.0674 91.1267 66.8121 91.5097C66.429 92.0205 65.9182 92.2759 65.2797 92.2759C64.1943 92.2759 63.3643 91.3182 63.3643 90.1689C63.3643 89.4027 64.1304 88.5727 64.7051 87.9981C64.8328 87.9342 64.8966 87.8065 64.9605 87.7427C65.152 87.5512 65.2797 87.4873 65.2797 87.4873C65.2797 87.4873 65.4074 87.615 65.5989 87.7427C66.1736 88.2535 67.259 89.2751 67.259 90.1689Z" fill="#0C66F1"/>
<path opacity="0.34" d="M61.8957 90.1689C61.8957 90.6797 61.7042 91.1267 61.4488 91.5097C61.0657 92.0205 60.5549 92.2759 59.9164 92.2759C58.831 92.2759 58.001 91.3182 58.001 90.1689C58.001 89.4027 58.7672 88.5727 59.3418 87.9981C59.4695 87.9342 59.5333 87.8065 59.5972 87.7427C59.7887 87.5512 59.9164 87.4873 59.9164 87.4873C59.9164 87.4873 60.0441 87.615 60.2357 87.7427C60.8103 88.2535 61.8957 89.2751 61.8957 90.1689Z" fill="#0C66F1"/>
<path opacity="0.34" d="M56.405 90.1689C56.405 90.6797 56.2134 91.1267 55.9581 91.5097C55.575 92.0205 55.0642 92.2759 54.4257 92.2759C53.3403 92.2759 52.5103 91.3182 52.5103 90.1689C52.5103 89.4027 53.2764 88.5727 53.8511 87.9981C53.9788 87.9342 54.0426 87.8065 54.1065 87.7427C54.298 87.5512 54.4257 87.4873 54.4257 87.4873C54.4257 87.4873 54.5534 87.615 54.7449 87.7427C55.3196 88.2535 56.405 89.2751 56.405 90.1689Z" fill="#0C66F1"/>
<path d="M67.4504 90.105C67.4504 90.6157 67.2589 91.0627 67.0035 91.4458C66.6204 91.9566 66.1096 92.212 65.4711 92.212C64.3857 92.212 63.5557 91.2542 63.5557 90.105C63.5557 89.3388 64.3218 88.5088 64.8965 87.9341C65.0242 87.8703 65.088 87.7426 65.1519 87.6787C65.3434 87.4872 65.4711 87.4233 65.4711 87.4233C65.4711 87.4233 65.5988 87.551 65.7903 87.6787C66.365 88.1895 67.4504 89.2111 67.4504 90.105Z" fill="#DCEAFF"/>
<path d="M67.0035 91.4457C66.6204 91.9565 66.1096 92.2119 65.4711 92.2119C64.3857 92.2119 63.5557 91.2542 63.5557 90.1049C63.5557 89.3387 64.3218 88.5087 64.8965 87.9341C65.0242 89.0195 64.7688 91.3819 67.0035 91.4457Z" fill="#BBD6FF"/>
<path d="M56.469 90.105C56.469 90.6157 56.2774 91.0627 56.022 91.4458C55.6389 91.9566 55.1281 92.212 54.4897 92.212C53.4042 92.212 52.5742 91.2542 52.5742 90.105C52.5742 89.3388 53.3404 88.5088 53.915 87.9341C54.0427 87.8703 54.1066 87.7426 54.1704 87.6787C54.362 87.4872 54.4897 87.4233 54.4897 87.4233C54.4897 87.4233 54.6174 87.551 54.8089 87.6787C55.4474 88.1895 56.469 89.2111 56.469 90.105Z" fill="#DCEAFF"/>
<path d="M56.086 91.4457C55.7029 91.9565 55.1921 92.2119 54.5536 92.2119C53.4682 92.2119 52.6382 91.2542 52.6382 90.1049C52.6382 89.3387 53.4044 88.5087 53.979 87.9341C54.0428 89.0195 53.7874 91.3819 56.086 91.4457Z" fill="#BBD6FF"/>
<path d="M61.9597 90.105C61.9597 90.6157 61.7681 91.0627 61.5127 91.4458C61.1297 91.9566 60.6189 92.212 59.9804 92.212C58.895 92.212 58.0649 91.2542 58.0649 90.105C58.0649 89.3388 58.8311 88.5088 59.4058 87.9341C59.5334 87.8703 59.5973 87.7426 59.6611 87.6787C59.8527 87.4872 59.9804 87.4233 59.9804 87.4233C59.9804 87.4233 60.1081 87.551 60.2996 87.6787C60.9381 88.1895 61.9597 89.2111 61.9597 90.105Z" fill="#DCEAFF"/>
<path d="M61.5127 91.4457C61.1297 91.9565 60.6189 92.2119 59.9804 92.2119C58.895 92.2119 58.0649 91.2542 58.0649 90.1049C58.0649 89.3387 58.8311 88.5087 59.4058 87.9341C59.5334 89.0195 59.2781 91.3819 61.5127 91.4457Z" fill="#BBD6FF"/>
<path d="M83.8592 43.112C83.7954 49.6884 81.3053 55.0516 78.4321 59.9041C76.8359 62.5857 75.1759 65.0758 73.7074 67.502C72.8773 68.9067 72.175 70.1836 71.4727 71.3967C69.8126 74.1422 68.3441 76.4407 66.5564 77.9731C64.8963 79.4416 62.917 80.2078 60.2354 80.3355C60.0439 80.3355 59.8523 80.3355 59.6608 80.3355C59.4692 80.3355 59.3415 80.3355 59.15 80.3355C56.4684 80.2078 54.4891 79.3778 52.829 77.9092C52.3182 77.4623 51.8713 77.0154 51.4244 76.4407C50.7859 75.6107 50.1474 74.653 49.5089 73.6314C49.2535 73.2483 48.9981 72.8014 48.7427 72.3545C48.615 72.1629 48.5512 72.0352 48.4235 71.8437C48.2958 71.6521 48.1681 71.3967 48.0404 71.2052C47.3381 69.9921 46.6358 68.7151 45.8696 67.3105C44.4649 64.8842 42.8049 62.3941 41.2725 59.7125C38.527 54.8601 36.037 49.4968 36.1008 42.8566C36.1008 41.005 36.2924 39.345 36.7393 37.7488C36.7393 37.7488 36.7393 37.7488 36.7393 37.6849C36.8031 37.4934 36.867 37.238 36.9308 37.0464C36.9308 36.9826 36.9308 36.9826 36.9947 36.9187C37.0585 36.791 37.0585 36.6633 37.1224 36.5356C37.1224 36.4718 37.1862 36.3441 37.1862 36.2803C37.2501 36.1526 37.2501 36.0249 37.3139 35.961C37.3139 35.8972 37.3778 35.7695 37.4416 35.7056C37.4416 35.6418 37.5055 35.5779 37.5055 35.4502C37.5055 35.4502 37.5055 35.3864 37.5693 35.3864C37.6332 35.1948 37.697 35.0671 37.7609 34.9394C37.7609 34.9394 37.7609 34.8756 37.8247 34.8756C37.8886 34.6841 37.9524 34.4925 38.0801 34.3648C38.0163 34.2371 38.0163 34.2371 38.0163 34.1733C38.0801 34.0456 38.144 33.854 38.2716 33.7263C38.2716 33.6625 38.3355 33.6625 38.3355 33.5986C38.3993 33.4071 38.527 33.2794 38.6547 33.0878C38.7186 33.024 38.7824 32.8963 38.7824 32.8325C38.8463 32.7048 38.974 32.5771 39.0378 32.4494C39.0378 32.3855 39.1017 32.3855 39.1017 32.3855C39.1017 32.3217 39.1655 32.2578 39.1655 32.2578C39.2294 32.1301 39.2932 32.0024 39.4209 31.9386C39.4848 31.8747 39.4848 31.8109 39.5486 31.8109C39.5486 31.8109 39.5486 31.747 39.6125 31.747C39.7402 31.5555 39.8679 31.4278 39.9955 31.2363C40.1232 31.1086 40.1871 30.9809 40.3148 30.8532C40.3786 30.7893 40.3786 30.7893 40.4425 30.7255C40.5063 30.6616 40.5063 30.6616 40.5702 30.5978C40.6979 30.4062 40.8894 30.2785 41.0171 30.1508C41.0171 30.087 41.081 30.087 41.1448 30.0231C41.2087 29.9593 41.3364 29.8316 41.4002 29.7677L41.4641 29.7039C41.5279 29.64 41.6556 29.5124 41.7194 29.4485C41.7833 29.257 41.7833 29.1931 41.8471 29.1931C41.9748 29.1293 42.0387 29.0016 42.1664 28.9377L42.2302 28.8739C42.3579 28.7462 42.4218 28.6823 42.4856 28.6185C42.5495 28.5546 42.6772 28.4908 42.741 28.4269L42.8049 28.3631C42.8687 28.2992 42.8687 28.2992 42.9326 28.2354C43.0603 28.1715 43.1241 28.1077 43.2518 27.98C43.3157 27.9161 43.4433 27.8523 43.571 27.7885C43.6349 27.7246 43.6987 27.6608 43.7626 27.6608C43.8903 27.5969 43.9541 27.5331 44.0818 27.4692C44.0818 27.4692 44.1457 27.4692 44.1457 27.4054C44.2095 27.4054 44.2095 27.3415 44.2734 27.3415C44.4011 27.2138 44.5926 27.15 44.7203 27.0223C44.7842 27.0223 44.7842 26.9584 44.848 26.9584C44.9757 26.8946 45.1034 26.7669 45.2949 26.703C45.3588 26.703 45.3588 26.6392 45.4226 26.6392C45.4865 26.5753 45.6142 26.5115 45.678 26.5115C45.7419 26.5115 45.8057 26.4476 45.8057 26.4476C45.8057 26.4476 45.8696 26.4476 45.8696 26.3838C45.9334 26.3199 45.9973 26.3199 46.0611 26.3199C46.1888 26.2561 46.3165 26.2561 46.3804 26.1922C46.5081 26.1284 46.6358 26.0646 46.6996 26.0007C46.7635 25.9369 46.8273 25.9369 46.8911 25.873C46.8911 25.873 46.955 25.873 46.955 25.8092C47.0188 25.7453 47.1465 25.7453 47.2742 25.6815C47.3381 25.6815 47.4019 25.6176 47.4019 25.6176C47.5935 25.5538 47.8489 25.4261 48.0404 25.3622C48.1043 25.2984 48.232 25.2984 48.3597 25.2345C48.4874 25.1707 48.615 25.1068 48.8066 25.1068C48.8704 25.1068 48.8704 25.1068 48.9343 25.043C48.9981 25.043 49.062 24.9791 49.1258 24.9791C49.2535 24.9153 49.3812 24.9153 49.5089 24.8514C49.5089 24.8514 49.5728 24.8514 49.6366 24.7876C49.7005 24.7876 49.8282 24.7237 49.892 24.7237H49.9559C50.0197 24.7237 50.0836 24.6599 50.2113 24.6599C50.3389 24.596 50.4666 24.596 50.5305 24.5322C50.9136 24.4045 51.2328 24.3407 51.6159 24.2768H51.6798C51.9352 24.2768 52.0628 24.2768 52.1905 24.213C52.2544 24.213 52.3182 24.213 52.3821 24.1491C52.5098 24.0853 52.7013 24.0853 52.829 24.0853C53.0844 24.0214 53.3398 23.9576 53.5952 23.9576C53.7867 23.8937 54.0421 23.8937 54.2975 23.8299H54.3614C55.5106 23.6383 56.6599 23.5745 57.8092 23.5106C58.5115 23.4468 59.2777 23.4468 60.0439 23.4468C60.81 23.4468 61.5762 23.4468 62.2785 23.5106C63.4278 23.5745 64.5771 23.7022 65.7264 23.8937C65.7902 23.8937 65.854 23.8937 65.9179 23.9576H65.9817C66.1733 23.9576 66.301 24.0214 66.4925 24.0214C66.6841 24.0853 66.8756 24.0853 67.0033 24.1491H67.0672C67.131 24.1491 67.1949 24.1491 67.2587 24.213C67.3864 24.213 67.4502 24.2768 67.5779 24.2768C67.6418 24.2768 67.6418 24.2768 67.7056 24.2768C67.8333 24.2768 67.961 24.2768 68.0249 24.2768C68.0887 24.2768 68.1526 24.2768 68.2164 24.3407C68.2803 24.3407 68.3441 24.4045 68.408 24.4045H68.4718C68.5357 24.4045 68.6634 24.4683 68.7272 24.4683C68.8549 24.4683 68.9826 24.5322 69.1103 24.596C69.1741 24.596 69.1741 24.596 69.238 24.596C69.238 24.596 69.238 24.596 69.3018 24.596C69.4295 24.6599 69.5572 24.6599 69.6211 24.7237C69.6849 24.7237 69.8126 24.7876 69.8765 24.7876C69.8765 24.7876 69.9403 24.7876 70.0042 24.8514C70.068 24.8514 70.068 24.8514 70.1319 24.8514C70.1957 24.8514 70.1957 24.8514 70.2596 24.9153H70.3234C70.3234 24.9153 70.3234 24.9153 70.3873 24.9153C70.515 24.9791 70.5788 24.9791 70.7065 25.043C70.898 25.1068 71.0896 25.1707 71.2811 25.2345C71.345 25.2345 71.4088 25.2984 71.4727 25.2984C71.7919 25.4261 72.0473 25.4899 72.3027 25.6176C72.4943 25.6815 72.6219 25.7453 72.7496 25.8092C72.8135 25.8092 72.8135 25.8092 72.8773 25.873C73.1327 26.0007 73.3243 26.0646 73.5797 26.1922C73.7712 26.2561 73.9628 26.3838 74.0905 26.4476C74.1543 26.4476 74.2182 26.5115 74.2182 26.5115C74.2182 26.5115 74.282 26.5115 74.282 26.5753C74.3458 26.5753 74.3458 26.6392 74.4097 26.6392C74.4735 26.6392 74.4735 26.703 74.4735 26.703C74.6012 26.7669 74.6651 26.8307 74.7928 26.8946C74.8566 26.9584 74.9205 26.9584 74.9843 27.0223C75.112 27.0861 75.2397 27.2138 75.4313 27.2777C75.6228 27.4054 75.8144 27.5331 76.0697 27.6608C76.0697 27.6608 76.0697 27.6608 76.1336 27.6608C76.2613 27.7246 76.389 27.7885 76.4528 27.9161C76.6444 28.0438 76.7721 28.1715 76.9636 28.2354C77.0913 28.3631 77.219 28.4269 77.3467 28.5546C77.4106 28.5546 77.4106 28.6185 77.4744 28.6185C77.6021 28.7462 77.7298 28.81 77.7937 28.9377C77.8575 29.0016 77.9213 29.0016 77.9213 29.0654L77.9852 29.1293C78.1129 29.1931 78.1767 29.3208 78.3044 29.3847C78.3683 29.4485 78.3683 29.4485 78.4321 29.5124C78.5598 29.64 78.6875 29.7677 78.7514 29.8316C78.8791 29.9593 78.9429 30.0231 79.0706 30.1508L79.1345 30.2147C79.1983 30.2785 79.2622 30.3424 79.2622 30.4062C79.2622 30.4062 79.2622 30.4062 79.326 30.4701C79.3899 30.5339 79.4537 30.5978 79.5176 30.6616C79.5814 30.7255 79.7091 30.8532 79.7729 30.917C79.8368 30.9809 79.8368 30.9809 79.9006 31.0447C80.0283 31.1724 80.156 31.3639 80.2837 31.4916C80.4114 31.6193 80.5391 31.8109 80.603 31.9386C80.603 31.9386 80.603 32.0024 80.6668 32.0024C80.7945 32.194 80.9222 32.3217 80.9861 32.5132L81.0499 32.5771C81.1138 32.6409 81.1138 32.7048 81.1776 32.7686C81.2414 32.8325 81.2415 32.8963 81.3053 32.9602C81.3691 33.024 81.433 33.0878 81.433 33.2155C81.4968 33.2794 81.5607 33.4071 81.5607 33.4709C81.6245 33.5986 81.6884 33.7263 81.7522 33.854C81.8799 34.0456 81.9438 34.301 82.0715 34.4925C82.0715 34.4925 82.0715 34.4925 82.0715 34.5564C82.1353 34.7479 82.263 34.9394 82.3269 35.131C82.3269 35.131 82.3269 35.1948 82.3907 35.1948C82.4546 35.3864 82.5184 35.5141 82.5823 35.6418C82.5823 35.7056 82.6461 35.7695 82.6461 35.8333V35.8972C82.71 36.0249 82.71 36.1526 82.7738 36.2803C82.8377 36.4079 82.8377 36.5356 82.9015 36.5995C82.9015 36.6633 82.9654 36.791 82.9654 36.8549C83.0292 36.9826 83.0292 37.1103 83.093 37.238C83.093 37.3018 83.093 37.3018 83.1569 37.3657C83.2207 37.5572 83.2846 37.8126 83.3484 38.0042C83.3484 38.0042 83.3484 38.0042 83.3484 38.068C83.6677 39.6004 83.8592 41.2604 83.8592 43.112Z" fill="white"/>
<path d="M77.3466 42.6014C77.2827 52.7532 73.0687 60.0319 70.1317 66.8637C70.0679 66.9913 70.004 67.1829 69.9402 67.3106C69.4932 68.3322 69.0463 69.2899 68.6632 70.2476C68.4717 70.6307 68.344 71.0138 68.2163 71.333C68.2163 71.333 68.2163 71.3969 68.1524 71.3969C68.0886 71.5246 68.0247 71.6523 67.9609 71.78C67.3862 73.0569 66.8755 74.27 66.3008 75.2916C65.407 76.8878 64.5131 78.1648 63.4277 78.9948C62.4061 79.8248 61.193 80.2079 59.6606 80.2079C58.3837 80.2079 57.3621 79.8887 56.4682 79.314C56.2767 79.1863 56.0851 79.0586 55.9574 78.931C55.0636 78.2286 54.2974 77.2071 53.5312 75.9301C53.4035 75.6747 53.212 75.4193 53.0843 75.1639C52.4458 74.0146 51.8711 72.61 51.2965 71.1415C50.7857 69.8645 50.2749 68.5237 49.6365 67.119C49.5726 66.9913 49.5088 66.7998 49.4449 66.6721C47.9764 63.2243 46.2525 59.6488 44.8478 55.6264C43.507 51.7316 42.5493 47.39 42.5493 42.4098C42.5493 40.1751 42.8047 38.132 43.1878 36.2804C43.2516 35.9612 43.3155 35.6419 43.4432 35.3227C43.4432 35.195 43.507 35.1311 43.507 35.0034C43.5709 34.8119 43.5709 34.6842 43.6347 34.5565C43.6347 34.4926 43.6347 34.4926 43.6986 34.4288C43.7624 34.2373 43.8263 34.1096 43.8901 33.9819C43.8901 33.918 43.8901 33.918 43.954 33.8542V33.7903C44.0178 33.5988 44.0817 33.4711 44.1455 33.2795C44.2094 33.0241 44.3371 32.7687 44.4648 32.5134C44.5286 32.3857 44.5925 32.258 44.5925 32.1941C44.6563 32.0664 44.6563 32.0026 44.7202 31.8749C44.8478 31.6833 44.9117 31.4279 45.0394 31.2364V31.1725C45.1671 30.9171 45.2948 30.6618 45.4863 30.4064C45.5502 30.3425 45.5502 30.2787 45.614 30.2148C45.614 30.151 45.6779 30.151 45.6779 30.0871L45.7417 30.0233C45.8694 29.8317 45.9971 29.704 46.1248 29.5125C46.1248 29.4486 46.1887 29.4486 46.1887 29.3848C46.3164 29.3848 46.3164 29.3848 46.3802 29.3209C46.5717 29.0656 46.7633 28.8102 46.9548 28.5548L47.0187 28.4909C47.0187 28.4271 47.0825 28.4271 47.0825 28.3632C47.4018 28.044 47.6572 27.7247 47.9764 27.4055L48.0403 27.3417C48.168 27.214 48.2956 27.0863 48.4233 26.9586C48.4872 26.8947 48.4872 26.8947 48.551 26.8309C48.6787 26.7032 48.8064 26.6393 48.9341 26.5116C48.998 26.4478 49.0618 26.4478 49.0618 26.3839C49.1257 26.3201 49.1257 26.3201 49.1895 26.2562C49.2534 26.1924 49.3172 26.1924 49.3811 26.1285C49.5726 26.0008 49.7642 25.8093 49.9557 25.6816C49.9557 25.6816 50.0195 25.6816 50.0195 25.6178C50.0195 25.6178 50.0195 25.6178 50.0834 25.6178L50.1472 25.5539C50.2111 25.5539 50.2111 25.4901 50.2749 25.4901C50.4026 25.5539 50.5303 25.5539 50.5942 25.4901C50.5942 25.4901 50.5942 25.4901 50.658 25.4901C50.7857 25.4262 50.9134 25.3624 51.0411 25.2347C51.105 25.1708 51.1688 25.1708 51.2327 25.107C51.2965 25.0431 51.4242 25.0431 51.4881 24.9793C51.5519 24.9154 51.6796 24.8516 51.8073 24.8516C51.8711 24.8516 51.935 24.7877 51.9988 24.7877C52.1265 24.7239 52.2542 24.66 52.4458 24.5962H52.5096C52.6373 24.5323 52.8289 24.4685 52.9566 24.4046C52.9566 24.4046 53.0204 24.4046 53.0204 24.3408C53.1481 24.2769 53.2758 24.2131 53.4035 24.2131C53.4674 24.2131 53.4673 24.1492 53.5312 24.1492C53.7866 24.0854 53.9781 24.0215 54.2335 23.9577H54.2974H54.3612C54.4889 23.8939 54.6166 23.8939 54.8082 23.83H54.872C55.0636 23.7662 55.3189 23.7023 55.5105 23.7023C55.5743 23.7023 55.5743 23.7023 55.6382 23.7023C55.8297 23.6385 56.0213 23.6385 56.2128 23.5746C56.4682 23.5108 56.6598 23.5108 56.9151 23.4469C57.1067 23.4469 57.3621 23.3831 57.5536 23.3831C57.6175 23.3831 57.6813 23.3831 57.809 23.3831C58.0006 23.3831 58.1283 23.3831 58.3198 23.3192C58.5114 23.3192 58.7667 23.3192 58.9583 23.2554H59.0221C59.3414 23.2554 59.7245 23.2554 60.0437 23.2554C60.4268 23.2554 60.746 23.2554 61.0653 23.2554H61.1291C61.3207 23.2554 61.5761 23.2554 61.7676 23.3192C61.9592 23.3192 62.0868 23.3831 62.2784 23.3831C62.3422 23.3831 62.4699 23.3831 62.5338 23.3831C62.7253 23.3831 62.9807 23.4469 63.1723 23.4469C63.4277 23.5108 63.6192 23.5108 63.8746 23.5746C64.0661 23.6385 64.2577 23.6385 64.4492 23.7023C64.5131 23.7023 64.5131 23.7023 64.5769 23.7023C64.7685 23.7662 65.0239 23.83 65.2154 23.8939H65.2793C65.407 23.9577 65.5347 23.9577 65.7262 24.0215H65.79H65.8539C66.1093 24.0854 66.3008 24.1492 66.5562 24.2769C66.6201 24.2769 66.6201 24.2769 66.6839 24.3408H66.7478C66.8755 24.4046 67.0032 24.4046 67.067 24.4685C67.1309 24.4685 67.1309 24.4685 67.1309 24.5323C67.2586 24.5962 67.4501 24.66 67.5778 24.7239H67.6416C67.7693 24.7877 67.897 24.8516 68.0247 24.9154C68.0247 24.9154 68.0886 24.9154 68.0886 24.9793C68.1524 24.9793 68.2163 25.0431 68.2801 25.0431C68.4078 25.107 68.4717 25.1708 68.5994 25.1708C68.6632 25.2347 68.7909 25.2347 68.8548 25.2985C68.9186 25.3624 68.9825 25.3624 69.0463 25.4262C69.3017 25.3624 69.4294 25.4901 69.5571 25.5539C69.5571 25.5539 69.5571 25.5539 69.6209 25.5539C69.6848 25.6178 69.7486 25.6178 69.8763 25.6816C69.9402 25.6816 69.9402 25.7454 70.004 25.7454L70.0679 25.8093L70.1317 25.8731C70.2594 25.937 70.3871 26.0647 70.451 26.1285C70.5148 26.1924 70.5787 26.2562 70.6425 26.2562C70.7064 26.3201 70.7702 26.3839 70.834 26.4478C70.8979 26.5116 70.8979 26.5116 70.9617 26.5755C71.0256 26.6393 71.0894 26.6393 71.0894 26.7032C71.1533 26.7032 71.1533 26.767 71.2171 26.8309C71.281 26.8947 71.3448 26.9586 71.4087 26.9586C71.4725 27.0224 71.5364 27.0863 71.6002 27.1501C71.7279 27.2778 71.8556 27.4055 71.9833 27.5332L72.0472 27.597C72.111 27.6609 72.2387 27.7886 72.3026 27.8524L72.3664 27.9163C72.4941 28.044 72.5579 28.1078 72.6218 28.2355C72.6856 28.3632 72.8133 28.4271 72.8772 28.5548C72.8772 28.6186 72.941 28.6186 72.941 28.6186C73.0687 28.7463 73.1964 28.874 73.2603 29.0656C73.388 29.1932 73.4518 29.3209 73.5795 29.5125C73.5795 29.5763 73.6434 29.5763 73.6434 29.6402C73.6434 29.704 73.7072 29.704 73.7072 29.7679C73.8349 29.9594 73.9626 30.0871 74.0265 30.2787C74.0265 30.2787 74.0265 30.3425 74.0903 30.3425C74.0903 30.4064 74.1542 30.4064 74.1542 30.4702C74.2818 30.5979 74.3457 30.7895 74.4734 30.9171C74.5372 31.0448 74.6649 31.2364 74.7288 31.4279C74.7288 31.4279 74.7288 31.4279 74.7288 31.4918C74.7288 31.5556 74.7926 31.6195 74.7926 31.6833C74.8565 31.8749 74.9842 32.0026 75.048 32.1941C75.048 32.258 75.1119 32.3218 75.1119 32.3857C75.1119 32.4495 75.1757 32.5134 75.1757 32.5772C75.2396 32.7049 75.3034 32.7687 75.3034 32.8964C75.3034 32.8964 75.3034 32.8964 75.3034 32.9603C75.3034 33.0241 75.3673 33.088 75.3673 33.088C75.4311 33.2795 75.495 33.4711 75.5588 33.6626C75.6227 33.8542 75.6865 34.0457 75.7504 34.2373C75.7504 34.3011 75.8142 34.3011 75.8142 34.3649C75.878 34.4926 75.9419 34.6842 75.9419 34.8119C76.0057 34.8757 76.0057 35.0034 76.0057 35.0673C76.0057 35.1311 76.0057 35.1311 76.0696 35.195C76.0696 35.2588 76.1334 35.3227 76.1334 35.4504C76.1973 35.6419 76.2611 35.8335 76.2611 36.0888C76.325 36.2804 76.3888 36.5358 76.3888 36.7273C77.155 38.3235 77.3466 40.3667 77.3466 42.6014Z" fill="#0C66F1"/>
<path d="M68.408 42.7291C68.3442 53.0725 66.1734 60.415 64.7048 67.3106C64.3856 68.7153 64.1302 70.0561 63.8748 71.2692C63.7471 71.9077 63.6194 72.5462 63.4917 73.1208C63.2363 74.3339 62.9809 75.4193 62.6617 76.3132C62.5979 76.5047 62.534 76.6324 62.534 76.824C62.2786 77.7179 61.9594 78.4202 61.6401 78.931C61.5763 79.0587 61.4486 79.1864 61.3847 79.3141C60.9378 79.8887 60.427 80.2079 59.7885 80.2079C59.2139 80.2079 58.767 79.9525 58.32 79.4418C58.2562 79.3779 58.2562 79.3141 58.1923 79.2502C57.7454 78.6756 57.3623 77.7817 57.0431 76.6963C56.9792 76.5047 56.9154 76.377 56.9154 76.1855C56.8515 75.8663 56.7238 75.6109 56.66 75.2916C56.3407 74.0785 56.0853 72.6739 55.7661 71.1415C55.5107 69.9284 55.2553 68.5876 54.9999 67.1829C53.4676 60.3512 51.4244 53.0086 51.4883 42.6652C51.4883 39.6005 51.7437 36.9189 52.1268 34.5565C52.1906 34.365 52.1906 34.1096 52.2545 33.918V33.8542C52.2545 33.6626 52.3183 33.5349 52.3183 33.4072C52.3183 33.3434 52.3822 33.2157 52.3822 33.1519C52.446 32.8965 52.5098 32.7049 52.5098 32.4495C52.5098 32.3857 52.5098 32.3218 52.5737 32.258C52.5737 32.1941 52.5737 32.1303 52.6375 32.1303C52.6375 32.0026 52.7014 31.8749 52.7014 31.811C52.7014 31.6833 52.7652 31.6195 52.7652 31.4918C52.7652 31.428 52.7652 31.3641 52.8291 31.3641C52.8291 31.3003 52.8929 31.1726 52.8929 31.1087V31.0449C52.9568 30.9172 52.9568 30.7256 53.0206 30.5979C53.0206 30.5341 53.0845 30.4064 53.0845 30.3425C53.0845 30.2787 53.1483 30.2148 53.1483 30.151C53.2122 30.0233 53.2122 29.8956 53.276 29.8318C53.276 29.7679 53.3399 29.7041 53.3399 29.6402C53.4037 29.5125 53.4037 29.3848 53.4676 29.321C53.5314 29.1933 53.5314 29.0656 53.5953 29.0017C53.6591 28.874 53.6591 28.8102 53.723 28.6825C53.7868 28.5548 53.7868 28.4909 53.8507 28.3632C53.9145 28.1079 53.9784 28.044 53.9784 27.9802C54.0422 27.8525 54.1061 27.7248 54.1699 27.5332C54.2337 27.4694 54.2337 27.3417 54.2976 27.2778C54.4253 27.0863 54.4891 26.8947 54.6168 26.7032C54.6807 26.6393 54.7445 26.5116 54.7445 26.4478C54.8084 26.384 54.8722 26.2563 54.8722 26.1924C54.8722 26.1286 54.9361 26.1286 54.9361 26.0647C54.9361 26.0647 54.9361 26.0009 54.9999 26.0009C55.0638 25.937 55.1276 25.8093 55.1915 25.7455C55.1915 25.7455 55.1915 25.7455 55.1915 25.6816C55.2553 25.6178 55.3192 25.5539 55.383 25.4262C55.4469 25.3624 55.5107 25.2985 55.5746 25.2347C55.6384 25.1708 55.6384 25.1708 55.7023 25.107C55.7023 25.107 55.7023 25.107 55.7661 25.0431C55.83 24.9154 55.9576 24.8516 56.0853 24.7239C56.1492 24.6601 56.1492 24.6601 56.213 24.5962C56.213 24.5962 56.213 24.5962 56.2769 24.5324C56.3407 24.4685 56.3407 24.4685 56.4046 24.4047C56.5323 24.4047 56.5961 24.3408 56.66 24.277C56.7238 24.2131 56.7877 24.2131 56.7877 24.1493C56.8515 24.0854 56.8515 24.0854 56.9154 24.0216C56.9792 23.9577 57.0431 23.9577 57.1069 23.8939C57.1069 23.8939 57.1069 23.8939 57.1708 23.8939C57.1708 23.8939 57.2346 23.8939 57.2346 23.83C57.2985 23.7662 57.3623 23.7662 57.4262 23.7023C57.4262 23.7023 57.4262 23.7023 57.49 23.7023C57.5539 23.6385 57.6177 23.6385 57.6815 23.5746C57.7454 23.5746 57.8092 23.5108 57.8731 23.5108C57.9369 23.4469 58.0646 23.4469 58.1285 23.3831C58.1923 23.3831 58.2562 23.3192 58.32 23.3192C58.32 23.3192 58.32 23.3192 58.3839 23.3192H58.4477H58.5116C58.5754 23.3192 58.5754 23.3192 58.6393 23.3192H58.7031C58.767 23.3192 58.8947 23.2554 58.9585 23.2554C59.0224 23.2554 59.1501 23.1915 59.2139 23.1915C59.4693 23 59.6608 23 59.7885 23C59.9162 23 59.9801 23 60.1078 23C60.2355 23 60.2993 23 60.427 23C60.5547 23 60.6824 23 60.874 23.0638C60.9378 23.0638 61.0655 23.0638 61.1293 23.1277C61.1932 23.1277 61.3209 23.1915 61.3847 23.1915H61.4486C61.5124 23.1915 61.5124 23.1915 61.5763 23.1915H61.6401H61.704C61.704 23.1915 61.704 23.1915 61.7678 23.1915C61.8317 23.1915 61.8955 23.2554 61.9594 23.2554C62.0232 23.3192 62.1509 23.3192 62.2148 23.3831C62.2786 23.3831 62.3425 23.4469 62.4063 23.4469C62.4702 23.5108 62.534 23.5108 62.5979 23.5746C62.5979 23.5746 62.5979 23.5746 62.6617 23.5746C62.7255 23.6385 62.7894 23.6385 62.8532 23.7023C62.8532 23.7023 62.9171 23.7023 62.9171 23.7662C62.9171 23.7662 62.9171 23.7662 62.9809 23.7662C63.0448 23.7662 63.1086 23.83 63.1086 23.8939C63.1725 23.9577 63.2363 23.9577 63.3002 24.0216C63.4279 24.2131 63.4917 24.277 63.5556 24.3408C63.6194 24.4047 63.6833 24.4685 63.7471 24.5324C63.811 24.5962 63.811 24.5962 63.8748 24.6601C63.8748 24.6601 63.8748 24.6601 63.9387 24.7239C64.0025 24.7877 64.0664 24.7877 64.0664 24.8516C64.1941 24.9154 64.2579 25.0431 64.3856 25.107L64.4495 25.1708C64.5133 25.2347 64.641 25.3624 64.7048 25.4901L64.7687 25.5539C64.8325 25.6178 64.8964 25.7455 64.9602 25.8093L65.0241 25.8732C65.0879 25.937 65.1518 26.0009 65.1518 26.0647C65.1518 26.0647 65.1518 26.1286 65.2156 26.1286C65.2156 26.1924 65.2795 26.1924 65.2795 26.2563C65.3433 26.3201 65.4072 26.384 65.4072 26.5116C65.471 26.5755 65.5349 26.7032 65.5349 26.767L65.5987 26.8309C65.6626 26.8947 65.6626 26.9586 65.7264 27.0863C65.7264 27.1501 65.7903 27.214 65.7903 27.214C65.7903 27.214 65.7903 27.2778 65.8541 27.2778C65.918 27.3417 65.918 27.4055 65.9818 27.5332C65.9818 27.5971 66.0457 27.5971 66.0457 27.6609C66.1095 27.7886 66.1734 27.9163 66.2372 28.044C66.2372 28.044 66.2372 28.1079 66.301 28.1079C66.301 28.1717 66.3649 28.2355 66.3649 28.2355C66.3649 28.2994 66.4287 28.3632 66.4287 28.4271C66.4926 28.6186 66.6203 28.874 66.6841 29.0656C66.748 29.1933 66.8118 29.321 66.8118 29.4487V29.5125C66.8118 29.5125 66.8118 29.5125 66.8118 29.5764C66.8757 29.7041 66.8757 29.8318 66.9395 29.9594C67.0034 30.2148 67.0672 30.4064 67.1311 30.6618C67.1949 30.7895 67.1949 30.9172 67.1949 30.981C67.1949 31.0449 67.2588 31.1726 67.2588 31.2364C67.2588 31.3003 67.3226 31.3641 67.3226 31.428V31.4918C67.3226 31.6195 67.3865 31.7472 67.3865 31.8749C67.3865 31.9387 67.4503 32.0026 67.4503 32.0664L67.5142 32.4495C67.5142 32.5134 67.5142 32.5772 67.578 32.6411C67.578 32.7688 67.6419 32.9603 67.6419 33.088C67.6419 33.088 67.6419 33.088 67.6419 33.1519C67.6419 33.2157 67.6419 33.2157 67.6419 33.2796C67.6419 33.3434 67.7057 33.4711 67.7057 33.5349C67.7057 33.6626 67.7696 33.7903 67.7696 33.918C67.8334 34.1096 67.8334 34.365 67.8973 34.5565C68.2803 36.9827 68.4719 39.6644 68.408 42.7291Z" fill="white"/>
<path opacity="0.17" d="M83.8596 43.1123C83.7958 49.6887 81.3057 55.0519 78.4326 59.9044C76.8363 62.586 75.1763 65.0761 73.7078 67.5023C72.8778 68.907 72.1754 70.184 71.4731 71.3971C69.8131 74.1425 68.3445 76.4411 66.5568 77.9734C64.8967 79.4419 62.9175 80.2081 60.2358 80.3358C60.0443 80.3358 59.8527 80.3358 59.6612 80.3358C59.4697 80.3358 59.342 80.3358 59.1504 80.3358C56.4688 80.2081 54.4895 79.3781 52.8294 77.9096C52.3187 77.4626 51.8717 77.0157 51.4248 76.4411C50.7863 75.611 50.1478 74.6533 49.5093 73.6318C49.2539 73.2487 48.9986 72.8017 48.7432 72.3548C48.7432 72.3548 62.4705 85.8267 73.5801 56.1374C80.5395 37.5575 72.7501 28.2357 65.9822 23.894H66.046C66.2376 23.894 66.3653 23.9579 66.5568 23.9579C66.7483 24.0217 66.9399 24.0217 67.0676 24.0856H67.1314C67.1953 24.0856 67.2591 24.0856 67.323 24.1494C67.4507 24.1494 67.5145 24.2133 67.6422 24.2133C67.7061 24.2133 67.7061 24.2133 67.7699 24.2133C67.8338 24.2771 67.9615 24.2771 68.0253 24.2771C68.0892 24.2771 68.153 24.2771 68.2168 24.341C68.2807 24.341 68.3445 24.4048 68.4084 24.4048H68.4722C68.5361 24.4048 68.6638 24.4687 68.7276 24.4687C68.8553 24.4687 68.983 24.5325 69.1107 24.5964C69.1746 24.5964 69.1746 24.5964 69.2384 24.5964C69.2384 24.5964 69.2384 24.5964 69.3023 24.5964C69.43 24.6602 69.5577 24.6602 69.6215 24.7241C69.6854 24.7241 69.8131 24.7879 69.8769 24.7879C69.8769 24.7879 69.9407 24.7879 70.0046 24.8518C70.0684 24.8518 70.0684 24.8518 70.1323 24.8518C70.1961 24.8518 70.1961 24.8518 70.26 24.9156H70.3238C70.3238 24.9156 70.3238 24.9156 70.3877 24.9156C70.5154 24.9795 70.5792 24.9795 70.7069 25.0433C70.8985 25.1072 71.09 25.171 71.2816 25.2349C71.3454 25.2349 71.4093 25.2987 71.4731 25.2987C71.7923 25.4264 72.0477 25.4902 72.3031 25.6179C72.4947 25.6818 72.6224 25.7456 72.7501 25.8095C72.8139 25.8095 72.8139 25.8095 72.8778 25.8733C73.1332 26.001 73.3247 26.0649 73.5801 26.1926C73.7716 26.2564 73.9632 26.3841 74.0909 26.448C74.1547 26.448 74.2186 26.5118 74.2186 26.5118C74.2186 26.5118 74.2824 26.5118 74.2824 26.5757C74.3463 26.5757 74.3463 26.6395 74.4101 26.6395C74.474 26.6395 74.474 26.7034 74.474 26.7034C74.6017 26.7672 74.6655 26.8311 74.7932 26.8949C74.8571 26.9588 74.9209 26.9588 74.9848 27.0226C75.1124 27.0865 75.2401 27.2141 75.4317 27.278C75.6232 27.4057 75.8148 27.5334 76.0702 27.6611C76.0702 27.6611 76.0702 27.6611 76.134 27.6611C76.2617 27.7249 76.3894 27.7888 76.4533 27.9165C76.6448 28.0442 76.7725 28.1719 76.964 28.2357C77.0917 28.3634 77.2194 28.4273 77.3471 28.555C77.411 28.555 77.411 28.6188 77.4748 28.6188C77.6025 28.7465 77.7302 28.8104 77.7941 28.938C77.8579 29.0019 77.9218 29.0019 77.9218 29.0657L77.9856 29.1296C78.1133 29.1934 78.1772 29.3211 78.3049 29.385C78.3687 29.4488 78.3687 29.4488 78.4326 29.5127C78.5602 29.6404 78.6879 29.7681 78.7518 29.8319C78.8795 29.9596 78.9433 30.0235 79.071 30.1512L79.1349 30.215C79.1987 30.2789 79.2626 30.3427 79.2626 30.4066C79.2626 30.4066 79.2626 30.4066 79.3264 30.4704C79.3903 30.5343 79.4541 30.5981 79.518 30.6619C79.5818 30.7258 79.7095 30.8535 79.7734 30.9173C79.8372 30.9812 79.8372 30.9812 79.9011 31.045C80.0288 31.1727 80.1565 31.3643 80.2841 31.492C80.4118 31.6197 80.5395 31.8112 80.6034 31.9389C80.6034 31.9389 80.6034 32.0028 80.6672 32.0028C80.7949 32.1943 80.9226 32.322 80.9865 32.5135L81.0503 32.5774C81.1142 32.6412 81.1142 32.7051 81.178 32.7689C81.2419 32.8328 81.2419 32.8966 81.3057 32.9605C81.3696 33.0243 81.4334 33.0882 81.4334 33.2159C81.4973 33.2797 81.5611 33.4074 81.5611 33.4713C81.625 33.599 81.6888 33.7267 81.7527 33.8544C81.8804 34.0459 81.9442 34.3013 82.0719 34.4928C82.0719 34.4928 82.0719 34.4928 82.0719 34.5567C82.1357 34.7482 82.2634 34.9398 82.3273 35.1313C82.3273 35.1313 82.3273 35.1952 82.3911 35.1952C82.455 35.3867 82.5188 35.5144 82.5827 35.6421C82.5827 35.706 82.6465 35.7698 82.6465 35.8336V35.8975C82.7104 36.0252 82.7104 36.1529 82.7742 36.2806C82.8381 36.4083 82.8381 36.536 82.9019 36.5998C82.9019 36.6637 82.9658 36.7914 82.9658 36.8552C83.0296 36.9829 83.0296 37.1106 83.0935 37.2383C83.0935 37.3022 83.0935 37.3022 83.1573 37.366C83.2212 37.5575 83.285 37.8129 83.3489 38.0045C83.3489 38.0045 83.3489 38.0045 83.3489 38.0683C83.6681 39.6007 83.8596 41.2607 83.8596 43.1123Z" fill="#2469E9"/>
<path d="M54.8727 87.6784C54.8089 87.6784 54.8089 87.6146 54.745 87.6146V86.7207H54.2981V87.6146L54.2343 87.6784C54.1704 87.7423 54.1704 87.8061 54.1704 87.87C54.1704 88.1254 54.362 88.3169 54.5535 88.3169C54.6812 88.3169 54.8089 88.2531 54.8727 88.1254C54.9366 88.0615 54.9366 87.9338 54.9366 87.87C54.9366 87.8061 54.9366 87.7423 54.8727 87.6784Z" fill="#1D312B"/>
<path d="M60.363 87.6784C60.2991 87.6784 60.2991 87.6146 60.2353 87.6146V86.7207H59.7883V87.6146L59.7245 87.6784C59.6606 87.7423 59.6606 87.8061 59.6606 87.87C59.6606 88.1254 59.8522 88.3169 60.0437 88.3169C60.1714 88.3169 60.2991 88.2531 60.363 88.1254C60.4268 88.0615 60.4268 87.9338 60.4268 87.87C60.4268 87.8061 60.4268 87.7423 60.363 87.6784Z" fill="#1D312B"/>
<path d="M65.8542 87.6784C65.7903 87.6784 65.7903 87.6146 65.7265 87.6146V86.7207H65.2796V87.6146L65.2157 87.6784C65.1519 87.7423 65.1519 87.8061 65.1519 87.87C65.1519 88.1254 65.3434 88.3169 65.5349 88.3169C65.6626 88.3169 65.7903 88.2531 65.8542 88.1254C65.918 88.0615 65.918 87.9338 65.918 87.87C65.918 87.8061 65.8542 87.7423 65.8542 87.6784Z" fill="#1D312B"/>
</svg>
