<svg width="19" height="23" viewBox="0 0 19 23" fill="none" xmlns="http://www.w3.org/2000/svg">
<path d="M12.8254 22.7024C12.1247 22.7024 11.5006 22.4654 10.8993 22.2398C10.3841 22.0438 9.89853 21.8603 9.43781 21.8603C9.0287 21.8603 8.56224 22.0352 8.06806 22.2188C7.47065 22.4396 6.7939 22.6929 6.05885 22.6929C4.85064 22.6929 3.76765 22.0008 2.74297 20.5814C2.69996 20.5211 -1.47141 14.395 0.555011 9.84611C1.66476 7.35515 3.26391 6.09055 5.30754 6.09055C6.38575 6.09055 7.3808 6.42892 8.1799 6.70134C8.62724 6.85332 9.04973 6.9967 9.27244 6.9967C9.5353 6.9967 9.95779 6.84281 10.4023 6.67744C11.144 6.40502 12.0693 6.06378 13.1303 6.06378C14.6683 6.06378 16.06 6.77398 17.3867 8.23454C17.4315 8.28442 17.4654 8.34306 17.4863 8.40674C17.5072 8.47042 17.5146 8.53775 17.5081 8.60445C17.5007 8.67102 17.4797 8.73535 17.4463 8.79341C17.4129 8.85147 17.3679 8.90201 17.3141 8.94187C15.9157 9.96082 15.2064 11.1394 15.2064 12.4461C15.2064 14.0643 16.0055 15.2534 17.8742 16.4167C17.9726 16.4773 18.0455 16.5717 18.0792 16.6822C18.113 16.7927 18.1054 16.9117 18.0577 17.017C16.3009 20.9475 14.6874 22.7024 12.8254 22.7024Z" fill="black"/>
<path d="M9.31732 5.81719C9.20261 5.81719 9.08695 5.80954 8.97321 5.79616C8.86045 5.78274 8.75622 5.72938 8.67942 5.64573C8.60262 5.56209 8.55832 5.45371 8.55454 5.34021C8.42837 2.14191 11.1392 0.183356 13.1427 0.00174251C13.2617 -0.00839619 13.3803 0.0259629 13.4754 0.0981753C13.5706 0.170388 13.6356 0.275323 13.6579 0.392689C13.8787 1.62383 13.4657 2.97733 12.5223 4.10524C11.6257 5.17772 10.4271 5.81719 9.31732 5.81719Z" fill="black"/>
</svg>
