<svg width="28" height="32" viewBox="0 0 28 32" fill="none" xmlns="http://www.w3.org/2000/svg">
<path fill-rule="evenodd" clip-rule="evenodd" d="M19.0429 5.12804C17.8214 6.47154 15.8671 7.53121 13.9128 7.37983C13.6685 5.56326 14.6253 3.63315 15.745 2.44102C16.9664 1.05967 19.104 0.0756906 20.8343 0C21.0379 1.89226 20.244 3.74668 19.0429 5.12804ZM20.8138 7.73926C19.0921 7.64715 17.5211 8.22055 16.2521 8.6837C15.4356 8.98175 14.744 9.23414 14.218 9.23414C13.6276 9.23414 12.9075 8.96826 12.0991 8.66972C11.0397 8.27855 9.82863 7.83133 8.55857 7.85279C5.64745 7.89064 2.9399 9.42337 1.4538 11.8644C-1.59983 16.7464 0.659857 23.9749 3.6117 27.9486C5.05708 29.9166 6.78747 32.0738 9.06751 31.9981C10.0706 31.9629 10.7921 31.6783 11.5389 31.3837C12.3986 31.0447 13.2917 30.6924 14.6862 30.6924C16.0323 30.6924 16.8864 31.0355 17.7062 31.3648C18.4857 31.6779 19.2343 31.9787 20.3456 31.9602C22.707 31.9224 24.1931 29.9923 25.6385 28.0243C27.1983 25.9122 27.8838 23.8508 27.9878 23.538L28 23.5018C27.9975 23.4995 27.9782 23.4913 27.9442 23.4768C27.4228 23.2549 23.4374 21.559 23.3992 17.0113C23.3608 13.1942 26.5603 11.2602 27.064 10.9558C27.0946 10.9373 27.1153 10.9248 27.1246 10.9183C25.0889 8.11771 21.9131 7.81495 20.8138 7.73926Z" fill="black"/>
</svg>
