<svg width="16" height="20" viewBox="0 0 16 20" fill="none" xmlns="http://www.w3.org/2000/svg">
    <path d="M3.80492 2.02191C4.35579 2.17214 4.90665 2.2723 5.45751 2.42254C6.00837 2.57277 6.55923 2.67293 7.11009 2.82316C7.26032 2.87324 7.3104 2.82316 7.36048 2.67293C7.56079 1.8216 7.76111 1.02034 7.96142 0.169014C8.0115 0.0187795 8.06157 -0.0312989 8.21181 0.0187793C8.71259 0.169014 9.1633 0.26917 9.66408 0.369327C9.81431 0.419405 9.81431 0.469483 9.76424 0.56964C9.56392 1.37089 9.36361 2.22222 9.1633 3.02347C9.1633 3.07355 9.1633 3.12363 9.11322 3.22379C9.51384 3.32394 9.96455 3.4241 10.3652 3.52426C10.4153 3.52426 10.4653 3.4241 10.5154 3.37402C10.6656 2.723 10.8159 2.12207 11.0162 1.47105C11.0663 1.27074 11.1163 1.07042 11.1664 0.870109C11.1664 0.769953 11.2165 0.719875 11.3167 0.769953C11.8174 0.920188 12.3182 1.02034 12.8691 1.17058C12.9192 1.17058 12.9192 1.22066 12.9692 1.22066C12.819 1.87167 12.6688 2.47261 12.5185 3.07355C12.4685 3.32394 12.4184 3.57433 12.3182 3.82473C12.2681 3.97496 12.3182 4.02504 12.4685 4.07512C13.0193 4.32551 13.5702 4.5759 14.121 4.82629C14.6218 5.12676 15.0725 5.52739 15.4231 6.02817C15.8738 6.77934 15.9239 7.5806 15.7235 8.38185C15.5733 8.93271 15.373 9.43349 14.9724 9.83412C14.6719 10.1346 14.2713 10.3349 13.8707 10.4851C13.8206 10.4851 13.7705 10.5352 13.6703 10.5352C13.8707 10.6854 14.071 10.7856 14.2713 10.9358C14.8722 11.3865 15.2728 11.9374 15.4732 12.6385C15.5733 13.1894 15.5232 13.7903 15.373 14.3412C15.1727 15.0423 14.9223 15.6432 14.4716 16.1941C13.9207 16.8451 13.2196 17.1956 12.4184 17.2958C11.3667 17.446 10.3652 17.3459 9.36361 17.1956C9.21338 17.1455 9.11322 17.1956 9.06314 17.3459C8.86283 18.1471 8.66251 18.9984 8.4622 19.7997C8.41212 20 8.41212 20.0501 8.16173 19.9499C7.71103 19.8498 7.21024 19.6995 6.75954 19.5994C6.60931 19.5493 6.60931 19.4992 6.65938 19.3991C6.8597 18.5477 7.06001 17.6964 7.3104 16.8951C7.3104 16.795 7.36048 16.7449 7.26032 16.6948C6.8597 16.5947 6.45907 16.4945 6.00837 16.3944C5.90821 16.8451 5.75798 17.2958 5.65782 17.7465C5.55766 18.1972 5.40743 18.6479 5.30727 19.0986C5.25719 19.1987 5.25719 19.2488 5.10696 19.1987C4.60618 19.0485 4.10539 18.9484 3.60461 18.8482C3.45438 18.7981 3.45438 18.748 3.50446 18.6479C3.70477 17.7966 3.90508 16.9452 4.15547 16.144C4.15547 16.0939 4.20555 16.0438 4.20555 15.9437C3.05375 15.6432 1.90195 15.3427 0.700073 15.0423C0.80023 14.8419 0.850308 14.6917 0.950464 14.4914C1.15078 14.0407 1.35109 13.59 1.50133 13.1894C1.5514 13.0391 1.60148 13.0391 1.75172 13.0391C2.10226 13.1393 2.50289 13.2394 2.85344 13.2895C3.25406 13.3897 3.55453 13.1894 3.60461 12.8388C4.25563 10.2848 4.90665 7.73083 5.50758 5.12676C5.60774 4.72613 5.35735 4.27543 4.90665 4.1252C4.45594 3.97496 4.00524 3.8748 3.60461 3.77465C3.50445 3.77465 3.45438 3.72457 3.50446 3.62441C3.65469 3.07355 3.80492 2.47261 3.95516 1.92175C3.75485 2.07199 3.75485 2.07199 3.80492 2.02191ZM6.35892 14.3912C6.40899 14.3912 6.45907 14.4413 6.45907 14.4413C7.26032 14.6416 8.11165 14.892 8.96298 14.9421C9.56392 14.9922 10.1148 14.9922 10.6656 14.7919C11.6171 14.4914 12.0178 13.2394 11.4669 12.4382C11.2165 12.0376 10.8159 11.7872 10.4153 11.5368C9.51384 11.036 8.4622 10.8357 7.46064 10.6354C7.3104 10.5853 7.3104 10.6354 7.26032 10.7856C7.16017 11.2864 7.00993 11.7371 6.90977 12.2379C6.70946 12.939 6.55923 13.6401 6.35892 14.3912ZM10.5655 9.28325C10.6656 9.28325 10.916 9.23318 11.1163 9.1831C12.0678 8.98279 12.5686 7.88106 12.0678 7.02973C11.8174 6.57903 11.3667 6.27856 10.916 6.07825C10.2149 5.77778 9.51384 5.62754 8.76267 5.42723C8.61244 5.37715 8.56236 5.42723 8.51228 5.57746C8.26189 6.62911 8.0115 7.63067 7.71103 8.68232C7.66095 8.78247 7.71103 8.83255 7.81118 8.88263C8.0115 8.93271 8.16173 8.98279 8.36204 9.03286C9.11322 9.13302 9.76424 9.28325 10.5655 9.28325Z" fill="#F5B300"/>
</svg>
