<svg width="28" height="28" viewBox="0 0 28 28" fill="none" xmlns="http://www.w3.org/2000/svg">
<rect width="28" height="28" rx="14" fill="#EBF3FF"/>
<path fill-rule="evenodd" clip-rule="evenodd" d="M21.0082 21.0107V8.79762C21.0135 8.32484 20.7706 7.86984 20.333 7.53272C19.8955 7.19559 19.299 7.00397 18.6749 7H9.34156C8.71745 7.00397 8.12099 7.19559 7.6834 7.53272C7.24581 7.86984 7.00294 8.32484 7.00822 8.79762V21.0107C6.95276 21.3633 7.18131 21.7068 7.58848 21.8828C7.99565 22.0589 8.50235 22.0331 8.87489 21.8176L13.3082 18.9179C13.7079 18.6446 14.3156 18.6446 14.7152 18.9179L19.1416 21.8185C19.5143 22.0342 20.0213 22.0599 20.4286 21.8836C20.8359 21.7074 21.0642 21.3635 21.0082 21.0107Z" stroke="#2469E9" stroke-width="1.5" stroke-linecap="round" stroke-linejoin="round"/>
</svg>
