<svg width="13" height="13" viewBox="0 0 13 13" fill="none" xmlns="http://www.w3.org/2000/svg">
<path d="M8.22021 1.28022C9.31976 1.64162 10.2771 2.34094 10.9559 3.27847C11.6346 4.216 12 5.34388 12 6.5013C12 7.65873 11.6346 8.7866 10.9559 9.72413C10.2771 10.6617 9.31976 11.361 8.22021 11.7224M11.9959 6.5013C11.9962 5.34439 11.6314 4.21689 10.9534 3.27942C10.2755 2.34196 9.31899 1.64233 8.22021 1.28022C7.10327 0.91007 5.89673 0.91007 4.77979 1.28022C3.68024 1.64162 2.72285 2.34094 2.04413 3.27847C1.36541 4.216 1 5.34388 1 6.5013C1 7.65873 1.36541 8.7866 2.04413 9.72413C2.72285 10.6617 3.68024 11.361 4.77979 11.7224C5.89673 12.0925 7.10327 12.0925 8.22021 11.7224C9.31899 11.3603 10.2755 10.6607 10.9534 9.72318C11.6314 8.78571 11.9962 7.65822 11.9959 6.5013V6.5013Z" stroke="#2469E9" stroke-linecap="round" stroke-linejoin="round"/>
<path d="M6.5 11.7224V1.28021" stroke="#2469E9" stroke-linecap="round" stroke-linejoin="round"/>
<path d="M2.31763 10.0736C2.82979 9.81486 3.36527 9.60508 3.91693 9.44711C4.75576 9.20016 5.62557 9.07431 6.49999 9.07339C7.35034 9.07384 8.19652 9.19221 9.01435 9.42512C9.58329 9.5896 10.1354 9.80767 10.6631 10.0764M2.40831 2.83282C2.91289 3.08073 3.439 3.28216 3.98013 3.43462C6.17861 4.05019 8.52692 3.83297 10.5752 2.82458" stroke="#2469E9" stroke-linecap="round" stroke-linejoin="round"/>
<path d="M1.27893 6.50131H11.7211" stroke="#2469E9" stroke-linecap="round" stroke-linejoin="round"/>
<path d="M8.00862 11.7224L8.05258 11.6454C8.96295 10.0929 9.44287 8.32576 9.44287 6.52603C9.44287 4.7263 8.96295 2.95912 8.05258 1.40662V1.40662M4.91993 11.7224L4.87597 11.6454C3.96657 10.0921 3.48838 8.32413 3.49079 6.52416C3.49321 4.7242 3.97614 2.95752 4.8897 1.40662V1.40662" stroke="#2469E9" stroke-linecap="round" stroke-linejoin="round"/>
</svg>
