<svg width="41" height="40" viewBox="0 0 41 40" fill="none" xmlns="http://www.w3.org/2000/svg">
<rect width="40.0057" height="40" rx="20" fill="white"/>
<path d="M23.7569 8.60584C26.1565 9.39455 28.2458 10.9207 29.727 12.9667C31.2082 15.0127 32.0057 17.4741 32.0057 20C32.0057 22.5259 31.2082 24.9873 29.727 27.0333C28.2458 29.0793 26.1565 30.6054 23.7569 31.3942M31.9967 20C31.9973 17.4752 31.2012 15.0146 29.7217 12.9688C28.2422 10.9229 26.1548 9.3961 23.7569 8.60584C21.3194 7.79805 18.6863 7.79805 16.2488 8.60584C13.8492 9.39455 11.7598 10.9207 10.2786 12.9667C8.79745 15.0127 8 17.4741 8 20C8 22.5259 8.79745 24.9873 10.2786 27.0333C11.7598 29.0793 13.8492 30.6054 16.2488 31.3942C18.6863 32.2019 21.3194 32.2019 23.7569 31.3942C26.1548 30.6039 28.2422 29.0771 29.7217 27.0312C31.2012 24.9854 31.9973 22.5248 31.9967 20V20Z" stroke="#828284" stroke-width="1.5" stroke-linecap="round" stroke-linejoin="round"/>
<path d="M20.0028 31.3943V8.60597" stroke="#828284" stroke-width="1.5" stroke-linecap="round" stroke-linejoin="round"/>
<path d="M10.8755 27.7962C11.9932 27.2315 13.1618 26.7737 14.3657 26.429C16.1963 25.89 18.0945 25.6154 20.0028 25.6134C21.8586 25.6143 23.7052 25.8727 25.49 26.381C26.7316 26.7399 27.9364 27.2158 29.0881 27.8022M11.0734 11.9944C12.1746 12.5354 13.3227 12.975 14.5036 13.3077C19.3014 14.6511 24.4262 14.177 28.8962 11.9764" stroke="#828284" stroke-width="1.5" stroke-linecap="round" stroke-linejoin="round"/>
<path d="M8.60876 20H31.3971" stroke="#828284" stroke-width="1.5" stroke-linecap="round" stroke-linejoin="round"/>
<path d="M23.2953 31.3943L23.3913 31.2264C25.378 27.8383 26.4254 23.9817 26.4254 20.0541C26.4254 16.1265 25.378 12.2699 23.3913 8.88183V8.88183M16.5548 31.3943L16.4588 31.2264C14.4742 27.8365 13.4307 23.9782 13.4359 20.05C13.4412 16.1219 14.4951 12.2664 16.4888 8.88183V8.88183" stroke="#828284" stroke-width="1.5" stroke-linecap="round" stroke-linejoin="round"/>
</svg>
