<svg width="32" height="32" viewBox="0 0 32 32" fill="none" xmlns="http://www.w3.org/2000/svg">
<path d="M6.15225 11.1426C5.67867 11.4267 5.52511 12.041 5.80926 12.5146C6.0934 12.9882 6.70766 13.1417 7.18124 12.8576L6.15225 11.1426ZM13.3334 8.00008L13.9334 7.20008C13.6081 6.95613 13.1676 6.9334 12.8189 7.14259L13.3334 8.00008ZM18.6667 12.0001L18.0667 12.8001C18.4316 13.0737 18.9353 13.0658 19.2914 12.781L18.6667 12.0001ZM25.9581 7.44762C26.3894 7.10261 26.4593 6.47331 26.1143 6.04205C25.7693 5.61079 25.14 5.54087 24.7087 5.88588L25.9581 7.44762ZM23.0001 25.3334C23.0001 25.8857 23.4478 26.3334 24.0001 26.3334C24.5524 26.3334 25.0001 25.8857 25.0001 25.3334H23.0001ZM25.0001 14.6667C25.0001 14.1145 24.5524 13.6667 24.0001 13.6667C23.4478 13.6667 23.0001 14.1145 23.0001 14.6667H25.0001ZM12.3334 25.3334C12.3334 25.8857 12.7811 26.3334 13.3334 26.3334C13.8857 26.3334 14.3334 25.8857 14.3334 25.3334H12.3334ZM14.3334 14.6667C14.3334 14.1145 13.8857 13.6667 13.3334 13.6667C12.7811 13.6667 12.3334 14.1145 12.3334 14.6667H14.3334ZM17.6667 25.3334C17.6667 25.8857 18.1145 26.3334 18.6667 26.3334C19.219 26.3334 19.6667 25.8857 19.6667 25.3334H17.6667ZM19.6667 18.6667C19.6667 18.1145 19.219 17.6667 18.6667 17.6667C18.1145 17.6667 17.6667 18.1145 17.6667 18.6667H19.6667ZM7.00008 25.3334C7.00008 25.8857 7.4478 26.3334 8.00008 26.3334C8.55237 26.3334 9.00008 25.8857 9.00008 25.3334H7.00008ZM9.00008 18.6667C9.00008 18.1145 8.55237 17.6667 8.00008 17.6667C7.4478 17.6667 7.00008 18.1145 7.00008 18.6667H9.00008ZM7.18124 12.8576L13.8479 8.85757L12.8189 7.14259L6.15225 11.1426L7.18124 12.8576ZM12.7334 8.80008L18.0667 12.8001L19.2667 11.2001L13.9334 7.20008L12.7334 8.80008ZM19.2914 12.781L25.9581 7.44762L24.7087 5.88588L18.0421 11.2192L19.2914 12.781ZM25.0001 25.3334V14.6667H23.0001V25.3334H25.0001ZM14.3334 25.3334V14.6667H12.3334V25.3334H14.3334ZM19.6667 25.3334V18.6667H17.6667V25.3334H19.6667ZM9.00008 25.3334V18.6667H7.00008V25.3334H9.00008Z" fill="white"/>
</svg>
