<svg width="11" height="11" viewBox="0 0 11 11" fill="none" xmlns="http://www.w3.org/2000/svg">
<path d="M5.5 0C2.46253 0 0 2.46253 0 5.5C0 8.53747 2.46253 11 5.5 11C8.53747 11 11 8.53747 11 5.5C11 2.46253 8.53747 0 5.5 0ZM5.5 10.2667C2.87173 10.2667 0.733333 8.12827 0.733333 5.5C0.733333 2.87173 2.87173 0.733333 5.5 0.733333C8.12827 0.733333 10.2667 2.87173 10.2667 5.5C10.2667 8.12827 8.12827 10.2667 5.5 10.2667ZM6.12847 2.93333C6.79287 2.93333 7.33333 3.42687 7.33333 4.03333C7.33333 4.13058 7.37196 4.22384 7.44073 4.29261C7.50949 4.36137 7.60275 4.4 7.7 4.4C7.79725 4.4 7.89051 4.36137 7.95927 4.29261C8.02804 4.22384 8.06667 4.13058 8.06667 4.03333C8.06667 3.02207 7.19693 2.2 6.12847 2.2H5.86667V1.83333C5.86667 1.73609 5.82804 1.64282 5.75927 1.57406C5.69051 1.5053 5.59725 1.46667 5.5 1.46667C5.40275 1.46667 5.30949 1.5053 5.24073 1.57406C5.17196 1.64282 5.13333 1.73609 5.13333 1.83333V2.2H4.87153C3.80307 2.2 2.93333 3.02207 2.93333 4.03333C2.93333 5.0446 3.80307 5.86667 4.87153 5.86667H5.13333V8.06667H4.87153C4.20713 8.06667 3.66667 7.57313 3.66667 6.96667C3.66667 6.86942 3.62804 6.77616 3.55927 6.70739C3.49051 6.63863 3.39725 6.6 3.3 6.6C3.20275 6.6 3.10949 6.63863 3.04073 6.70739C2.97196 6.77616 2.93333 6.86942 2.93333 6.96667C2.93333 7.97793 3.80307 8.8 4.87153 8.8H5.13333V9.16667C5.13333 9.26391 5.17196 9.35718 5.24073 9.42594C5.30949 9.4947 5.40275 9.53333 5.5 9.53333C5.59725 9.53333 5.69051 9.4947 5.75927 9.42594C5.82804 9.35718 5.86667 9.26391 5.86667 9.16667V8.8H6.12847C7.19693 8.8 8.06667 7.97793 8.06667 6.96667C8.06667 5.9554 7.19693 5.13333 6.12847 5.13333H5.86667V2.93333H6.12847ZM6.12847 5.86667C6.79287 5.86667 7.33333 6.3602 7.33333 6.96667C7.33333 7.57313 6.79287 8.06667 6.12847 8.06667H5.86667V5.86667H6.12847ZM5.13333 5.13333H4.87153C4.20713 5.13333 3.66667 4.6398 3.66667 4.03333C3.66667 3.42687 4.20713 2.93333 4.87153 2.93333H5.13333V5.13333Z" fill="#2469E9"/>
</svg>
