<svg width="28" height="28" viewBox="0 0 28 28" fill="none" xmlns="http://www.w3.org/2000/svg">
<rect width="28" height="28" rx="14" fill="#EBF3FF"/>
<path fill-rule="evenodd" clip-rule="evenodd" d="M22.1666 14C22.1666 18.5104 18.5102 22.1667 13.9999 22.1667C9.48959 22.1667 5.83325 18.5104 5.83325 14C5.83325 9.48972 9.48959 5.83337 13.9999 5.83337C16.1659 5.83337 18.2431 6.69379 19.7746 8.22534C21.3062 9.75688 22.1666 11.8341 22.1666 14Z" stroke="#2469E9" stroke-width="1.5" stroke-linecap="round" stroke-linejoin="round"/>
<path d="M14 17.4162C13.5858 17.4162 13.25 17.752 13.25 18.1662C13.25 18.5805 13.5858 18.9162 14 18.9162V17.4162ZM12.25 12.8334L12.7725 12.2954C12.7435 12.2672 12.7122 12.2414 12.679 12.2183L12.25 12.8334ZM11.6666 11.6667L12.4162 11.6926C12.4165 11.684 12.4166 11.6754 12.4166 11.6667H11.6666ZM14 10.5839C14.4142 10.5839 14.75 10.2481 14.75 9.83391C14.75 9.4197 14.4142 9.08391 14 9.08391V10.5839ZM13.9693 18.9168C14.3832 18.9337 14.7324 18.6119 14.7494 18.1981C14.7663 17.7842 14.4445 17.435 14.0306 17.418L13.9693 18.9168ZM12.4099 15.4853C12.4653 15.0748 12.1775 14.6971 11.767 14.6417C11.3565 14.5862 10.9788 14.874 10.9234 15.2845L12.4099 15.4853ZM14.75 18.1662C14.75 17.752 14.4142 17.4162 14 17.4162C13.5858 17.4162 13.25 17.752 13.25 18.1662H14.75ZM13.25 19.8334C13.25 20.2476 13.5858 20.5834 14 20.5834C14.4142 20.5834 14.75 20.2476 14.75 19.8334H13.25ZM13.9578 9.0851C13.5442 9.10841 13.2279 9.46256 13.2512 9.87612C13.2745 10.2897 13.6286 10.606 14.0422 10.5827L13.9578 9.0851ZM15.7699 10.5538L15.217 11.0606V11.0606L15.7699 10.5538ZM15.591 12.2725C15.5318 12.6825 15.8162 13.0627 16.2262 13.1219C16.6362 13.181 17.0165 12.8966 17.0756 12.4867L15.591 12.2725ZM13.25 9.83391C13.25 10.2481 13.5858 10.5839 14 10.5839C14.4142 10.5839 14.75 10.2481 14.75 9.83391H13.25ZM14.75 8.16675C14.75 7.75253 14.4142 7.41675 14 7.41675C13.5858 7.41675 13.25 7.75253 13.25 8.16675H14.75ZM14 18.9162C14.4793 18.9162 15.2009 18.8069 15.8311 18.4461C16.4981 18.0643 17.0833 17.3775 17.0833 16.3112H15.5833C15.5833 16.729 15.3909 16.9697 15.0858 17.1444C14.7438 17.3401 14.2988 17.4162 14 17.4162V18.9162ZM17.0833 16.3112C17.0833 15.6539 16.8778 15.1236 16.5084 14.697C16.1639 14.2991 15.7093 14.0309 15.2921 13.8154C14.3984 13.3538 13.5427 13.0435 12.7725 12.2954L11.7274 13.3714C12.7073 14.3232 13.8932 14.7811 14.6037 15.1481C14.9885 15.3469 15.2266 15.5082 15.3744 15.6788C15.4971 15.8206 15.5833 15.998 15.5833 16.3112H17.0833ZM12.679 12.2183C12.5079 12.0989 12.409 11.9011 12.4162 11.6926L10.9171 11.6409C10.8924 12.3577 11.2326 13.0383 11.8209 13.4486L12.679 12.2183ZM12.4166 11.6667C12.4166 11.3428 12.4875 11.1526 12.5586 11.0383C12.6296 10.9242 12.7314 10.8366 12.8729 10.7669C13.1879 10.6117 13.6126 10.5839 14 10.5839V9.08391C13.6092 9.08391 12.8672 9.09754 12.2101 9.42129C11.8655 9.59103 11.5299 9.85221 11.285 10.2459C11.0402 10.6393 10.9166 11.1157 10.9166 11.6667H12.4166ZM14.0306 17.418C13.551 17.3984 13.1018 17.1776 12.7933 16.8097L11.6439 17.7735C12.2237 18.4649 13.0678 18.8799 13.9693 18.9168L14.0306 17.418ZM12.7933 16.8097C12.4848 16.4419 12.3456 15.9611 12.4099 15.4853L10.9234 15.2845C10.8026 16.1786 11.0642 17.0822 11.6439 17.7735L12.7933 16.8097ZM13.25 18.1662V19.8334H14.75V18.1662H13.25ZM14.0422 10.5827C14.4856 10.5577 14.9169 10.7331 15.217 11.0606L16.3228 10.047C15.7186 9.38789 14.8505 9.03479 13.9578 9.0851L14.0422 10.5827ZM15.217 11.0606C15.5171 11.388 15.6544 11.8329 15.591 12.2725L17.0756 12.4867C17.2033 11.6017 16.927 10.7062 16.3228 10.047L15.217 11.0606ZM14.75 9.83391V8.16675H13.25V9.83391H14.75Z" fill="#2469E9"/>
</svg>
