<svg width="155" height="19" viewBox="0 0 155 19" fill="none" xmlns="http://www.w3.org/2000/svg">
<path d="M14.3628 7.60034C13.228 7.99737 12.15 8.67799 11.299 9.52878C10.5046 10.3796 9.88051 11.4005 9.54008 12.5349C9.19965 11.4005 8.57553 10.3796 7.7812 9.52878C6.93013 8.62128 5.85211 7.94065 4.71735 7.60034C4.9443 4.36736 6.81665 1.53141 9.48334 0C12.2068 1.53141 14.0791 4.36736 14.3628 7.60034Z" fill="url(#paint0_linear_35_254)"/>
<path d="M16.9728 15.0305C15.1004 16.959 12.3202 17.753 9.7103 17.1858V17.1291C9.76703 16.959 9.76703 16.8455 9.82377 16.6754C9.88051 16.5052 9.88051 16.3351 9.93725 16.2216C9.93725 16.1649 9.93725 16.1082 9.93725 16.1082C9.93725 15.938 9.99399 15.8246 9.99399 15.6544C9.99399 15.4843 9.99399 15.3141 9.99399 15.144C9.99399 14.8604 9.99399 14.5768 9.93725 14.2932C9.93725 14.1797 9.88051 14.0096 9.88051 13.8961C9.88051 13.7827 9.82377 13.6693 9.82377 13.4991C9.82377 13.3857 9.76703 13.3289 9.76703 13.2155C9.76703 13.1021 9.7103 13.0454 9.7103 12.9319C10.0507 11.7975 10.6748 10.7199 11.5259 9.81237C12.377 8.96159 13.3983 8.28096 14.533 7.88393C15.8947 7.43018 17.3699 7.37346 18.7884 7.65705C19.526 10.2661 18.7884 13.1021 16.9728 15.0305Z" fill="url(#paint1_linear_35_254)"/>
<path d="M9.54008 16.6186C9.48334 16.7888 9.48334 16.959 9.4266 17.1291C6.75991 17.8097 3.97975 17.0157 2.1074 15.0305C0.235043 13.1021 -0.445814 10.2661 0.291781 7.65705C1.71023 7.37346 3.18542 7.43018 4.54713 7.88393C5.68189 8.28096 6.75991 8.96159 7.61098 9.81237C8.46205 10.7199 9.08617 11.7408 9.4266 12.9319C9.76703 14.123 9.76703 15.4275 9.54008 16.6186Z" fill="url(#paint2_linear_35_254)"/>
<path d="M29.7329 12.2574H23.309C23.3545 12.8951 23.5823 13.3961 23.9924 13.7604C24.4024 14.1248 24.858 14.3069 25.4503 14.3069C26.2704 14.3069 26.8626 13.9426 27.2271 13.2594H29.6418C29.3684 14.1248 28.9128 14.8079 28.1839 15.3545C27.4549 15.901 26.5893 16.1743 25.5414 16.1743C24.6758 16.1743 23.9468 15.9921 23.2634 15.6277C22.58 15.2634 22.0789 14.7168 21.7144 14.0337C21.2588 13.305 21.0765 12.5307 21.0765 11.6198C21.0765 10.7089 21.2588 9.93468 21.6233 9.20597C21.9877 8.5228 22.4889 7.97627 23.1723 7.61191C23.8557 7.24755 24.5846 7.06538 25.4503 7.06538C26.2704 7.06538 27.0449 7.24755 27.6827 7.61191C28.3205 7.97627 28.8673 8.47725 29.2317 9.16042C29.5962 9.84359 29.7785 10.5723 29.7785 11.4376C29.824 11.7565 29.7785 12.0297 29.7329 12.2574ZM27.5005 10.8C27.5005 10.2079 27.2727 9.7525 26.8626 9.43369C26.4526 9.06933 25.9514 8.9327 25.4047 8.9327C24.858 8.9327 24.4024 9.11488 24.0379 9.43369C23.6734 9.7525 23.4456 10.2079 23.3545 10.8H27.5005Z" fill="#14174A"/>
<path d="M30.5986 9.20597C30.963 8.5228 31.4642 7.97627 32.1476 7.61191C32.7854 7.24755 33.5599 7.06538 34.38 7.06538C35.4735 7.06538 36.3847 7.33864 37.068 7.88518C37.7514 8.43171 38.2526 9.20597 38.4804 10.1624H36.0657C35.9291 9.79804 35.7468 9.47923 35.4279 9.25151C35.109 9.02379 34.7445 8.9327 34.2889 8.9327C33.6511 8.9327 33.1499 9.16042 32.7854 9.61587C32.421 10.0713 32.2387 10.7089 32.2387 11.5743C32.2387 12.3941 32.421 13.0772 32.7854 13.5327C33.1499 13.9881 33.6511 14.2159 34.2889 14.2159C35.2001 14.2159 35.7924 13.806 36.0657 13.0317H38.4804C38.2526 13.9881 37.7514 14.7168 37.0225 15.3089C36.2935 15.8555 35.4279 16.1287 34.3345 16.1287C33.4688 16.1287 32.7399 15.9465 32.102 15.5822C31.4642 15.2178 30.9175 14.6713 30.553 13.9881C30.1885 13.305 30.0063 12.5307 30.0063 11.6198C30.0063 10.7089 30.2341 9.88913 30.5986 9.20597Z" fill="#14174A"/>
<path d="M41.5785 4.28716V15.9921H39.346V4.28716H41.5785Z" fill="#14174A"/>
<path d="M42.9453 9.20597C43.3098 8.5228 43.7654 7.97627 44.4032 7.61191C44.9955 7.24755 45.6789 7.06538 46.4534 7.06538C47.0912 7.06538 47.6835 7.20201 48.1847 7.47528C48.6858 7.74854 49.0503 8.06735 49.3692 8.47725V7.20201H51.6017V15.9921H49.3237V14.7168C49.0503 15.1267 48.6403 15.4911 48.1391 15.7188C47.638 15.9921 47.0457 16.1287 46.4078 16.1287C45.6789 16.1287 44.9955 15.9465 44.4032 15.5366C43.8109 15.1723 43.3098 14.6258 42.9453 13.9426C42.5808 13.2594 42.3986 12.4396 42.3986 11.5743C42.4441 10.7089 42.5808 9.88913 42.9453 9.20597ZM49.0048 10.2079C48.777 9.84359 48.5036 9.52478 48.1391 9.3426C47.7746 9.11488 47.4102 9.02379 47.0001 9.02379C46.5901 9.02379 46.2256 9.11488 45.8611 9.3426C45.4967 9.52478 45.2233 9.84359 44.9955 10.2079C44.7677 10.5723 44.6766 11.0733 44.6766 11.5743C44.6766 12.1208 44.7677 12.5763 44.9955 12.9406C45.2233 13.305 45.4967 13.6238 45.8611 13.8515C46.2256 14.0792 46.5901 14.1703 47.0001 14.1703C47.4102 14.1703 47.8202 14.0792 48.1391 13.8515C48.5036 13.6238 48.777 13.3505 49.0048 12.9862C49.2326 12.6218 49.3237 12.1208 49.3237 11.6198C49.3237 11.0733 49.2326 10.6178 49.0048 10.2079Z" fill="#14174A"/>
<path d="M61.096 16H57.4866V5.81818H61.1258C62.1499 5.81818 63.0316 6.02202 63.7707 6.42969C64.5098 6.83404 65.0782 7.41572 65.4759 8.17472C65.877 8.93371 66.0775 9.84186 66.0775 10.8991C66.0775 11.9598 65.877 12.8712 65.4759 13.6335C65.0782 14.3958 64.5065 14.9808 63.7607 15.3885C63.0183 15.7962 62.1301 16 61.096 16ZM59.6393 14.1555H61.0065C61.6428 14.1555 62.1781 14.0429 62.6123 13.8175C63.0498 13.5888 63.3779 13.2358 63.5967 12.7585C63.8187 12.2779 63.9298 11.6581 63.9298 10.8991C63.9298 10.1468 63.8187 9.53196 63.5967 9.05469C63.3779 8.57741 63.0515 8.22609 62.6173 8.00071C62.1831 7.77533 61.6478 7.66264 61.0115 7.66264H59.6393V14.1555ZM69.8099 16.1442C69.3227 16.1442 68.8885 16.0597 68.5074 15.8906C68.1262 15.7183 67.8246 15.4647 67.6025 15.13C67.3838 14.7919 67.2744 14.371 67.2744 13.8672C67.2744 13.4429 67.3523 13.0866 67.5081 12.7983C67.6639 12.5099 67.876 12.2779 68.1444 12.1023C68.4129 11.9266 68.7178 11.794 69.0592 11.7045C69.4039 11.6151 69.7652 11.5521 70.143 11.5156C70.5872 11.4692 70.9451 11.4261 71.2169 11.3864C71.4887 11.3433 71.6859 11.2803 71.8085 11.1974C71.9311 11.1146 71.9925 10.992 71.9925 10.8295V10.7997C71.9925 10.4848 71.893 10.2412 71.6942 10.0689C71.4986 9.89654 71.2202 9.81037 70.8589 9.81037C70.4778 9.81037 70.1745 9.89489 69.9491 10.0639C69.7238 10.2296 69.5746 10.4384 69.5017 10.6903L67.5429 10.5312C67.6423 10.0672 67.8379 9.66619 68.1295 9.32812C68.4212 8.98674 68.7974 8.7249 69.2581 8.54261C69.7221 8.35701 70.259 8.2642 70.8689 8.2642C71.2931 8.2642 71.6991 8.31392 72.0869 8.41335C72.478 8.51278 72.8244 8.6669 73.126 8.87571C73.4309 9.08452 73.6712 9.35298 73.8469 9.68111C74.0225 10.0059 74.1104 10.3954 74.1104 10.8494V16H72.1018V14.9411H72.0422C71.9195 15.1797 71.7555 15.3902 71.55 15.5724C71.3445 15.7514 71.0976 15.8923 70.8092 15.995C70.5209 16.0945 70.1878 16.1442 69.8099 16.1442ZM70.4165 14.6825C70.728 14.6825 71.0031 14.6212 71.2417 14.4986C71.4804 14.3726 71.6676 14.2036 71.8035 13.9915C71.9394 13.7794 72.0074 13.5391 72.0074 13.2706V12.4602C71.9411 12.5033 71.8499 12.5431 71.7339 12.5795C71.6212 12.6127 71.4936 12.6442 71.3511 12.674C71.2086 12.7005 71.0661 12.7254 70.9236 12.7486C70.781 12.7685 70.6518 12.7867 70.5358 12.8033C70.2872 12.8397 70.0701 12.8977 69.8845 12.9773C69.6989 13.0568 69.5547 13.1645 69.452 13.3004C69.3492 13.433 69.2979 13.5987 69.2979 13.7976C69.2979 14.0859 69.4023 14.3063 69.6111 14.4588C69.8232 14.608 70.0917 14.6825 70.4165 14.6825ZM75.7535 18.8636V8.36364H77.8415V9.64631H77.936C78.0288 9.44081 78.163 9.23201 78.3387 9.01989C78.5177 8.80445 78.7497 8.62547 79.0347 8.48295C79.3231 8.33712 79.681 8.2642 80.1086 8.2642C80.6654 8.2642 81.1791 8.41004 81.6498 8.7017C82.1204 8.99006 82.4966 9.4259 82.7783 10.0092C83.06 10.5893 83.2009 11.3168 83.2009 12.1918C83.2009 13.0436 83.0634 13.7628 82.7883 14.3494C82.5165 14.9328 82.1453 15.3752 81.6746 15.6768C81.2073 15.9751 80.6836 16.1243 80.1036 16.1243C79.6926 16.1243 79.343 16.0563 79.0546 15.9205C78.7696 15.7846 78.5359 15.6139 78.3536 15.4084C78.1713 15.1996 78.0321 14.9891 77.936 14.777H77.8714V18.8636H75.7535ZM77.8266 12.1818C77.8266 12.6359 77.8896 13.032 78.0155 13.37C78.1415 13.7081 78.3238 13.9716 78.5624 14.1605C78.8011 14.3461 79.0911 14.4389 79.4324 14.4389C79.7771 14.4389 80.0688 14.3445 80.3074 14.1555C80.5461 13.9633 80.7267 13.6982 80.8493 13.3601C80.9753 13.0187 81.0383 12.6259 81.0383 12.1818C81.0383 11.741 80.977 11.3532 80.8543 11.0185C80.7317 10.6837 80.5511 10.4219 80.3124 10.233C80.0738 10.044 79.7805 9.94957 79.4324 9.94957C79.0877 9.94957 78.7961 10.0407 78.5574 10.223C78.3221 10.4053 78.1415 10.6638 78.0155 10.9986C77.8896 11.3333 77.8266 11.7277 77.8266 12.1818ZM84.6128 18.8636V8.36364H86.7009V9.64631H86.7954C86.8882 9.44081 87.0224 9.23201 87.1981 9.01989C87.377 8.80445 87.6091 8.62547 87.8941 8.48295C88.1824 8.33712 88.5404 8.2642 88.968 8.2642C89.5248 8.2642 90.0385 8.41004 90.5091 8.7017C90.9798 8.99006 91.356 9.4259 91.6377 10.0092C91.9194 10.5893 92.0603 11.3168 92.0603 12.1918C92.0603 13.0436 91.9227 13.7628 91.6476 14.3494C91.3759 14.9328 91.0046 15.3752 90.534 15.6768C90.0667 15.9751 89.543 16.1243 88.963 16.1243C88.552 16.1243 88.2023 16.0563 87.914 15.9205C87.6289 15.7846 87.3953 15.6139 87.213 15.4084C87.0307 15.1996 86.8915 14.9891 86.7954 14.777H86.7307V18.8636H84.6128ZM86.686 12.1818C86.686 12.6359 86.749 13.032 86.8749 13.37C87.0009 13.7081 87.1832 13.9716 87.4218 14.1605C87.6604 14.3461 87.9504 14.4389 88.2918 14.4389C88.6365 14.4389 88.9282 14.3445 89.1668 14.1555C89.4055 13.9633 89.5861 13.6982 89.7087 13.3601C89.8347 13.0187 89.8976 12.6259 89.8976 12.1818C89.8976 11.741 89.8363 11.3532 89.7137 11.0185C89.5911 10.6837 89.4104 10.4219 89.1718 10.233C88.9332 10.044 88.6398 9.94957 88.2918 9.94957C87.9471 9.94957 87.6555 10.0407 87.4168 10.223C87.1815 10.4053 87.0009 10.6638 86.8749 10.9986C86.749 11.3333 86.686 11.7277 86.686 12.1818ZM99.8259 10.5412L97.887 10.6605C97.8538 10.4948 97.7826 10.3456 97.6732 10.2131C97.5638 10.0772 97.4197 9.96946 97.2407 9.88991C97.065 9.80705 96.8546 9.76562 96.6093 9.76562C96.2812 9.76562 96.0044 9.83523 95.779 9.97443C95.5537 10.1103 95.441 10.2926 95.441 10.5213C95.441 10.7036 95.5139 10.8577 95.6597 10.9837C95.8055 11.1096 96.0558 11.2107 96.4104 11.2869L97.7925 11.5653C98.535 11.7178 99.0885 11.9631 99.453 12.3011C99.8176 12.6392 99.9999 13.0833 99.9999 13.6335C99.9999 14.134 99.8524 14.5732 99.5574 14.951C99.2658 15.3288 98.8647 15.6238 98.3543 15.8359C97.8472 16.0447 97.2622 16.1491 96.5993 16.1491C95.5885 16.1491 94.7831 15.9387 94.1832 15.5178C93.5866 15.0935 93.2369 14.5168 93.1341 13.7876L95.2172 13.6783C95.2802 13.9865 95.4327 14.2218 95.6746 14.3842C95.9166 14.5433 96.2265 14.6229 96.6043 14.6229C96.9755 14.6229 97.2738 14.5516 97.4992 14.4091C97.7279 14.2633 97.8439 14.076 97.8472 13.8473C97.8439 13.6551 97.7627 13.4976 97.6036 13.375C97.4445 13.2491 97.1993 13.1529 96.8678 13.0866L95.5454 12.8232C94.7996 12.674 94.2445 12.4155 93.8799 12.0476C93.5186 11.6797 93.338 11.2107 93.338 10.6406C93.338 10.1501 93.4706 9.72751 93.7357 9.37287C94.0042 9.01823 94.3804 8.74479 94.8643 8.55256C95.3515 8.36032 95.9216 8.2642 96.5745 8.2642C97.539 8.2642 98.298 8.46804 98.8515 8.87571C99.4083 9.28338 99.7331 9.83854 99.8259 10.5412ZM106.369 16H104.062L107.577 5.81818H110.351L113.861 16H111.554L109.003 8.14489H108.924L106.369 16ZM106.224 11.9979H111.673V13.6783H106.224V11.9979ZM118.141 16.1491C117.359 16.1491 116.686 15.9834 116.123 15.652C115.563 15.3172 115.132 14.8532 114.83 14.2599C114.532 13.6667 114.383 12.9839 114.383 12.2116C114.383 11.4295 114.534 10.7434 114.835 10.1534C115.14 9.56013 115.573 9.09777 116.133 8.76633C116.693 8.43158 117.359 8.2642 118.131 8.2642C118.797 8.2642 119.381 8.38518 119.881 8.62713C120.382 8.86908 120.778 9.20881 121.07 9.64631C121.361 10.0838 121.522 10.5975 121.552 11.1875H119.553C119.497 10.8063 119.348 10.4998 119.106 10.2678C118.867 10.0324 118.554 9.91477 118.166 9.91477C117.838 9.91477 117.551 10.0043 117.306 10.1832C117.064 10.3589 116.875 10.6158 116.739 10.9538C116.603 11.2919 116.535 11.7012 116.535 12.1818C116.535 12.669 116.602 13.0833 116.734 13.4247C116.87 13.7661 117.061 14.0263 117.306 14.2053C117.551 14.3842 117.838 14.4737 118.166 14.4737C118.408 14.4737 118.625 14.424 118.817 14.3246C119.013 14.2251 119.174 14.081 119.3 13.892C119.429 13.6998 119.513 13.4695 119.553 13.201H121.552C121.519 13.7843 121.36 14.2981 121.074 14.7422C120.793 15.183 120.403 15.5277 119.906 15.7763C119.409 16.0249 118.821 16.1491 118.141 16.1491ZM126.358 16.1491C125.576 16.1491 124.903 15.9834 124.34 15.652C123.779 15.3172 123.349 14.8532 123.047 14.2599C122.749 13.6667 122.6 12.9839 122.6 12.2116C122.6 11.4295 122.75 10.7434 123.052 10.1534C123.357 9.56013 123.789 9.09777 124.35 8.76633C124.91 8.43158 125.576 8.2642 126.348 8.2642C127.014 8.2642 127.598 8.38518 128.098 8.62713C128.599 8.86908 128.995 9.20881 129.286 9.64631C129.578 10.0838 129.739 10.5975 129.769 11.1875H127.77C127.714 10.8063 127.564 10.4998 127.323 10.2678C127.084 10.0324 126.771 9.91477 126.383 9.91477C126.055 9.91477 125.768 10.0043 125.523 10.1832C125.281 10.3589 125.092 10.6158 124.956 10.9538C124.82 11.2919 124.752 11.7012 124.752 12.1818C124.752 12.669 124.819 13.0833 124.951 13.4247C125.087 13.7661 125.278 14.0263 125.523 14.2053C125.768 14.3842 126.055 14.4737 126.383 14.4737C126.625 14.4737 126.842 14.424 127.034 14.3246C127.23 14.2251 127.39 14.081 127.516 13.892C127.646 13.6998 127.73 13.4695 127.77 13.201H129.769C129.735 13.7843 129.576 14.2981 129.291 14.7422C129.01 15.183 128.62 15.5277 128.123 15.7763C127.626 16.0249 127.037 16.1491 126.358 16.1491ZM134.605 16.1491C133.819 16.1491 133.143 15.9901 132.576 15.6719C132.013 15.3504 131.579 14.8963 131.274 14.3097C130.969 13.7197 130.816 13.022 130.816 12.2166C130.816 11.4311 130.969 10.7417 131.274 10.1484C131.579 9.55516 132.008 9.0928 132.561 8.76136C133.118 8.42992 133.771 8.2642 134.52 8.2642C135.024 8.2642 135.493 8.34541 135.927 8.50781C136.365 8.6669 136.746 8.9072 137.071 9.22869C137.399 9.55019 137.654 9.95455 137.836 10.4418C138.018 10.9257 138.11 11.4924 138.11 12.142V12.7237H131.661V11.4112H136.116C136.116 11.1063 136.05 10.8362 135.917 10.6009C135.785 10.3655 135.601 10.1816 135.365 10.049C135.133 9.91312 134.863 9.84517 134.555 9.84517C134.233 9.84517 133.948 9.91974 133.7 10.0689C133.455 10.2147 133.262 10.4119 133.123 10.6605C132.984 10.9058 132.913 11.1792 132.909 11.4808V12.7287C132.909 13.1065 132.979 13.433 133.118 13.7081C133.261 13.9832 133.461 14.1953 133.72 14.3445C133.978 14.4936 134.285 14.5682 134.639 14.5682C134.875 14.5682 135.09 14.535 135.286 14.4688C135.481 14.4025 135.649 14.303 135.788 14.1705C135.927 14.0379 136.033 13.8755 136.106 13.6832L138.065 13.8125C137.965 14.2831 137.762 14.6941 137.453 15.0455C137.148 15.3935 136.754 15.6652 136.27 15.8608C135.79 16.053 135.234 16.1491 134.605 16.1491ZM145.845 10.5412L143.907 10.6605C143.873 10.4948 143.802 10.3456 143.693 10.2131C143.583 10.0772 143.439 9.96946 143.26 9.88991C143.085 9.80705 142.874 9.76562 142.629 9.76562C142.301 9.76562 142.024 9.83523 141.799 9.97443C141.573 10.1103 141.46 10.2926 141.46 10.5213C141.46 10.7036 141.533 10.8577 141.679 10.9837C141.825 11.1096 142.075 11.2107 142.43 11.2869L143.812 11.5653C144.554 11.7178 145.108 11.9631 145.473 12.3011C145.837 12.6392 146.019 13.0833 146.019 13.6335C146.019 14.134 145.872 14.5732 145.577 14.951C145.285 15.3288 144.884 15.6238 144.374 15.8359C143.867 16.0447 143.282 16.1491 142.619 16.1491C141.608 16.1491 140.803 15.9387 140.203 15.5178C139.606 15.0935 139.256 14.5168 139.154 13.7876L141.237 13.6783C141.3 13.9865 141.452 14.2218 141.694 14.3842C141.936 14.5433 142.246 14.6229 142.624 14.6229C142.995 14.6229 143.293 14.5516 143.519 14.4091C143.747 14.2633 143.863 14.076 143.867 13.8473C143.863 13.6551 143.782 13.4976 143.623 13.375C143.464 13.2491 143.219 13.1529 142.887 13.0866L141.565 12.8232C140.819 12.674 140.264 12.4155 139.899 12.0476C139.538 11.6797 139.358 11.2107 139.358 10.6406C139.358 10.1501 139.49 9.72751 139.755 9.37287C140.024 9.01823 140.4 8.74479 140.884 8.55256C141.371 8.36032 141.941 8.2642 142.594 8.2642C143.559 8.2642 144.318 8.46804 144.871 8.87571C145.428 9.28338 145.753 9.83854 145.845 10.5412ZM153.707 10.5412L151.768 10.6605C151.735 10.4948 151.663 10.3456 151.554 10.2131C151.445 10.0772 151.301 9.96946 151.122 9.88991C150.946 9.80705 150.735 9.76562 150.49 9.76562C150.162 9.76562 149.885 9.83523 149.66 9.97443C149.435 10.1103 149.322 10.2926 149.322 10.5213C149.322 10.7036 149.395 10.8577 149.541 10.9837C149.686 11.1096 149.937 11.2107 150.291 11.2869L151.673 11.5653C152.416 11.7178 152.969 11.9631 153.334 12.3011C153.698 12.6392 153.881 13.0833 153.881 13.6335C153.881 14.134 153.733 14.5732 153.438 14.951C153.147 15.3288 152.746 15.6238 152.235 15.8359C151.728 16.0447 151.143 16.1491 150.48 16.1491C149.469 16.1491 148.664 15.9387 148.064 15.5178C147.467 15.0935 147.118 14.5168 147.015 13.7876L149.098 13.6783C149.161 13.9865 149.314 14.2218 149.555 14.3842C149.797 14.5433 150.107 14.6229 150.485 14.6229C150.856 14.6229 151.155 14.5516 151.38 14.4091C151.609 14.2633 151.725 14.076 151.728 13.8473C151.725 13.6551 151.644 13.4976 151.484 13.375C151.325 13.2491 151.08 13.1529 150.749 13.0866L149.426 12.8232C148.68 12.674 148.125 12.4155 147.761 12.0476C147.399 11.6797 147.219 11.2107 147.219 10.6406C147.219 10.1501 147.351 9.72751 147.617 9.37287C147.885 9.01823 148.261 8.74479 148.745 8.55256C149.232 8.36032 149.802 8.2642 150.455 8.2642C151.42 8.2642 152.179 8.46804 152.732 8.87571C153.289 9.28338 153.614 9.83854 153.707 10.5412Z" fill="#171840"/>
<defs>
<linearGradient id="paint0_linear_35_254" x1="1.14013" y1="3.55838" x2="16.6245" y2="8.59252" gradientUnits="userSpaceOnUse">
<stop stop-color="#2469E9"/>
<stop offset="1" stop-color="#5CADF6"/>
</linearGradient>
<linearGradient id="paint1_linear_35_254" x1="-0.216358" y1="7.7309" x2="15.268" y2="12.765" gradientUnits="userSpaceOnUse">
<stop stop-color="#2469E9"/>
<stop offset="1" stop-color="#5CADF6"/>
</linearGradient>
<linearGradient id="paint2_linear_35_254" x1="-1.11328" y1="10.4896" x2="14.3711" y2="15.5237" gradientUnits="userSpaceOnUse">
<stop stop-color="#2469E9"/>
<stop offset="1" stop-color="#5CADF6"/>
</linearGradient>
</defs>
</svg>
