<svg width="32" height="32" viewBox="0 0 32 32" fill="none" xmlns="http://www.w3.org/2000/svg">
<path fill-rule="evenodd" clip-rule="evenodd" d="M12.5573 13.3341H8.77596C8.22112 13.3294 7.68718 13.5454 7.29159 13.9345C6.89601 14.3236 6.6712 14.8539 6.66663 15.4087V23.2607C6.67689 24.4156 7.62108 25.3437 8.77596 25.3341H12.5573C13.1121 25.3387 13.6461 25.1227 14.0417 24.7336C14.4372 24.3445 14.662 23.8142 14.6666 23.2594V15.4087C14.662 14.8539 14.4372 14.3236 14.0417 13.9345C13.6461 13.5454 13.1121 13.3294 12.5573 13.3341Z" stroke="white" stroke-opacity="0.42" stroke-width="1.5" stroke-linecap="round" stroke-linejoin="round"/>
<path fill-rule="evenodd" clip-rule="evenodd" d="M12.5573 5.33418H8.77596C7.6443 5.30279 6.70074 6.19327 6.66663 7.32485V8.67685C6.70074 9.80842 7.6443 10.6989 8.77596 10.6675H12.5573C13.689 10.6989 14.6325 9.80842 14.6666 8.67685V7.32485C14.6325 6.19327 13.689 5.30279 12.5573 5.33418Z" stroke="white" stroke-opacity="0.42" stroke-width="1.5" stroke-linecap="round" stroke-linejoin="round"/>
<path fill-rule="evenodd" clip-rule="evenodd" d="M19.4426 17.3343H23.2226C23.7777 17.3393 24.3119 17.1234 24.7078 16.7343C25.1037 16.3452 25.3287 15.8147 25.3333 15.2596V7.40897C25.3287 6.85413 25.1039 6.32384 24.7083 5.93476C24.3127 5.54568 23.7788 5.32968 23.2239 5.3343H19.4426C18.8877 5.32968 18.3538 5.54568 17.9582 5.93476C17.5626 6.32384 17.3378 6.85413 17.3333 7.40897V15.2596C17.3378 15.8145 17.5626 16.3448 17.9582 16.7338C18.3538 17.1229 18.8877 17.3389 19.4426 17.3343Z" stroke="white" stroke-opacity="0.42" stroke-width="1.5" stroke-linecap="round" stroke-linejoin="round"/>
<path fill-rule="evenodd" clip-rule="evenodd" d="M19.4426 25.3341H23.2226C24.3548 25.3663 25.2991 24.4756 25.3333 23.3435V21.9915C25.2991 20.8599 24.3556 19.9694 23.2239 20.0008H19.4426C18.3109 19.9694 17.3674 20.8599 17.3333 21.9915V23.3421C17.3666 24.4742 18.3104 25.3655 19.4426 25.3341Z" stroke="white" stroke-opacity="0.42" stroke-width="1.5" stroke-linecap="round" stroke-linejoin="round"/>
</svg>
