<svg width="11" height="11" viewBox="0 0 11 11" fill="none" xmlns="http://www.w3.org/2000/svg">
<path d="M2.98728 2.98728C2.36359 3.61208 1.99486 4.4467 1.95293 5.32852C1.91099 6.21034 2.19885 7.07618 2.76043 7.75736C3.322 8.43853 4.11706 8.88623 4.99069 9.01323C5.86432 9.14023 6.75395 8.93744 7.48622 8.44436C8.2185 7.95127 8.74098 7.20323 8.95186 6.34597C9.16273 5.48871 9.04691 4.58365 8.62694 3.80713C8.20697 3.03061 7.51295 2.43825 6.6801 2.14547C5.84724 1.85269 4.93522 1.88047 4.12173 2.22339C3.69795 2.40265 3.31275 2.66203 2.98728 2.98728ZM5.50973 8.47753C4.72263 8.48615 3.96433 8.18174 3.40167 7.63127C2.83901 7.08079 2.51806 6.32935 2.50944 5.54224C2.50082 4.75514 2.80523 3.99684 3.3557 3.43418C3.90617 2.87151 4.65762 2.55057 5.44472 2.54195H5.50973V8.47753Z" fill="#2469E9"/>
<path d="M5.50325 11C4.41518 11.0006 3.35136 10.6785 2.44639 10.0744C1.54142 9.47034 0.835972 8.61139 0.419287 7.60626C0.00260222 6.60113 -0.10659 5.495 0.105525 4.4278C0.31764 3.3606 0.841531 2.3803 1.61091 1.61091C2.3803 0.841531 3.3606 0.31764 4.4278 0.105525C5.495 -0.10659 6.60113 0.00260222 7.60626 0.419287C8.61139 0.835972 9.47034 1.54142 10.0744 2.44639C10.6785 3.35136 11.0006 4.41518 11 5.50325C10.9974 6.96029 10.4175 8.35691 9.38719 9.38719C8.35691 10.4175 6.96029 10.9974 5.50325 11ZM5.50325 0.880912C4.58904 0.880912 3.69536 1.15201 2.93522 1.65992C2.17508 2.16783 1.58262 2.88974 1.23277 3.73436C0.882912 4.57898 0.791374 5.50838 0.969728 6.40502C1.14808 7.30167 1.58832 8.12529 2.23476 8.77174C2.88121 9.41818 3.70483 9.85842 4.60148 10.0368C5.49812 10.2151 6.42752 10.1236 7.27214 9.77374C8.11677 9.42388 8.83868 8.83142 9.34659 8.07129C9.85449 7.31115 10.1256 6.41746 10.1256 5.50325C10.1239 4.27786 9.63632 3.10315 8.76984 2.23666C7.90335 1.37018 6.72864 0.882631 5.50325 0.880912Z" fill="#2469E9"/>
</svg>
