<svg width="52" height="18" viewBox="0 0 52 18" fill="none" xmlns="http://www.w3.org/2000/svg">
<path d="M14.3628 7.60034C13.228 7.99737 12.15 8.67799 11.299 9.52878C10.5046 10.3796 9.88051 11.4005 9.54008 12.5349C9.19965 11.4005 8.57553 10.3796 7.7812 9.52878C6.93013 8.62128 5.85211 7.94065 4.71735 7.60034C4.9443 4.36736 6.81665 1.53141 9.48334 0C12.2068 1.53141 14.0791 4.36736 14.3628 7.60034Z" fill="url(#paint0_linear_6_174)"/>
<path d="M16.9727 15.0305C15.1004 16.959 12.3202 17.753 9.71027 17.1858V17.1291C9.767 16.959 9.767 16.8455 9.82374 16.6754C9.88048 16.5052 9.88048 16.3351 9.93722 16.2216C9.93722 16.1649 9.93722 16.1082 9.93722 16.1082C9.93722 15.938 9.99396 15.8246 9.99396 15.6544C9.99396 15.4843 9.99396 15.3141 9.99396 15.144C9.99396 14.8604 9.99396 14.5768 9.93722 14.2932C9.93722 14.1797 9.88048 14.0096 9.88048 13.8961C9.88048 13.7827 9.82374 13.6693 9.82374 13.4991C9.82374 13.3857 9.767 13.3289 9.767 13.2155C9.767 13.1021 9.71027 13.0454 9.71027 12.9319C10.0507 11.7975 10.6748 10.7199 11.5259 9.81237C12.377 8.96159 13.3982 8.28096 14.533 7.88393C15.8947 7.43018 17.3699 7.37346 18.7883 7.65705C19.5259 10.2661 18.7883 13.1021 16.9727 15.0305Z" fill="url(#paint1_linear_6_174)"/>
<path d="M9.54008 16.6186C9.48334 16.7888 9.48334 16.959 9.4266 17.1291C6.75991 17.8097 3.97975 17.0157 2.1074 15.0305C0.235043 13.1021 -0.445814 10.2661 0.291781 7.65705C1.71023 7.37346 3.18542 7.43018 4.54713 7.88393C5.68189 8.28096 6.75991 8.96159 7.61098 9.81237C8.46205 10.7199 9.08617 11.7408 9.4266 12.9319C9.76703 14.123 9.76703 15.4275 9.54008 16.6186Z" fill="url(#paint2_linear_6_174)"/>
<path d="M29.7329 12.2574H23.309C23.3545 12.8951 23.5823 13.3961 23.9924 13.7604C24.4024 14.1248 24.858 14.3069 25.4503 14.3069C26.2704 14.3069 26.8626 13.9426 27.2271 13.2594H29.6418C29.3684 14.1248 28.9128 14.8079 28.1839 15.3545C27.4549 15.901 26.5893 16.1743 25.5414 16.1743C24.6758 16.1743 23.9468 15.9921 23.2634 15.6277C22.58 15.2634 22.0789 14.7168 21.7144 14.0337C21.2588 13.305 21.0765 12.5307 21.0765 11.6198C21.0765 10.7089 21.2588 9.93468 21.6233 9.20597C21.9877 8.5228 22.4889 7.97627 23.1723 7.61191C23.8557 7.24755 24.5846 7.06538 25.4503 7.06538C26.2704 7.06538 27.0449 7.24755 27.6827 7.61191C28.3205 7.97627 28.8673 8.47725 29.2317 9.16042C29.5962 9.84359 29.7785 10.5723 29.7785 11.4376C29.824 11.7565 29.7785 12.0297 29.7329 12.2574ZM27.5005 10.8C27.5005 10.2079 27.2727 9.7525 26.8626 9.43369C26.4526 9.06933 25.9514 8.9327 25.4047 8.9327C24.858 8.9327 24.4024 9.11488 24.0379 9.43369C23.6734 9.7525 23.4456 10.2079 23.3545 10.8H27.5005Z" fill="#14174A"/>
<path d="M30.5986 9.20597C30.963 8.5228 31.4642 7.97627 32.1476 7.61191C32.7854 7.24755 33.5599 7.06538 34.38 7.06538C35.4735 7.06538 36.3847 7.33864 37.068 7.88518C37.7514 8.43171 38.2526 9.20597 38.4804 10.1624H36.0657C35.9291 9.79804 35.7468 9.47923 35.4279 9.25151C35.109 9.02379 34.7445 8.9327 34.2889 8.9327C33.6511 8.9327 33.1499 9.16042 32.7854 9.61587C32.421 10.0713 32.2387 10.7089 32.2387 11.5743C32.2387 12.3941 32.421 13.0772 32.7854 13.5327C33.1499 13.9881 33.6511 14.2159 34.2889 14.2159C35.2001 14.2159 35.7924 13.806 36.0657 13.0317H38.4804C38.2526 13.9881 37.7514 14.7168 37.0225 15.3089C36.2935 15.8555 35.4279 16.1287 34.3345 16.1287C33.4688 16.1287 32.7399 15.9465 32.102 15.5822C31.4642 15.2178 30.9175 14.6713 30.553 13.9881C30.1885 13.305 30.0063 12.5307 30.0063 11.6198C30.0063 10.7089 30.2341 9.88913 30.5986 9.20597Z" fill="#14174A"/>
<path d="M41.5785 4.28716V15.9921H39.3461V4.28716H41.5785Z" fill="#14174A"/>
<path d="M42.9453 9.20597C43.3098 8.5228 43.7653 7.97627 44.4032 7.61191C44.9955 7.24755 45.6789 7.06538 46.4534 7.06538C47.0912 7.06538 47.6835 7.20201 48.1846 7.47528C48.6858 7.74854 49.0503 8.06735 49.3692 8.47725V7.20201H51.6016V15.9921H49.3236V14.7168C49.0503 15.1267 48.6402 15.4911 48.1391 15.7188C47.6379 15.9921 47.0457 16.1287 46.4078 16.1287C45.6789 16.1287 44.9955 15.9465 44.4032 15.5366C43.8109 15.1723 43.3098 14.6258 42.9453 13.9426C42.5808 13.2594 42.3986 12.4396 42.3986 11.5743C42.4441 10.7089 42.5808 9.88913 42.9453 9.20597ZM49.0047 10.2079C48.7769 9.84359 48.5036 9.52478 48.1391 9.3426C47.7746 9.11488 47.4101 9.02379 47.0001 9.02379C46.5901 9.02379 46.2256 9.11488 45.8611 9.3426C45.4966 9.52478 45.2233 9.84359 44.9955 10.2079C44.7677 10.5723 44.6765 11.0733 44.6765 11.5743C44.6765 12.1208 44.7677 12.5763 44.9955 12.9406C45.2233 13.305 45.4966 13.6238 45.8611 13.8515C46.2256 14.0792 46.5901 14.1703 47.0001 14.1703C47.4101 14.1703 47.8202 14.0792 48.1391 13.8515C48.5036 13.6238 48.7769 13.3505 49.0047 12.9862C49.2325 12.6218 49.3236 12.1208 49.3236 11.6198C49.3236 11.0733 49.2325 10.6178 49.0047 10.2079Z" fill="#14174A"/>
<defs>
<linearGradient id="paint0_linear_6_174" x1="1.14013" y1="3.55838" x2="16.6245" y2="8.59252" gradientUnits="userSpaceOnUse">
<stop stop-color="#2469E9"/>
<stop offset="1" stop-color="#5CADF6"/>
</linearGradient>
<linearGradient id="paint1_linear_6_174" x1="-0.216388" y1="7.7309" x2="15.268" y2="12.765" gradientUnits="userSpaceOnUse">
<stop stop-color="#2469E9"/>
<stop offset="1" stop-color="#5CADF6"/>
</linearGradient>
<linearGradient id="paint2_linear_6_174" x1="-1.11328" y1="10.4896" x2="14.3711" y2="15.5237" gradientUnits="userSpaceOnUse">
<stop stop-color="#2469E9"/>
<stop offset="1" stop-color="#5CADF6"/>
</linearGradient>
</defs>
</svg>
