<svg width="36" height="36" viewBox="0 0 36 36" fill="none" xmlns="http://www.w3.org/2000/svg">
<path d="M6.72 9.72002V4.84C6.72 2.71922 8.43922 1 10.56 1C12.6808 1 14.4 2.71922 14.4 4.84V9.72002" stroke="#2469E8" stroke-width="2"/>
<path d="M15.32 6.64008H5.68C4.19988 6.64008 3 7.83995 3 9.32007V12.0801C3 13.5602 4.19988 14.7601 5.68 14.7601H15.32C16.8001 14.7601 18 13.5602 18 12.0801V9.32007C18 7.83995 16.8001 6.64008 15.32 6.64008Z" fill="#2469E9"/>
<g filter="url(#filter0_d_167_35)">
<path d="M11.7194 10.4393C11.4489 10.5339 11.1919 10.6962 10.989 10.8991C10.7996 11.1018 10.6508 11.3453 10.5696 11.6157C10.4885 11.3453 10.3397 11.1018 10.1503 10.8991C9.9474 10.6827 9.69039 10.5204 9.41986 10.4393C9.47396 9.66846 9.92035 8.99238 10.5561 8.62728C11.2054 8.99238 11.6518 9.66846 11.7194 10.4393Z" fill="url(#paint0_linear_167_35)"/>
<path d="M12.3417 12.2105C11.8953 12.6704 11.2324 12.8596 10.6102 12.7244V12.7109C10.6237 12.6704 10.6237 12.6433 10.6373 12.6027C10.6508 12.5621 10.6508 12.5216 10.6643 12.4946C10.6643 12.4811 10.6643 12.4675 10.6643 12.4675C10.6643 12.4269 10.6778 12.3999 10.6778 12.3593C10.6778 12.3188 10.6778 12.2782 10.6778 12.2376C10.6778 12.17 10.6778 12.1024 10.6643 12.0348C10.6643 12.0078 10.6508 11.9672 10.6508 11.9401C10.6508 11.9131 10.6373 11.886 10.6373 11.8455C10.6373 11.8184 10.6237 11.8049 10.6237 11.7779C10.6237 11.7508 10.6102 11.7373 10.6102 11.7103C10.6914 11.4398 10.8402 11.1829 11.0431 10.9665C11.246 10.7637 11.4895 10.6015 11.76 10.5068C12.0846 10.3986 12.4363 10.3851 12.7745 10.4527C12.9504 11.0747 12.7745 11.7508 12.3417 12.2105Z" fill="url(#paint1_linear_167_35)"/>
<path d="M10.5697 12.5892C10.5561 12.6298 10.5561 12.6704 10.5426 12.7109C9.90683 12.8732 9.24402 12.6838 8.79763 12.2105C8.35124 11.7508 8.18891 11.0747 8.36476 10.4527C8.70293 10.3851 9.05464 10.3986 9.37928 10.5068C9.64982 10.6015 9.90683 10.7637 10.1097 10.9665C10.3126 11.1829 10.4614 11.4263 10.5426 11.7103C10.6238 11.9942 10.6238 12.3053 10.5697 12.5892Z" fill="url(#paint2_linear_167_35)"/>
<path d="M10.9787 10.8893C10.798 11.0828 10.6539 11.3131 10.5696 11.5687C10.4854 11.3131 10.3412 11.0828 10.1606 10.8893H10.1606C9.95877 10.6741 9.70379 10.512 9.43471 10.429C9.49178 9.67055 9.93112 9.00542 10.5562 8.64343C11.1946 9.00545 11.6342 9.67073 11.7044 10.4296C11.4356 10.5254 11.1808 10.6873 10.979 10.889H10.979L10.9787 10.8893ZM10.6769 12.5009L10.6784 12.4979V12.4946V12.4945V12.4944V12.4944V12.4943V12.4942V12.4941V12.494V12.4939V12.4938V12.4937V12.4936V12.4935V12.4934V12.4933V12.4932V12.4931V12.493V12.4929V12.4928V12.4928V12.4927V12.4926V12.4925V12.4924V12.4923V12.4922V12.4921V12.492V12.4919V12.4918V12.4917V12.4916V12.4915V12.4914V12.4913V12.4912V12.4912V12.4911V12.491V12.4909V12.4908V12.4907V12.4906V12.4905V12.4904V12.4903V12.4902V12.4901V12.49V12.4899V12.4898V12.4897V12.4897V12.4896V12.4895V12.4894V12.4893V12.4892V12.4891V12.489V12.4889V12.4888V12.4887V12.4886V12.4885V12.4884V12.4883V12.4882V12.4881V12.4881V12.488V12.4879V12.4878V12.4877V12.4876V12.4875V12.4874V12.4873V12.4872V12.4871V12.487V12.4869V12.4868V12.4867V12.4866V12.4866V12.4865V12.4864V12.4863V12.4862V12.4861V12.486V12.4859V12.4858V12.4857V12.4856V12.4855V12.4854V12.4853V12.4852V12.4851V12.485V12.485V12.4849V12.4848V12.4847V12.4846V12.4845V12.4844V12.4843V12.4842V12.4841V12.484V12.4839V12.4838V12.4837V12.4836V12.4835V12.4835V12.4834V12.4833V12.4832V12.4831V12.483V12.4829V12.4828V12.4827V12.4826V12.4825V12.4824V12.4823V12.4822V12.4821V12.482V12.4819V12.4819V12.4818V12.4817V12.4816V12.4815V12.4814V12.4813V12.4812V12.4811V12.481V12.4809V12.4808V12.4807V12.4806V12.4805V12.4804V12.4804V12.4803V12.4802V12.4801V12.48V12.4799V12.4798V12.4797V12.4796V12.4795V12.4794V12.4793V12.4792V12.4791V12.479V12.4789V12.4788V12.4788V12.4787V12.4786V12.4785V12.4784V12.4783V12.4782V12.4781V12.478V12.4779V12.4778V12.4777V12.4776V12.4775V12.4774V12.4773V12.4773V12.4772V12.4771V12.477V12.4769V12.4768V12.4767V12.4766V12.4765V12.4764V12.4763V12.4762V12.4761V12.476V12.4759V12.4758V12.4757V12.4757V12.4756V12.4755V12.4754V12.4753V12.4752V12.4751V12.475V12.4749V12.4748V12.4747V12.4746V12.4745V12.4744V12.4743V12.4742V12.4741V12.4741V12.474V12.4739V12.4738V12.4737V12.4736V12.4735V12.4734V12.4733V12.4732V12.4731V12.473V12.4729V12.4728V12.4727V12.4726V12.4726V12.4725V12.4724V12.4723V12.4722V12.4721V12.472V12.4719V12.4718V12.4717V12.4716V12.4715V12.4714V12.4713V12.4712V12.4711V12.471V12.471V12.4709V12.4708V12.4707V12.4706V12.4705V12.4704V12.4703V12.4702V12.4701V12.47V12.4699V12.4698V12.4697V12.4696V12.4695V12.4695V12.4694V12.4693V12.4692V12.4691V12.469V12.4689V12.4688V12.4687V12.4686V12.4685V12.4684V12.4683V12.4682V12.4681V12.468V12.4679V12.4679V12.4678V12.4677V12.4676C10.6784 12.4489 10.6815 12.4332 10.6849 12.4163L10.685 12.4158C10.6883 12.3991 10.6919 12.381 10.6919 12.3593V12.3591V12.3589V12.3587V12.3584V12.3582V12.3579V12.3577V12.3574V12.3573V12.357V12.3568V12.3565V12.3563V12.356V12.3559V12.3556V12.3553V12.3551V12.3548V12.3546V12.3543V12.3542V12.3539V12.3537V12.3534V12.3532V12.3529V12.3528V12.3525V12.3523V12.352V12.3518V12.3515V12.3512V12.3511V12.3508V12.3506V12.3503V12.3501V12.3498V12.3497V12.3494V12.3492V12.3489V12.3487V12.3484V12.3482V12.348V12.3478V12.3475V12.3472V12.347V12.3467V12.3466V12.3463V12.3461V12.3458V12.3456V12.3453V12.3451V12.3449V12.3447V12.3444V12.3442V12.3439V12.3437V12.3434V12.3432V12.343V12.3427V12.3425V12.3422V12.342V12.3418V12.3416V12.3413V12.3411V12.3408V12.3406V12.3403V12.3402V12.3399V12.3397V12.3394V12.3391V12.3389V12.3387V12.3385V12.3382V12.338V12.3377V12.3375V12.3372V12.3371V12.3368V12.3366V12.3363V12.3361V12.3358V12.3357V12.3354V12.3351V12.3349V12.3346V12.3344V12.3341V12.334V12.3337V12.3335V12.3332V12.333V12.3327V12.3326V12.3323V12.3321V12.3318V12.3316V12.3313V12.331V12.3309V12.3306V12.3304V12.3301V12.3299V12.3296V12.3294V12.3292V12.329V12.3287V12.3285V12.3282V12.328V12.3278V12.3276V12.3273V12.327V12.3268V12.3265V12.3263V12.3261V12.3259V12.3256V12.3254V12.3251V12.3249V12.3247V12.3245V12.3242V12.324V12.3237V12.3234V12.3232V12.323V12.3228V12.3225V12.3223V12.322V12.3218V12.3216V12.3214V12.3211V12.3209V12.3206V12.3204V12.3201V12.32V12.3197V12.3194V12.3192V12.3189V12.3187V12.3185V12.3183V12.318V12.3178V12.3175V12.3173V12.317V12.3169V12.3166V12.3164V12.3161V12.3159V12.3156V12.3154V12.3152V12.3149V12.3147V12.3144V12.3142V12.3139V12.3138V12.3135V12.3133V12.313V12.3128V12.3125V12.3123V12.3121V12.3119V12.3116V12.3113V12.3111V12.3108V12.3107V12.3104V12.3102V12.3099V12.3097V12.3094V12.3092V12.309V12.3088V12.3085V12.3083V12.308V12.3078V12.3076V12.3073V12.3071V12.3068V12.3066V12.3063V12.3061V12.3059V12.3057V12.3054V12.3052V12.3049V12.3047V12.3045V12.3043V12.304V12.3038V12.3035V12.3032V12.303V12.3028V12.3026V12.3023V12.3021V12.3018V12.3016V12.3014V12.3012V12.3009V12.3007V12.3004V12.3002V12.2999V12.2998V12.2995V12.2992V12.299V12.2987V12.2985V12.2983V12.2981V12.2978V12.2976V12.2973V12.2971V12.2968V12.2967V12.2964V12.2962V12.2959V12.2957V12.2954V12.2952V12.295V12.2947V12.2945V12.2942V12.294V12.2937V12.2936V12.2933V12.2931V12.2928V12.2926V12.2923V12.2921V12.2919V12.2917V12.2914V12.2911V12.2909V12.2906V12.2905V12.2902V12.29V12.2897V12.2895V12.2892V12.289V12.2888V12.2886V12.2883V12.2881V12.2878V12.2876V12.2874V12.2871V12.2869V12.2866V12.2864V12.2861V12.2859V12.2857V12.2855V12.2852V12.285V12.2847V12.2845V12.2843V12.2841V12.2838V12.2836V12.2833V12.283V12.2828V12.2826V12.2824V12.2821V12.2819V12.2816V12.2814V12.2812V12.281V12.2807V12.2805V12.2802V12.28V12.2797V12.2795V12.2793V12.279V12.2788V12.2785V12.2783V12.2781V12.2779V12.2776V12.2774V12.2771V12.2769V12.2766V12.2765V12.2762V12.276V12.2757V12.2754V12.2752V12.275V12.2748V12.2745V12.2743V12.274V12.2738V12.2735V12.2734V12.2731V12.2729V12.2726V12.2724V12.2721V12.2719V12.2717V12.2714V12.2712V12.2709V12.2707V12.2704V12.2703V12.27V12.2698V12.2695V12.2693V12.269V12.2688V12.2686V12.2684V12.2681V12.2679V12.2676V12.2673V12.2672V12.2669V12.2667V12.2664V12.2662V12.2659V12.2657V12.2655V12.2653V12.265V12.2648V12.2645V12.2643V12.2641V12.2639V12.2636V12.2633V12.2631V12.2628V12.2626V12.2624V12.2622V12.2619V12.2617V12.2614V12.2612V12.261V12.2608V12.2605V12.2603V12.26V12.2598V12.2595V12.2593V12.2591V12.2588V12.2586V12.2583V12.2581V12.2579V12.2577V12.2574V12.2572V12.2569V12.2567V12.2564V12.2563V12.256V12.2558V12.2555V12.2552V12.255V12.2548V12.2546V12.2543V12.2541V12.2538V12.2536V12.2533V12.2532V12.2529V12.2527V12.2524V12.2522V12.2519V12.2517V12.2515V12.2512V12.251V12.2507V12.2505V12.2502V12.2501V12.2498V12.2496V12.2493V12.2491V12.2488V12.2486V12.2484V12.2482V12.2479V12.2477V12.2474V12.2471V12.247V12.2467V12.2465V12.2462V12.246V12.2457V12.2455V12.2453V12.2451V12.2448V12.2446V12.2443V12.2441V12.2439V12.2437V12.2434V12.2431V12.2429V12.2426V12.2424V12.2422V12.242V12.2417V12.2415V12.2412V12.241V12.2407V12.2406V12.2403V12.2401V12.2398V12.2395V12.2393V12.2391V12.2389V12.2386V12.2384V12.2381V12.2379V12.2377V12.237C10.6919 12.1703 10.6919 12.102 10.6784 12.0334C10.6782 12.0187 10.6747 12.0013 10.6716 11.9857L10.6714 11.9847C10.6679 11.9673 10.6649 11.952 10.6649 11.9402C10.6649 11.9264 10.6618 11.9126 10.6588 11.8995C10.6585 11.8979 10.6581 11.8964 10.6578 11.8949C10.6544 11.8798 10.6514 11.8642 10.6514 11.8456C10.6514 11.8297 10.6474 11.8177 10.644 11.8077L10.6439 11.8072C10.6405 11.7972 10.6378 11.7889 10.6378 11.7779C10.6378 11.7621 10.6338 11.7501 10.6305 11.74L10.6303 11.7397C10.6272 11.7302 10.6246 11.7223 10.6243 11.7123C10.705 11.4448 10.8523 11.1906 11.0532 10.9764C11.2547 10.775 11.4964 10.614 11.7645 10.5201C12.0839 10.4138 12.4299 10.3996 12.7633 10.4649C12.9338 11.0797 12.7591 11.7467 12.3315 12.2009C11.8912 12.6543 11.2387 12.8427 10.6243 12.7131C10.6309 12.693 10.6343 12.6761 10.6375 12.6598L10.6375 12.6596C10.6409 12.6427 10.6442 12.6266 10.6506 12.6072C10.6572 12.5877 10.6607 12.568 10.6638 12.5508C10.6641 12.5492 10.6644 12.5477 10.6646 12.5461C10.6681 12.5272 10.6712 12.5123 10.6769 12.5009ZM8.80785 12.2009L8.80771 12.2008C8.36693 11.7468 8.20522 11.08 8.37597 10.4649C8.70934 10.3996 9.05534 10.4138 9.3747 10.5201C9.64311 10.6141 9.89821 10.7751 10.0996 10.9764C10.3011 11.1913 10.4486 11.4327 10.529 11.7142C10.6094 11.9953 10.6096 12.3037 10.5559 12.5857C10.549 12.6067 10.5456 12.6276 10.5423 12.6473L10.5422 12.6478C10.5392 12.6656 10.5364 12.6826 10.5315 12.6992C9.90293 12.8569 9.24889 12.6686 8.80785 12.2009Z" fill="url(#paint3_linear_167_35)" stroke="white" stroke-width="0.3"/>
</g>
<defs>
<filter id="filter0_d_167_35" x="0.555621" y="0.8669" width="35.2333" height="34.8479" filterUnits="userSpaceOnUse" color-interpolation-filters="sRGB">
<feFlood flood-opacity="0" result="BackgroundImageFix"/>
<feColorMatrix in="SourceAlpha" type="matrix" values="0 0 0 0 0 0 0 0 0 0 0 0 0 0 0 0 0 0 127 0" result="hardAlpha"/>
<feOffset dx="7.60365" dy="7.60365"/>
<feGaussianBlur stdDeviation="7.60365"/>
<feColorMatrix type="matrix" values="0 0 0 0 0.15375 0 0 0 0 0.522433 0 0 0 0 0.9 0 0 0 0.5 0"/>
<feBlend mode="normal" in2="BackgroundImageFix" result="effect1_dropShadow_167_35"/>
<feBlend mode="normal" in="SourceGraphic" in2="effect1_dropShadow_167_35" result="shape"/>
</filter>
<linearGradient id="paint0_linear_167_35" x1="13.6213" y1="7.3129" x2="8.58278" y2="7.45434" gradientUnits="userSpaceOnUse">
<stop stop-color="white"/>
<stop offset="1" stop-color="white" stop-opacity="0.2"/>
</linearGradient>
<linearGradient id="paint1_linear_167_35" x1="14.6879" y1="9.37523" x2="9.79977" y2="9.54416" gradientUnits="userSpaceOnUse">
<stop stop-color="white"/>
<stop offset="1" stop-color="white" stop-opacity="0.2"/>
</linearGradient>
<linearGradient id="paint2_linear_167_35" x1="12.5197" y1="9.3749" x2="7.45603" y2="9.55615" gradientUnits="userSpaceOnUse">
<stop stop-color="white"/>
<stop offset="1" stop-color="white" stop-opacity="0.2"/>
</linearGradient>
<linearGradient id="paint3_linear_167_35" x1="16.5652" y1="6.83555" x2="6.6725" y2="7.23229" gradientUnits="userSpaceOnUse">
<stop stop-color="white"/>
<stop offset="1" stop-color="white" stop-opacity="0.2"/>
</linearGradient>
</defs>
</svg>
