<svg width="11" height="11" viewBox="0 0 11 11" fill="none" xmlns="http://www.w3.org/2000/svg">
<path fill-rule="evenodd" clip-rule="evenodd" d="M0 5.5C0 2.464 2.4585 0 5.4945 0C8.536 0 11 2.464 11 5.5C11 8.536 8.536 11 5.4945 11C2.4585 11 0 8.536 0 5.5ZM7.68351 3.3H9.30602C8.77802 2.3925 7.93651 1.6885 6.92451 1.342C7.25451 1.9525 7.50751 2.6125 7.68351 3.3ZM5.50001 1.12199C5.95651 1.78199 6.31401 2.51349 6.55052 3.29999H4.44951C4.68601 2.51349 5.04351 1.78199 5.50001 1.12199ZM1.1 5.5C1.1 5.8795 1.155 6.248 1.243 6.6H3.102C3.058 6.237 3.025 5.874 3.025 5.5C3.025 5.126 3.058 4.763 3.102 4.4H1.243C1.155 4.752 1.1 5.1205 1.1 5.5ZM1.69401 7.7H3.31651C3.49251 8.3875 3.74551 9.0475 4.07551 9.658C3.06351 9.3115 2.22201 8.613 1.69401 7.7ZM1.69401 3.3H3.31651C3.49251 2.6125 3.74551 1.9525 4.07551 1.342C3.06351 1.6885 2.22201 2.387 1.69401 3.3ZM5.50001 9.878C5.04351 9.218 4.68601 8.4865 4.44951 7.7H6.55052C6.31401 8.4865 5.95651 9.218 5.50001 9.878ZM4.213 6.6H6.787C6.8365 6.237 6.875 5.874 6.875 5.5C6.875 5.126 6.8365 4.7575 6.787 4.4H4.213C4.1635 4.7575 4.125 5.126 4.125 5.5C4.125 5.874 4.1635 6.237 4.213 6.6ZM6.92451 9.658C7.25451 9.0475 7.50751 8.3875 7.68351 7.7H9.30602C8.77802 8.6075 7.93651 9.3115 6.92451 9.658ZM7.97499 5.5C7.97499 5.874 7.94199 6.237 7.89799 6.6H9.75699C9.84499 6.248 9.89999 5.8795 9.89999 5.5C9.89999 5.1205 9.84499 4.752 9.75699 4.4H7.89799C7.94199 4.763 7.97499 5.126 7.97499 5.5Z" fill="#2469E9"/>
</svg>
