<svg width="42" height="42" viewBox="0 0 42 42" fill="none" xmlns="http://www.w3.org/2000/svg">
<rect width="42" height="42" rx="21" fill="#FFF8DF"/>
<path d="M14.4984 18.8517C12.988 18.8517 11.5115 19.2995 10.2557 20.1387C8.99983 20.9778 8.02101 22.1705 7.44301 23.5659C6.865 24.9613 6.71377 26.4968 7.00843 27.9782C7.3031 29.4596 8.03042 30.8203 9.09844 31.8883C10.1665 32.9563 11.5272 33.6837 13.0086 33.9783C14.4899 34.273 16.0254 34.1218 17.4208 33.5438C18.8163 32.9658 20.009 31.9869 20.8481 30.7311C21.6872 29.4752 22.1351 27.9988 22.1351 26.4884C22.1243 24.4663 21.3163 22.5302 19.8864 21.1003C18.4566 19.6705 16.5205 18.8625 14.4984 18.8517ZM14.4984 33.0031C13.2204 33.0031 11.971 32.6241 10.9084 31.914C9.84576 31.204 9.01753 30.1948 8.52845 29.0141C8.03937 27.8333 7.91141 26.5341 8.16074 25.2806C8.41007 24.0271 9.0255 22.8757 9.9292 21.972C10.8329 21.0683 11.9843 20.4529 13.2378 20.2036C14.4912 19.9542 15.7905 20.0822 16.9712 20.5713C18.152 21.0604 19.1612 21.8886 19.8712 22.9512C20.5813 24.0139 20.9602 25.2632 20.9602 26.5412C20.951 28.2522 20.2672 29.8904 19.0574 31.1002C17.8476 32.31 16.2093 32.9938 14.4984 33.0031ZM28.7967 16.2141C28.4465 16.0751 28.0848 15.9669 27.7158 15.891V13.8819C27.9817 13.9071 28.2357 14.0046 28.4501 14.1639C28.5749 14.2801 28.6755 14.4199 28.7461 14.5751C28.8167 14.7304 28.8558 14.8981 28.8613 15.0685L29.6602 15.0098C29.6515 14.6571 29.5458 14.3136 29.3547 14.017C29.1534 13.7159 28.8642 13.4841 28.5265 13.3532C28.2589 13.2496 27.9781 13.1843 27.6923 13.1594V12.2253H27.0167V13.1359C26.723 13.1546 26.4337 13.218 26.1591 13.3239C25.832 13.4544 25.5558 13.6873 25.3719 13.9877C25.1929 14.2511 25.0968 14.5621 25.0958 14.8806C25.1024 15.1546 25.1859 15.4212 25.3367 15.6501C25.5041 15.9038 25.7377 16.1069 26.0122 16.2376C26.3394 16.3898 26.6821 16.506 27.0344 16.5841V18.8575C26.8712 18.8275 26.7117 18.7802 26.5585 18.7165C26.3044 18.6129 26.0845 18.4399 25.9241 18.2172C25.7742 17.9841 25.6835 17.7179 25.6597 17.4418L24.855 17.5123C24.8626 17.9151 24.9826 18.3078 25.2015 18.6461C25.4251 18.9789 25.7418 19.2384 26.1121 19.3921C26.4022 19.5049 26.7067 19.5761 27.0167 19.6036V20.5259H27.7158V19.6271C28.0755 19.6163 28.4301 19.5387 28.7614 19.398C29.0994 19.2469 29.3854 18.9997 29.5838 18.6872C29.7723 18.4056 29.8725 18.0743 29.8717 17.7355C29.8792 17.4184 29.789 17.1067 29.6132 16.8426C29.4029 16.5631 29.1207 16.3458 28.7967 16.2141ZM27.0344 15.7206C26.7254 15.6573 26.4308 15.5378 26.1649 15.3681C26.0817 15.2956 26.0161 15.2049 25.9733 15.1031C25.9306 15.0012 25.9117 14.891 25.9182 14.7807C25.9198 14.6506 25.952 14.5227 26.0122 14.4074C26.0724 14.2921 26.159 14.1925 26.2648 14.1169C26.4913 13.9581 26.7581 13.8664 27.0344 13.8525V15.7206ZM28.9083 18.3641C28.7692 18.5427 28.5816 18.6773 28.3678 18.7518C28.1642 18.8269 27.9502 18.8705 27.7334 18.881V16.7545C27.9361 16.8002 28.1362 16.857 28.3326 16.9249C28.5597 16.9897 28.7635 17.1181 28.92 17.2949C29.0377 17.4412 29.1001 17.6242 29.0963 17.8119C29.09 18.0135 29.0177 18.2074 28.8907 18.3641H28.9083Z" fill="#E9B224"/>
<path d="M27.3634 8.70079C25.853 8.70079 24.3765 9.14868 23.1206 9.98781C21.8648 10.8269 20.886 12.0196 20.308 13.4151C19.73 14.8105 19.5787 16.346 19.8734 17.8274C20.1681 19.3087 20.8954 20.6695 21.9634 21.7375C23.0314 22.8055 24.3921 23.5328 25.8735 23.8275C27.3549 24.1221 28.8904 23.9709 30.2858 23.3929C31.6812 22.8149 32.8739 21.8361 33.7131 20.5802C34.5522 19.3244 35.0001 17.8479 35.0001 16.3375C34.9908 14.315 34.1833 12.3779 32.7531 10.9478C31.3229 9.51762 29.3859 8.71007 27.3634 8.70079ZM27.3634 22.8522C26.0853 22.8522 24.836 22.4732 23.7734 21.7632C22.7107 21.0532 21.8825 20.044 21.3934 18.8632C20.9043 17.6825 20.7764 16.3832 21.0257 15.1297C21.275 13.8763 21.8905 12.7249 22.7942 11.8212C23.6979 10.9175 24.8493 10.302 26.1027 10.0527C27.3562 9.80337 28.6555 9.93134 29.8362 10.4204C31.017 10.9095 32.0262 11.7377 32.7362 12.8004C33.4462 13.863 33.8252 15.1123 33.8252 16.3904C33.8221 18.1054 33.1411 19.7496 31.9306 20.9645C30.7201 22.1794 29.0784 22.8664 27.3634 22.8757V22.8522ZM17.5884 12.2254C17.6913 12.3421 17.8363 12.4133 17.9916 12.4232C18.1469 12.4331 18.2998 12.381 18.4167 12.2783L20.7664 10.234C20.8284 10.1796 20.8781 10.1128 20.9126 10.0379C20.947 9.96302 20.9652 9.88172 20.9662 9.79931C20.9641 9.63339 20.8965 9.47502 20.7782 9.35873L18.728 7.4613C18.6725 7.40326 18.6056 7.35724 18.5316 7.32606C18.4575 7.29489 18.3779 7.27923 18.2976 7.28006C18.2172 7.28089 18.1379 7.29818 18.0646 7.33087C17.9912 7.36356 17.9253 7.41096 17.871 7.47012C17.8166 7.52929 17.775 7.59897 17.7487 7.67486C17.7223 7.75075 17.7118 7.83124 17.7178 7.91134C17.7238 7.99145 17.7462 8.06948 17.7835 8.1406C17.8209 8.21172 17.8724 8.27442 17.935 8.32483L18.8749 9.17662C16.4488 9.17662 14.5337 9.8463 13.1591 11.2092C10.6507 13.6588 10.9327 17.3773 10.9444 17.5124C10.9563 17.6599 11.0234 17.7975 11.1323 17.8977C11.2412 17.9979 11.3839 18.0533 11.5319 18.0528H11.5789C11.6561 18.0469 11.7314 18.0257 11.8004 17.9906C11.8695 17.9555 11.9309 17.907 11.9811 17.848C12.0313 17.7891 12.0694 17.7208 12.0931 17.647C12.1168 17.5733 12.1258 17.4956 12.1193 17.4184C12.1193 17.389 11.8961 14.07 13.9756 12.0081C15.1035 10.8919 16.7249 10.3339 18.7926 10.3339L17.6178 11.3443C17.5534 11.3973 17.501 11.4634 17.4642 11.5382C17.4273 11.613 17.4068 11.6949 17.404 11.7782C17.4012 11.8616 17.4162 11.9446 17.448 12.0217C17.4798 12.0988 17.5277 12.1682 17.5884 12.2254ZM33.0615 24.3619C32.9117 24.3617 32.7673 24.4187 32.6581 24.5213C32.5489 24.624 32.4831 24.7645 32.4741 24.9141C32.4741 24.9494 32.2685 28.2508 29.9305 30.0307C28.6616 30.9941 26.9933 31.3407 24.9255 31.0646L26.2002 30.2128C26.2648 30.1701 26.3203 30.1151 26.3636 30.0509C26.4068 29.9867 26.4369 29.9146 26.4522 29.8387C26.4675 29.7629 26.4676 29.6847 26.4526 29.6088C26.4376 29.5328 26.4077 29.4606 26.3647 29.3963C26.3197 29.3298 26.2615 29.2733 26.1938 29.2302C26.1261 29.1871 26.0503 29.1583 25.971 29.1456C25.8917 29.133 25.8107 29.1367 25.7329 29.1566C25.6552 29.1764 25.5823 29.212 25.5188 29.2612L22.94 30.9824C22.8708 31.0282 22.8122 31.0882 22.7679 31.1583C22.7236 31.2285 22.6947 31.3072 22.6831 31.3894C22.6714 31.4715 22.6773 31.5552 22.7003 31.6349C22.7233 31.7146 22.7629 31.7885 22.8166 31.8518L24.5789 33.9665C24.6341 34.0329 24.7033 34.0862 24.7815 34.1227C24.8597 34.1593 24.9449 34.1782 25.0312 34.178C25.1425 34.1771 25.2511 34.1446 25.3446 34.0844C25.4381 34.0241 25.5126 33.9385 25.5593 33.8376C25.6061 33.7367 25.6232 33.6246 25.6088 33.5143C25.5943 33.404 25.5489 33.3001 25.4777 33.2146L24.6788 32.1984C25.1826 32.2721 25.6911 32.3094 26.2002 32.31C27.7835 32.3675 29.3405 31.894 30.6237 30.9647C33.3905 28.8558 33.6196 25.1373 33.6313 24.9787C33.6353 24.9006 33.6236 24.8225 33.5969 24.749C33.5703 24.6754 33.5292 24.608 33.4762 24.5505C33.4231 24.493 33.3591 24.4468 33.2879 24.4144C33.2167 24.382 33.1397 24.3642 33.0615 24.3619Z" fill="#E9B224"/>
<rect x="14.3926" y="27.9722" width="4.76416" height="4.76416" stroke="#E9B224" stroke-width="1.19104"/>
</svg>
