<svg width="12" height="12" viewBox="0 0 12 12" fill="none" xmlns="http://www.w3.org/2000/svg">
<path d="M8.65155 3.3254C8.63084 3.29283 8.61234 3.25891 8.59616 3.22386C8.58205 3.19701 8.56971 3.16926 8.55924 3.14079C8.55924 3.12463 8.5477 3.10848 8.54078 3.09002C8.53386 3.07155 8.52232 3.03463 8.5154 3.00694C8.50847 2.97925 8.49924 2.93771 8.49232 2.90309C8.48466 2.85956 8.47927 2.81565 8.47616 2.77155V2.63771C8.48405 2.74323 8.46986 2.84923 8.4345 2.94896C8.39913 3.04869 8.34338 3.13996 8.27078 3.21694C8.16554 3.33391 8.02711 3.41598 7.87399 3.45219C7.72087 3.4884 7.56035 3.47702 7.41386 3.41958C7.26738 3.36214 7.1419 3.26137 7.05421 3.13073C6.96651 3.00009 6.92077 2.84581 6.92309 2.68848V2.53848C6.92364 2.62059 6.91591 2.70254 6.90001 2.78309C6.90131 2.80307 6.90131 2.82311 6.90001 2.84309C6.89554 2.86984 6.88859 2.8961 6.87924 2.92155C6.87254 2.94825 6.86406 2.97446 6.85386 3.00002C6.83689 3.05226 6.81607 3.10317 6.79155 3.15232C6.7868 3.15953 6.78292 3.16728 6.78001 3.1754L6.74078 3.24463L6.72001 3.27694C6.70442 3.30245 6.68747 3.3271 6.66924 3.35079C6.63796 3.30286 6.61019 3.25273 6.58616 3.20079C6.57463 3.17771 6.56539 3.15463 6.55616 3.13155C6.5099 3.03034 6.47805 2.92315 6.46155 2.81309C6.45919 2.77159 6.45919 2.72998 6.46155 2.68848V2.53848C6.46155 2.78329 6.3643 3.01808 6.19118 3.19119C6.01807 3.3643 5.78329 3.46155 5.53847 3.46155C5.29366 3.46155 5.05887 3.3643 4.88576 3.19119C4.71265 3.01808 4.61539 2.78329 4.61539 2.53848V2.68848C4.61562 2.84178 4.58665 2.99372 4.53001 3.13617C4.53001 3.15694 4.51386 3.18002 4.50232 3.20079C4.47869 3.25293 4.45091 3.30309 4.41924 3.35079C4.40101 3.3271 4.38406 3.30245 4.36847 3.27694L4.3477 3.24463L4.30847 3.1754L4.29693 3.15232C4.27242 3.10317 4.25159 3.05226 4.23463 3.00002C4.22442 2.97446 4.21594 2.94825 4.20924 2.92155C4.19989 2.8961 4.19294 2.86984 4.18847 2.84309C4.18717 2.82311 4.18717 2.80307 4.18847 2.78309C4.16869 2.70294 4.15709 2.62098 4.15386 2.53848V2.68848C4.15386 2.89351 4.07241 3.09015 3.92743 3.23513C3.78245 3.38011 3.58581 3.46155 3.38078 3.46155C3.32338 3.46124 3.26615 3.45505 3.21001 3.44309L3.15924 3.42925C3.10971 3.41603 3.06231 3.39583 3.01847 3.36925L2.68386 3.70386C2.81033 3.79296 2.95301 3.85646 3.10386 3.89079L3.15693 3.90232C3.19354 3.90921 3.23053 3.91383 3.2677 3.91617C3.30536 3.91848 3.34312 3.91848 3.38078 3.91617C3.42228 3.91853 3.46389 3.91853 3.50539 3.91617C3.54416 3.91322 3.5827 3.90783 3.62078 3.90002C3.78216 3.86844 3.93533 3.80403 4.07078 3.71079C4.08693 3.71079 4.10309 3.68771 4.11924 3.67617C4.13946 3.66207 4.15874 3.64665 4.17693 3.63002C4.21432 3.59996 4.24906 3.56677 4.28078 3.53079C4.30386 3.5054 4.32693 3.48002 4.3477 3.45232C4.37207 3.42229 4.39442 3.39068 4.41462 3.35771L4.42847 3.37386C4.44893 3.403 4.47129 3.43075 4.49539 3.45694C4.5469 3.51614 4.60325 3.57095 4.66386 3.62079C4.69616 3.64617 4.72616 3.66925 4.75847 3.69002C4.98744 3.84478 5.25749 3.92749 5.53386 3.92749C5.81023 3.92749 6.08027 3.84478 6.30924 3.69002C6.34155 3.66925 6.37155 3.64617 6.40386 3.62079C6.46587 3.57261 6.52377 3.51935 6.57693 3.46155C6.60104 3.43536 6.6234 3.40761 6.64386 3.37848L6.6577 3.36232C6.74709 3.50257 6.8639 3.6233 7.00111 3.71729C7.13832 3.81127 7.2931 3.87656 7.45616 3.90925C7.49425 3.91706 7.53279 3.92245 7.57155 3.9254C7.61305 3.92776 7.65466 3.92776 7.69616 3.9254C7.86538 3.92508 8.03274 3.89011 8.18792 3.82263C8.3431 3.75516 8.48282 3.65662 8.59847 3.53309C8.63624 3.49347 8.67095 3.45104 8.70232 3.40617C8.68401 3.38014 8.66707 3.35318 8.65155 3.3254ZM6.69232 8.30771C6.74901 8.3073 6.80387 8.32778 6.84644 8.36523C6.889 8.40269 6.91628 8.4545 6.92309 8.51079L6.95309 8.76925H7.38463V8.30771H6.69232ZM8.7877 5.22002C8.80501 5.17787 8.83441 5.1418 8.8722 5.11634C8.90998 5.09088 8.95445 5.07717 9.00001 5.07694H8.53847C8.23245 5.07694 7.93897 5.19851 7.72258 5.41489C7.50619 5.63128 7.38463 5.92477 7.38463 6.23079V6.92309H7.61539C7.6766 6.92309 7.7353 6.89878 7.77857 6.8555C7.82185 6.81223 7.84616 6.75353 7.84616 6.69232V6.23079C7.84616 6.04717 7.9191 5.87108 8.04894 5.74125C8.17877 5.61142 8.35486 5.53848 8.53847 5.53848H8.90309L8.83616 5.47155C8.80414 5.4391 8.78245 5.39789 8.77383 5.35313C8.7652 5.30836 8.77003 5.26204 8.7877 5.22002ZM10.4931 3.32771C10.458 3.30745 10.4182 3.29679 10.3777 3.29679C10.3372 3.29679 10.2974 3.30745 10.2623 3.32771C10.139 3.40887 9.99459 3.45219 9.84693 3.45232H9.71309C9.51695 3.45216 9.32821 3.37746 9.1851 3.24334C9.04199 3.10923 8.9552 2.92573 8.94232 2.73002V2.59617C8.94027 2.56584 8.93225 2.53621 8.91871 2.50899C8.90518 2.48177 8.8864 2.45749 8.86346 2.43755C8.84051 2.4176 8.81386 2.40239 8.78501 2.39278C8.75617 2.38317 8.72572 2.37936 8.69539 2.38155C8.63703 2.38565 8.58241 2.41176 8.54256 2.4546C8.50272 2.49744 8.48064 2.55382 8.48078 2.61232V2.62617C8.48866 2.73169 8.47447 2.83769 8.43911 2.93742C8.40375 3.03715 8.34799 3.12842 8.27539 3.2054C8.17117 3.32332 8.03344 3.40662 7.88061 3.44417C7.72777 3.48172 7.56712 3.47173 7.42012 3.41554C7.27311 3.35935 7.14676 3.25963 7.05794 3.12971C6.96913 2.99979 6.92208 2.84585 6.92309 2.68848V2.53848C6.92309 2.47727 6.89877 2.41858 6.8555 2.3753C6.81222 2.33202 6.75352 2.30771 6.69232 2.30771C6.63111 2.30771 6.57242 2.33202 6.52914 2.3753C6.48586 2.41858 6.46155 2.47727 6.46155 2.53848C6.46155 2.78329 6.3643 3.01808 6.19118 3.19119C6.01807 3.3643 5.78329 3.46155 5.53847 3.46155C5.29366 3.46155 5.05887 3.3643 4.88576 3.19119C4.71265 3.01808 4.61539 2.78329 4.61539 2.53848C4.61539 2.47727 4.59108 2.41858 4.5478 2.3753C4.50453 2.33202 4.44583 2.30771 4.38462 2.30771C4.32342 2.30771 4.26472 2.33202 4.22145 2.3753C4.17817 2.41858 4.15386 2.47727 4.15386 2.53848V2.68848C4.15386 2.89351 4.07241 3.09015 3.92743 3.23513C3.78245 3.38011 3.58581 3.46155 3.38078 3.46155C3.32338 3.46124 3.26615 3.45505 3.21001 3.44309L3.15924 3.42925C3.10971 3.41603 3.06231 3.39583 3.01847 3.36925C2.98237 3.35241 2.9483 3.3315 2.91693 3.30694L2.88001 3.27694C2.85738 3.25815 2.83581 3.23812 2.81539 3.21694C2.7428 3.13996 2.68704 3.04869 2.65168 2.94896C2.61632 2.84923 2.60212 2.74323 2.61001 2.63771V2.62386C2.61015 2.56536 2.58807 2.50898 2.54823 2.46614C2.50838 2.4233 2.45376 2.39719 2.39539 2.39309C2.36507 2.3909 2.33462 2.39471 2.30578 2.40432C2.27693 2.41393 2.25028 2.42914 2.22733 2.44908C2.20439 2.46903 2.18561 2.49331 2.17207 2.52053C2.15854 2.54775 2.15052 2.57738 2.14847 2.60771V2.74155C2.13493 2.93845 2.0466 3.12272 1.90158 3.25659C1.75655 3.39045 1.56582 3.46379 1.36847 3.46155H1.23462C1.0863 3.46107 0.941273 3.4178 0.816932 3.33694C0.781851 3.31669 0.742056 3.30602 0.701548 3.30602C0.661039 3.30602 0.621245 3.31669 0.586163 3.33694C0.550227 3.3555 0.519798 3.38317 0.497927 3.41719C0.476056 3.45122 0.463511 3.49039 0.461548 3.53079V7.15386C0.462117 7.48543 0.567081 7.80839 0.761548 8.07694L0.805394 8.13694C0.846932 8.18771 0.893086 8.24079 0.941548 8.29155L0.978471 8.32386C1.02163 8.36579 1.06791 8.40436 1.11693 8.43925L1.15847 8.46925C1.21788 8.51086 1.28036 8.54789 1.34539 8.58002L1.37539 8.59617C1.4284 8.62222 1.48315 8.64458 1.53924 8.66309C1.55611 8.67139 1.57394 8.67759 1.59232 8.68155C1.65947 8.70338 1.72811 8.72035 1.7977 8.73232H1.84847C1.92358 8.75041 1.99995 8.76275 2.07693 8.76925H7.61539C7.6766 8.76925 7.7353 8.74493 7.77857 8.70166C7.82185 8.65838 7.84616 8.59968 7.84616 8.53848V6.23079C7.84616 6.04717 7.9191 5.87108 8.04894 5.74125C8.17877 5.61142 8.35486 5.53848 8.53847 5.53848H10.3846C10.415 5.53865 10.4451 5.53283 10.4732 5.52135C10.5013 5.50986 10.5269 5.49294 10.5485 5.47155C10.5692 5.45029 10.5857 5.42521 10.5969 5.39771C10.5983 5.38698 10.5983 5.37613 10.5969 5.3654C10.6067 5.34753 10.613 5.32794 10.6154 5.30771V3.53079C10.6153 3.48904 10.6038 3.4481 10.5823 3.41234C10.5608 3.37658 10.5299 3.34733 10.4931 3.32771ZM8.53847 5.07694C8.23245 5.07694 7.93897 5.19851 7.72258 5.41489C7.50619 5.63128 7.38463 5.92477 7.38463 6.23079V8.30771H2.07693C2.02208 8.30663 1.96735 8.30201 1.91309 8.29386H1.87155C1.8215 8.28614 1.77212 8.27456 1.72386 8.25925H1.69386C1.65073 8.24652 1.60898 8.22952 1.56924 8.20848L1.54386 8.19463L1.43539 8.13232L1.38462 8.07694L1.29001 7.99617L1.27155 7.97771C1.23461 7.94141 1.19993 7.90287 1.1677 7.86232L0.987702 8.00309L1.14924 7.83694C1.00194 7.63971 0.922587 7.40003 0.923086 7.15386V3.88386H0.93924C0.958674 3.89066 0.978794 3.8953 0.99924 3.89771H1.05693H1.12155H1.2277H1.36155C1.53858 3.89834 1.71354 3.85972 1.87386 3.78463C1.9009 3.77341 1.92712 3.76031 1.95232 3.7454C1.99485 3.73013 2.03645 3.71241 2.07693 3.69232L2.17155 3.61617C2.24495 3.55395 2.31009 3.48261 2.36539 3.40386C2.39676 3.44873 2.43147 3.49116 2.46924 3.53079C2.4929 3.55712 2.51834 3.58179 2.54539 3.60463C2.5681 3.62781 2.5937 3.64798 2.62155 3.66463L2.67462 3.70386C2.8011 3.79296 2.94377 3.85646 3.09462 3.89079L3.1477 3.90232C3.18431 3.90921 3.2213 3.91383 3.25847 3.91617C3.29613 3.91848 3.33389 3.91848 3.37155 3.91617C3.41305 3.91853 3.45466 3.91853 3.49616 3.91617C3.53493 3.91322 3.57346 3.90783 3.61155 3.90002C3.77293 3.86844 3.9261 3.80403 4.06155 3.71079C4.0777 3.71079 4.09386 3.68771 4.11001 3.67617C4.13023 3.66207 4.14951 3.64665 4.1677 3.63002C4.20509 3.59996 4.23983 3.56677 4.27155 3.53079C4.29463 3.5054 4.3177 3.48002 4.33847 3.45232C4.36284 3.42229 4.38519 3.39068 4.40539 3.35771L4.41924 3.37386C4.4397 3.403 4.46205 3.43075 4.48616 3.45694C4.53767 3.51614 4.59402 3.57095 4.65462 3.62079C4.68693 3.64617 4.71693 3.66925 4.74924 3.69002C4.97821 3.84478 5.24826 3.92749 5.52463 3.92749C5.80099 3.92749 6.07104 3.84478 6.30001 3.69002C6.33232 3.66925 6.36232 3.64617 6.39463 3.62079C6.45984 3.57302 6.52083 3.51975 6.57693 3.46155C6.60104 3.43536 6.6234 3.40761 6.64386 3.37848L6.6577 3.36232C6.74709 3.50257 6.8639 3.6233 7.00111 3.71729C7.13832 3.81127 7.2931 3.87656 7.45616 3.90925C7.49425 3.91706 7.53279 3.92245 7.57155 3.9254C7.61305 3.92776 7.65466 3.92776 7.69616 3.9254C7.86538 3.92508 8.03274 3.89011 8.18792 3.82263C8.3431 3.75516 8.48282 3.65662 8.59847 3.53309C8.63624 3.49347 8.67095 3.45104 8.70232 3.40617C8.72309 3.43617 8.74616 3.46386 8.76924 3.49155L8.82232 3.54694C8.83222 3.56144 8.84474 3.57397 8.85924 3.58386C8.87044 3.59653 8.8828 3.60812 8.89616 3.61848L9.00001 3.69232C9.0352 3.71807 9.07222 3.74121 9.11078 3.76155L9.20539 3.80771C9.36377 3.88101 9.53626 3.91882 9.71078 3.91848H9.84463H9.95078C9.99415 3.91459 10.0373 3.90843 10.08 3.90002C10.1005 3.89761 10.1206 3.89297 10.14 3.88617H10.1539V5.07694H8.53847ZM8.65155 3.3254C8.63084 3.29283 8.61234 3.25891 8.59616 3.22386C8.58205 3.19701 8.56971 3.16926 8.55924 3.14079C8.55924 3.12463 8.5477 3.10848 8.54078 3.09002C8.53386 3.07155 8.52232 3.03463 8.5154 3.00694C8.50847 2.97925 8.49924 2.93771 8.49232 2.90309C8.48466 2.85956 8.47927 2.81565 8.47616 2.77155V2.63771C8.48405 2.74323 8.46986 2.84923 8.4345 2.94896C8.39913 3.04869 8.34338 3.13996 8.27078 3.21694C8.16554 3.33391 8.02711 3.41598 7.87399 3.45219C7.72087 3.4884 7.56035 3.47702 7.41386 3.41958C7.26738 3.36214 7.1419 3.26137 7.05421 3.13073C6.96651 3.00009 6.92077 2.84581 6.92309 2.68848V2.53848C6.92364 2.62059 6.91591 2.70254 6.90001 2.78309C6.90131 2.80307 6.90131 2.82311 6.90001 2.84309C6.89554 2.86984 6.88859 2.8961 6.87924 2.92155C6.87254 2.94825 6.86406 2.97446 6.85386 3.00002C6.83689 3.05226 6.81607 3.10317 6.79155 3.15232C6.7868 3.15953 6.78292 3.16728 6.78001 3.1754L6.74078 3.24463L6.72001 3.27694C6.70603 3.30346 6.68899 3.32824 6.66924 3.35079C6.63796 3.30286 6.61019 3.25273 6.58616 3.20079C6.57463 3.17771 6.56539 3.15463 6.55616 3.13155C6.5099 3.03034 6.47805 2.92315 6.46155 2.81309C6.45919 2.77159 6.45919 2.72998 6.46155 2.68848V2.53848C6.46155 2.78329 6.3643 3.01808 6.19118 3.19119C6.01807 3.3643 5.78329 3.46155 5.53847 3.46155C5.29366 3.46155 5.05887 3.3643 4.88576 3.19119C4.71265 3.01808 4.61539 2.78329 4.61539 2.53848V2.68848C4.61562 2.84178 4.58665 2.99372 4.53001 3.13617C4.53001 3.15694 4.51386 3.18002 4.50232 3.20079C4.47869 3.25293 4.45091 3.30309 4.41924 3.35079C4.39949 3.32824 4.38245 3.30346 4.36847 3.27694L4.3477 3.24463L4.30847 3.1754L4.29693 3.15232C4.27242 3.10317 4.25159 3.05226 4.23463 3.00002C4.22442 2.97446 4.21594 2.94825 4.20924 2.92155C4.19989 2.8961 4.19294 2.86984 4.18847 2.84309C4.18717 2.82311 4.18717 2.80307 4.18847 2.78309C4.16869 2.70294 4.15709 2.62098 4.15386 2.53848V2.68848C4.15386 2.89351 4.07241 3.09015 3.92743 3.23513C3.78245 3.38011 3.58581 3.46155 3.38078 3.46155C3.32338 3.46124 3.26615 3.45505 3.21001 3.44309L3.15924 3.42925C3.10971 3.41603 3.06231 3.39583 3.01847 3.36925L2.68386 3.70386C2.81033 3.79296 2.95301 3.85646 3.10386 3.89079L3.15693 3.90232C3.19354 3.90921 3.23053 3.91383 3.2677 3.91617C3.30536 3.91848 3.34312 3.91848 3.38078 3.91617C3.42228 3.91853 3.46389 3.91853 3.50539 3.91617C3.54416 3.91322 3.5827 3.90783 3.62078 3.90002C3.78216 3.86844 3.93533 3.80403 4.07078 3.71079C4.08693 3.71079 4.10309 3.68771 4.11924 3.67617C4.13946 3.66207 4.15874 3.64665 4.17693 3.63002C4.21432 3.59996 4.24906 3.56677 4.28078 3.53079C4.30386 3.5054 4.32693 3.48002 4.3477 3.45232C4.37207 3.42229 4.39442 3.39068 4.41462 3.35771L4.42847 3.37386C4.44893 3.403 4.47129 3.43075 4.49539 3.45694C4.5469 3.51614 4.60325 3.57095 4.66386 3.62079C4.69616 3.64617 4.72616 3.66925 4.75847 3.69002C4.98744 3.84478 5.25749 3.92749 5.53386 3.92749C5.81023 3.92749 6.08027 3.84478 6.30924 3.69002C6.34155 3.66925 6.37155 3.64617 6.40386 3.62079C6.46587 3.57261 6.52377 3.51935 6.57693 3.46155C6.60104 3.43536 6.6234 3.40761 6.64386 3.37848L6.6577 3.36232C6.74709 3.50257 6.8639 3.6233 7.00111 3.71729C7.13832 3.81127 7.2931 3.87656 7.45616 3.90925C7.49425 3.91706 7.53279 3.92245 7.57155 3.9254C7.61305 3.92776 7.65466 3.92776 7.69616 3.9254C7.86538 3.92508 8.03274 3.89011 8.18792 3.82263C8.3431 3.75516 8.48282 3.65662 8.59847 3.53309C8.63624 3.49347 8.67095 3.45104 8.70232 3.40617C8.68401 3.38014 8.66707 3.35318 8.65155 3.3254Z" fill="#1A4D7E"/>
<path d="M7.15385 10.3569L7.12616 10.1539L6.95308 8.76925L6.92308 8.51079C6.91628 8.45451 6.88899 8.40269 6.84643 8.36524C6.80387 8.32778 6.749 8.30731 6.69231 8.30771H4.38462C4.32792 8.30731 4.27306 8.32778 4.2305 8.36524C4.18793 8.40269 4.16065 8.45451 4.15385 8.51079L4.12385 8.76925L3.95077 10.1539L3.92539 10.3569C3.92144 10.3892 3.92434 10.4218 3.93388 10.4529C3.94342 10.4839 3.9594 10.5125 3.98077 10.5369C4.0024 10.5616 4.02902 10.5813 4.05886 10.5948C4.0887 10.6083 4.12108 10.6154 4.15385 10.6154H6.92308C6.95573 10.6153 6.98798 10.6082 7.01769 10.5946C7.04833 10.5824 7.07534 10.5625 7.09616 10.5369C7.11211 10.519 7.12533 10.4988 7.13539 10.4769C7.15309 10.4396 7.15951 10.3979 7.15385 10.3569ZM4.41462 10.1539L4.58769 8.76925H6.48923L6.66231 10.1539H4.41462Z" fill="#1A4D7E"/>
<path d="M7.84616 10.3847C7.84616 10.4459 7.82185 10.5046 7.77857 10.5478C7.7353 10.5911 7.6766 10.6154 7.61539 10.6154H3.46155C3.40034 10.6154 3.34165 10.5911 3.29837 10.5478C3.25509 10.5046 3.23078 10.4459 3.23078 10.3847C3.23078 10.3235 3.25509 10.2648 3.29837 10.2215C3.34165 10.1782 3.40034 10.1539 3.46155 10.1539H7.61539C7.6766 10.1539 7.7353 10.1782 7.77857 10.2215C7.82185 10.2648 7.84616 10.3235 7.84616 10.3847ZM7.61539 6.92312H0.692317C0.631113 6.92312 0.572416 6.8988 0.529139 6.85553C0.485861 6.81225 0.461548 6.75355 0.461548 6.69235C0.461548 6.63114 0.485861 6.57245 0.529139 6.52917C0.572416 6.48589 0.631113 6.46158 0.692317 6.46158H7.61539C7.6766 6.46158 7.7353 6.48589 7.77857 6.52917C7.82185 6.57245 7.84616 6.63114 7.84616 6.69235C7.84616 6.75355 7.82185 6.81225 7.77857 6.85553C7.7353 6.8988 7.6766 6.92312 7.61539 6.92312Z" fill="#1A4D7E"/>
<path d="M5.53845 7.84618C5.6659 7.84618 5.76922 7.74286 5.76922 7.61541C5.76922 7.48796 5.6659 7.38464 5.53845 7.38464C5.411 7.38464 5.30768 7.48796 5.30768 7.61541C5.30768 7.74286 5.411 7.84618 5.53845 7.84618Z" fill="#00AEEE"/>
<path d="M1.36846 3.92311H1.23462C0.907363 3.9225 0.593687 3.79222 0.362284 3.56082C0.130881 3.32942 0.000609979 3.01574 0 2.68849V2.63772C0.000541978 2.56025 0.00826734 2.483 0.0230769 2.40695C0.0221794 2.39851 0.0221794 2.39 0.0230769 2.38157L0.503077 0.819259C0.575275 0.580978 0.722611 0.372442 0.923084 0.22479C1.12356 0.0771389 1.36641 -0.00170637 1.61538 2.80127e-05H2.53846C2.5701 0.000129804 2.60139 0.00673785 2.63037 0.0194416C2.65935 0.0321453 2.68541 0.0506734 2.70692 0.0738742C2.72862 0.0969096 2.74535 0.124161 2.75607 0.153936C2.76679 0.183711 2.77127 0.215372 2.76923 0.246951L2.60077 2.76926C2.57972 3.08191 2.4408 3.37492 2.21206 3.58909C1.98332 3.80327 1.68182 3.92264 1.36846 3.92311ZM0.473077 2.49464C0.466069 2.54203 0.462214 2.58983 0.461538 2.63772V2.68849C0.46275 2.89315 0.544587 3.08908 0.689306 3.2338C0.834024 3.37852 1.02996 3.46036 1.23462 3.46157H1.36846C1.5646 3.4614 1.75334 3.3867 1.89645 3.25258C2.03956 3.11847 2.12635 2.93497 2.13923 2.73926L2.29154 0.461566H1.61538C1.46726 0.462114 1.32322 0.510154 1.20442 0.598629C1.08563 0.687103 0.998339 0.811347 0.955385 0.953105L0.473077 2.49464Z" fill="#00AEEE"/>
<path d="M3.38076 3.92311C3.21169 3.92284 3.04447 3.88791 2.88942 3.82048C2.73438 3.75305 2.5948 3.65455 2.47932 3.53106C2.36383 3.40758 2.27489 3.26173 2.21798 3.10252C2.16108 2.94331 2.13741 2.77413 2.14845 2.60542L2.30768 0.214647C2.31178 0.156285 2.33789 0.101657 2.38073 0.061814C2.42357 0.0219711 2.47995 -0.000112289 2.53845 3.12126e-05H4.38461C4.44581 3.12126e-05 4.50451 0.0243444 4.54779 0.067622C4.59106 0.1109 4.61538 0.169597 4.61538 0.2308V2.68849C4.61477 3.01575 4.4845 3.32942 4.25309 3.56082C4.02169 3.79223 3.70801 3.9225 3.38076 3.92311ZM2.75307 0.46157L2.60999 2.63772C2.60211 2.74324 2.6163 2.84925 2.65166 2.94898C2.68702 3.04871 2.74278 3.13997 2.81538 3.21695C2.92129 3.33053 3.05896 3.40958 3.21045 3.44379C3.36194 3.47801 3.52022 3.4658 3.66467 3.40877C3.80912 3.35174 3.93304 3.25252 4.02029 3.12404C4.10755 2.99557 4.15408 2.84379 4.15384 2.68849V0.46157H2.75307Z" fill="#00AEEE"/>
<path d="M6.6923 3.05176e-05H4.38461C4.3234 3.05176e-05 4.2647 0.0243437 4.22143 0.0676213C4.17815 0.110899 4.15384 0.169596 4.15384 0.2308V2.53849C4.15328 2.6206 4.16101 2.70255 4.17691 2.78311C4.17561 2.80309 4.17561 2.82313 4.17691 2.84311C4.18138 2.86985 4.18834 2.89612 4.19768 2.92157C4.20438 2.94826 4.21286 2.97447 4.22307 3.00003C4.24003 3.05227 4.26086 3.10318 4.28537 3.15234L4.29691 3.17542L4.33614 3.24465L4.35691 3.27695C4.3725 3.30246 4.38945 3.32711 4.40768 3.3508L4.42153 3.36695C4.44199 3.39609 4.46434 3.42384 4.48845 3.45003C4.53996 3.50923 4.59631 3.56404 4.65691 3.61388C4.68922 3.63926 4.71922 3.66234 4.75153 3.68311C4.9805 3.83787 5.25054 3.92058 5.52691 3.92058C5.80328 3.92058 6.07333 3.83787 6.3023 3.68311C6.33461 3.66234 6.36461 3.63926 6.39691 3.61388C6.46105 3.56821 6.52126 3.51727 6.57691 3.46157C6.60102 3.43538 6.62338 3.40762 6.64384 3.37849L6.65768 3.36234C6.67591 3.33865 6.69286 3.314 6.70845 3.28849L6.72922 3.25618L6.76845 3.18695C6.77137 3.17883 6.77524 3.17108 6.77999 3.16388C6.80451 3.11472 6.82533 3.06381 6.8423 3.01157C6.8525 2.98601 6.86098 2.9598 6.86768 2.93311C6.87703 2.90766 6.88398 2.88139 6.88845 2.85465C6.88975 2.83467 6.88975 2.81462 6.88845 2.79465C6.90902 2.71073 6.92063 2.62486 6.92307 2.53849V0.2308C6.92307 0.169596 6.89875 0.110899 6.85548 0.0676213C6.8122 0.0243437 6.7535 3.05176e-05 6.6923 3.05176e-05ZM5.53845 3.46157C5.29364 3.46157 5.05885 3.36432 4.88574 3.19121C4.71263 3.0181 4.61537 2.78331 4.61537 2.53849V0.461569H6.46153V2.53849C6.46153 2.78331 6.36428 3.0181 6.19117 3.19121C6.01805 3.36432 5.78327 3.46157 5.53845 3.46157Z" fill="#00AEEE"/>
<path d="M8.7854 0.46157L8.76924 0.214647C8.76515 0.156285 8.73904 0.101657 8.6962 0.061814C8.65335 0.0219711 8.59698 -0.000112289 8.53847 3.12126e-05H6.69232C6.63112 3.12126e-05 6.57242 0.0243444 6.52914 0.067622C6.48586 0.1109 6.46155 0.169597 6.46155 0.2308V2.68849C6.45919 2.73 6.45919 2.7716 6.46155 2.81311C6.47215 2.92226 6.49778 3.02943 6.5377 3.13157C6.5377 3.15465 6.55617 3.17772 6.5677 3.2008C6.59173 3.25274 6.6195 3.30287 6.65078 3.3508C6.74017 3.49104 6.85698 3.61178 6.99419 3.70576C7.13139 3.79975 7.28618 3.86504 7.44924 3.89772C7.48733 3.90553 7.52586 3.91093 7.56463 3.91388C7.60613 3.91624 7.64774 3.91624 7.68924 3.91388C7.85846 3.91356 8.02582 3.87858 8.181 3.81111C8.33618 3.74364 8.4759 3.6451 8.59155 3.52157C8.62932 3.48194 8.66403 3.43951 8.6954 3.39465C8.8616 3.16283 8.94307 2.88093 8.92617 2.59619L8.7854 0.46157ZM8.26155 3.21695C8.15563 3.33053 8.01796 3.40958 7.86648 3.44379C7.71499 3.47801 7.55671 3.4658 7.41226 3.40877C7.26781 3.35174 7.14389 3.25252 7.05663 3.12404C6.96938 2.99557 6.92284 2.84379 6.92309 2.68849V0.46157H8.32386L8.44617 2.33311L8.46693 2.62388V2.63772C8.47482 2.74324 8.46063 2.84925 8.42527 2.94898C8.38991 3.04871 8.33415 3.13997 8.26155 3.21695Z" fill="#00AEEE"/>
<path d="M11.0539 2.40003C11.0548 2.39159 11.0548 2.38308 11.0539 2.37464L10.5739 0.819259C10.5017 0.580978 10.3543 0.372442 10.1538 0.22479C9.95337 0.0771389 9.71052 -0.00170637 9.46154 2.80127e-05H8.53847C8.50683 0.000129804 8.47554 0.00673785 8.44656 0.0194416C8.41758 0.0321453 8.39152 0.0506734 8.37001 0.0738742C8.34831 0.0969096 8.33158 0.124161 8.32086 0.153936C8.31014 0.183711 8.30566 0.215372 8.3077 0.246951L8.32155 0.461567L8.44616 2.33311L8.46693 2.62387V2.63772V2.77157C8.47004 2.81566 8.47543 2.85957 8.48308 2.90311C8.48857 2.93817 8.49628 2.97286 8.50616 3.00695C8.50616 3.03464 8.52231 3.06234 8.53155 3.09003C8.54078 3.11772 8.54308 3.12464 8.55001 3.1408C8.56048 3.16927 8.57281 3.19702 8.58693 3.22387C8.60311 3.25892 8.62161 3.29284 8.64231 3.32541C8.6579 3.35241 8.67485 3.37859 8.69308 3.40387C8.71385 3.43387 8.73693 3.46157 8.76001 3.48926L8.81308 3.54464C8.82298 3.55915 8.8355 3.57167 8.85001 3.58157C8.8612 3.59424 8.87356 3.60583 8.88693 3.61618L9.00001 3.69234C9.03519 3.71808 9.07222 3.74122 9.11078 3.76157L9.20539 3.80772C9.36377 3.88102 9.53626 3.91883 9.71078 3.91849H9.84462H9.95078C9.99415 3.9146 10.0373 3.90844 10.08 3.90003C10.1005 3.89762 10.1206 3.89298 10.14 3.88618H10.1539C10.28 3.85228 10.4 3.79853 10.5092 3.72695C10.5459 3.70344 10.5814 3.67802 10.6154 3.6508C10.7595 3.53572 10.8758 3.38966 10.9557 3.22346C11.0356 3.05726 11.077 2.8752 11.0769 2.6908V2.64003C11.077 2.55947 11.0692 2.4791 11.0539 2.40003ZM10.6154 2.68849C10.6152 2.81796 10.5823 2.94529 10.5198 3.05865C10.4573 3.17202 10.3671 3.26775 10.2577 3.33695C10.1344 3.41811 9.98997 3.46143 9.84231 3.46157H9.70847C9.51233 3.4614 9.32359 3.3867 9.18048 3.25258C9.03737 3.11847 8.95058 2.93497 8.9377 2.73926V2.60541L8.78539 0.461567H9.4777C9.62582 0.462114 9.76986 0.510154 9.88866 0.598629C10.0075 0.687103 10.0947 0.811347 10.1377 0.953105L10.6154 2.49464C10.6185 2.54228 10.6185 2.59008 10.6154 2.63772V2.68849Z" fill="#00AEEE"/>
<path d="M11.8846 5.72773C11.7901 5.53268 11.6426 5.36818 11.4589 5.25309C11.2753 5.13799 11.0629 5.07695 10.8462 5.07697H8.53846C8.23244 5.07697 7.93895 5.19853 7.72257 5.41492C7.50618 5.63131 7.38461 5.92479 7.38461 6.23081V10.8462C7.38461 11.1522 7.50618 11.4457 7.72257 11.6621C7.93895 11.8785 8.23244 12 8.53846 12H10.8462C11.1522 12 11.4457 11.8785 11.662 11.6621C11.8784 11.4457 12 11.1522 12 10.8462V6.23081C12 6.05656 11.9606 5.88456 11.8846 5.72773ZM11.5385 10.8462C11.5385 11.0298 11.4655 11.2059 11.3357 11.3357C11.2059 11.4656 11.0298 11.5385 10.8462 11.5385H8.53846C8.35485 11.5385 8.17876 11.4656 8.04892 11.3357C7.91909 11.2059 7.84615 11.0298 7.84615 10.8462V6.23081C7.84615 6.0472 7.91909 5.87111 8.04892 5.74128C8.17876 5.61144 8.35485 5.5385 8.53846 5.5385H10.8462C11.0051 5.53825 11.1593 5.5927 11.2829 5.69272C11.4064 5.79273 11.4918 5.93221 11.5246 6.08773C11.5339 6.13486 11.5385 6.18278 11.5385 6.23081V10.8462ZM8.78769 5.22004C8.805 5.1779 8.8344 5.14182 8.87218 5.11636C8.90996 5.0909 8.95444 5.07719 9 5.07697H8.53846C8.23244 5.07697 7.93895 5.19853 7.72257 5.41492C7.50618 5.63131 7.38461 5.92479 7.38461 6.23081V10.1539H7.45846L7.84615 9.7662V6.23081C7.84615 6.0472 7.91909 5.87111 8.04892 5.74128C8.17876 5.61144 8.35485 5.5385 8.53846 5.5385H8.90307L8.83615 5.47158C8.80413 5.43913 8.78244 5.39792 8.77381 5.35315C8.76519 5.30839 8.77002 5.26207 8.78769 5.22004Z" fill="#1A4D7E"/>
<path d="M9.69232 11.077C9.81977 11.077 9.92309 10.9736 9.92309 10.8462C9.92309 10.7187 9.81977 10.6154 9.69232 10.6154C9.56487 10.6154 9.46155 10.7187 9.46155 10.8462C9.46155 10.9736 9.56487 11.077 9.69232 11.077Z" fill="#00AEEE"/>
<path d="M10.1539 5.76927H9.23077C9.2004 5.76945 9.1703 5.76363 9.14218 5.75214C9.11406 5.74066 9.08849 5.72374 9.06693 5.70235L8.83616 5.47158C8.80414 5.43913 8.78245 5.39792 8.77382 5.35315C8.7652 5.30839 8.77002 5.26207 8.7877 5.22004C8.80501 5.1779 8.83441 5.14182 8.87219 5.11636C8.90997 5.0909 8.95444 5.07719 9 5.07697H10.3846C10.4302 5.07719 10.4747 5.0909 10.5124 5.11636C10.5502 5.14182 10.5796 5.1779 10.5969 5.22004C10.6146 5.26207 10.6194 5.30839 10.6108 5.35315C10.6022 5.39792 10.5805 5.43913 10.5485 5.47158L10.3177 5.70235C10.2961 5.72374 10.2706 5.74066 10.2424 5.75214C10.2143 5.76363 10.1842 5.76945 10.1539 5.76927Z" fill="#1A4D7E"/>
<path d="M10.1538 9.92311H9.23076C9.04715 9.92311 8.87106 9.85017 8.74122 9.72034C8.61139 9.59051 8.53845 9.41442 8.53845 9.23081V8.07696C8.53845 8.01576 8.56277 7.95706 8.60604 7.91378C8.64932 7.8705 8.70802 7.84619 8.76922 7.84619H10.6154C10.6766 7.84619 10.7353 7.8705 10.7786 7.91378C10.8218 7.95706 10.8461 8.01576 10.8461 8.07696V9.23081C10.8461 9.41442 10.7732 9.59051 10.6434 9.72034C10.5135 9.85017 10.3374 9.92311 10.1538 9.92311ZM8.99999 8.30773V9.23081C8.99999 9.29201 9.0243 9.35071 9.06758 9.39399C9.11086 9.43726 9.16956 9.46158 9.23076 9.46158H10.1538C10.215 9.46158 10.2737 9.43726 10.317 9.39399C10.3603 9.35071 10.3846 9.29201 10.3846 9.23081V8.30773H8.99999Z" fill="#00AEEE"/>
<path d="M10.1538 8.27771H9.23077C9.17752 8.27771 9.12645 8.25656 9.0888 8.21891C9.05115 8.18126 9.03 8.13019 9.03 8.07695V7.84618C9.03 7.67052 9.09978 7.50206 9.22398 7.37785C9.34819 7.25365 9.51665 7.18387 9.69231 7.18387C9.86796 7.18387 10.0364 7.25365 10.1606 7.37785C10.2848 7.50206 10.3546 7.67052 10.3546 7.84618V8.07695C10.3546 8.13019 10.3335 8.18126 10.2958 8.21891C10.2582 8.25656 10.2071 8.27771 10.1538 8.27771ZM9.43154 7.87618H9.95308V7.84618C9.95308 7.77702 9.9256 7.71069 9.8767 7.66178C9.82779 7.61288 9.76147 7.58541 9.69231 7.58541C9.62315 7.58541 9.55682 7.61288 9.50791 7.66178C9.45901 7.71069 9.43154 7.77702 9.43154 7.84618V7.87618Z" fill="#00AEEE"/>
</svg>
