<svg width="32" height="32" viewBox="0 0 32 32" fill="none" xmlns="http://www.w3.org/2000/svg">
<path d="M10.8031 16.5303C11.096 16.8232 11.5709 16.8232 11.8637 16.5303C12.1566 16.2374 12.1566 15.7625 11.8637 15.4696L10.8031 16.5303ZM7.19708 10.803C6.90418 10.5101 6.42931 10.5101 6.13642 10.803C5.84352 11.0959 5.84352 11.5707 6.13642 11.8636L7.19708 10.803ZM6.66675 10.5833C6.25253 10.5833 5.91675 10.9191 5.91675 11.3333C5.91675 11.7475 6.25253 12.0833 6.66675 12.0833V10.5833ZM25.3334 12.0833C25.7476 12.0833 26.0834 11.7475 26.0834 11.3333C26.0834 10.9191 25.7476 10.5833 25.3334 10.5833V12.0833ZM6.13642 10.803C5.84352 11.0959 5.84352 11.5707 6.13642 11.8636C6.42931 12.1565 6.90418 12.1565 7.19708 11.8636L6.13642 10.803ZM11.8637 7.19696C12.1566 6.90406 12.1566 6.42919 11.8637 6.1363C11.5709 5.8434 11.096 5.8434 10.8031 6.1363L11.8637 7.19696ZM21.1971 15.4696C20.9042 15.1767 20.4293 15.1767 20.1364 15.4696C19.8435 15.7625 19.8435 16.2374 20.1364 16.5303L21.1971 15.4696ZM24.8031 21.197C25.096 21.4899 25.5709 21.4899 25.8637 21.197C26.1566 20.9041 26.1566 20.4292 25.8637 20.1363L24.8031 21.197ZM25.3334 21.4166C25.7476 21.4166 26.0834 21.0808 26.0834 20.6666C26.0834 20.2524 25.7476 19.9166 25.3334 19.9166V21.4166ZM6.66675 19.9166C6.25253 19.9166 5.91675 20.2524 5.91675 20.6666C5.91675 21.0808 6.25253 21.4166 6.66675 21.4166V19.9166ZM25.8637 21.197C26.1566 20.9041 26.1566 20.4292 25.8637 20.1363C25.5709 19.8434 25.096 19.8434 24.8031 20.1363L25.8637 21.197ZM20.1364 24.803C19.8435 25.0959 19.8435 25.5707 20.1364 25.8636C20.4293 26.1565 20.9042 26.1565 21.1971 25.8636L20.1364 24.803ZM11.8637 15.4696L7.19708 10.803L6.13642 11.8636L10.8031 16.5303L11.8637 15.4696ZM6.66675 12.0833H25.3334V10.5833H6.66675V12.0833ZM7.19708 11.8636L11.8637 7.19696L10.8031 6.1363L6.13642 10.803L7.19708 11.8636ZM20.1364 16.5303L24.8031 21.197L25.8637 20.1363L21.1971 15.4696L20.1364 16.5303ZM25.3334 19.9166H6.66675V21.4166H25.3334V19.9166ZM24.8031 20.1363L20.1364 24.803L21.1971 25.8636L25.8637 21.197L24.8031 20.1363Z" fill="white" fill-opacity="0.42"/>
</svg>
