<svg width="15" height="12" viewBox="0 0 15 12" fill="none" xmlns="http://www.w3.org/2000/svg">
<path fill-rule="evenodd" clip-rule="evenodd" d="M13.5 0H1.5C0.6675 0 0.0075 0.6675 0.0075 1.5L0 10.5C0 11.3325 0.6675 12 1.5 12H13.5C14.3325 12 15 11.3325 15 10.5V1.5C15 0.6675 14.3325 0 13.5 0ZM6.75 9.75H8.25V9H9C9.4125 9 9.75 8.6625 9.75 8.25V6C9.75 5.5875 9.4125 5.25 9 5.25H6.75V4.5H9.75V3H8.25V2.25H6.75V3H6C5.5875 3 5.25 3.3375 5.25 3.75V6C5.25 6.4125 5.5875 6.75 6 6.75H8.25V7.5H5.25V9H6.75V9.75ZM1.5 10.5H13.5V1.5H1.5V10.5Z" fill="#2469E9"/>
</svg>
