<svg width="40" height="40" viewBox="0 0 40 40" fill="none" xmlns="http://www.w3.org/2000/svg">
<rect width="40" height="40" rx="20" fill="white"/>
<rect x="7.75" y="13.25" width="24.5" height="13.5" rx="1.25" stroke="#65B45E" stroke-width="1.5"/>
<circle cx="20" cy="20" r="4" fill="#E4FFE7"/>
<path d="M20.3626 22V17H20.6756V22H20.3626ZM21.2653 18.5996C21.2475 18.429 21.1724 18.2962 21.0401 18.2012C20.909 18.1061 20.7385 18.0586 20.5286 18.0586C20.381 18.0586 20.2545 18.0814 20.1489 18.127C20.0433 18.1725 19.9625 18.2344 19.9065 18.3125C19.8505 18.3906 19.8219 18.4798 19.8206 18.5801C19.8206 18.6634 19.8391 18.7357 19.876 18.7969C19.9141 18.8581 19.9656 18.9102 20.0305 18.9531C20.0954 18.9948 20.1673 19.0299 20.2462 19.0586C20.3251 19.0872 20.4046 19.1113 20.4847 19.1309L20.8511 19.2246C20.9987 19.2598 21.1406 19.3073 21.2767 19.3672C21.4141 19.4271 21.5369 19.5026 21.645 19.5938C21.7545 19.6849 21.841 19.7949 21.9046 19.9238C21.9682 20.0527 22 20.2038 22 20.377C22 20.6113 21.9415 20.8177 21.8244 20.9961C21.7074 21.1732 21.5382 21.3118 21.3168 21.4121C21.0967 21.5111 20.8302 21.5605 20.5172 21.5605C20.2131 21.5605 19.9491 21.5124 19.7252 21.416C19.5025 21.3197 19.3282 21.179 19.2023 20.9941C19.0776 20.8092 19.0102 20.584 19 20.3184H19.6966C19.7067 20.4577 19.7487 20.5736 19.8225 20.666C19.8963 20.7585 19.9924 20.8275 20.1107 20.873C20.2303 20.9186 20.3639 20.9414 20.5115 20.9414C20.6654 20.9414 20.8003 20.918 20.916 20.8711C21.0331 20.8229 21.1247 20.7565 21.1908 20.6719C21.257 20.5859 21.2907 20.4857 21.292 20.3711C21.2907 20.2669 21.2608 20.181 21.2023 20.1133C21.1438 20.0443 21.0617 19.987 20.9561 19.9414C20.8518 19.8945 20.7296 19.8529 20.5897 19.8164L20.145 19.6992C19.8232 19.6146 19.5687 19.4863 19.3817 19.3145C19.1959 19.1413 19.1031 18.9115 19.1031 18.625C19.1031 18.3893 19.1654 18.1829 19.2901 18.0059C19.416 17.8288 19.5872 17.6914 19.8034 17.5938C20.0197 17.4948 20.2646 17.4453 20.5382 17.4453C20.8155 17.4453 21.0585 17.4948 21.2672 17.5938C21.4771 17.6914 21.6419 17.8275 21.7615 18.002C21.881 18.1751 21.9427 18.3743 21.9466 18.5996H21.2653Z" fill="#65B45E"/>
</svg>
