<svg width="19" height="19" viewBox="0 0 19 19" fill="none" xmlns="http://www.w3.org/2000/svg">
<path d="M18.0974 9.44296C18.0974 8.68342 18.0358 8.12916 17.9025 7.55438H9.2334V10.9825H14.322C14.2194 11.8345 13.6654 13.1175 12.4343 13.9796L12.417 14.0944L15.158 16.2188L15.3479 16.2378C17.092 14.6263 18.0974 12.2553 18.0974 9.44296Z" fill="#4285F4"/>
<path d="M9.23336 18.4754C11.7263 18.4754 13.8192 17.6542 15.3479 16.2378L12.4342 13.9796C11.6545 14.5236 10.6081 14.9034 9.23336 14.9034C6.79167 14.9034 4.7193 13.292 3.98056 11.0647L3.87228 11.0739L1.02214 13.2807L0.984863 13.3843C2.50322 16.402 5.62206 18.4754 9.23336 18.4754Z" fill="#34A853"/>
<path d="M3.98057 11.0647C3.78565 10.4899 3.67284 9.87403 3.67284 9.23768C3.67284 8.60127 3.78565 7.98545 3.97031 7.41067L3.96515 7.28825L1.07929 5.04602L0.984869 5.09095C0.359079 6.34319 0 7.74939 0 9.23768C0 10.726 0.359079 12.1321 0.984869 13.3843L3.98057 11.0647Z" fill="#FBBC05"/>
<path d="M9.23336 3.57188C10.9672 3.57188 12.1367 4.32115 12.8036 4.9473L15.4094 2.4018C13.809 0.913508 11.7263 0 9.23336 0C5.62206 0 2.50322 2.07333 0.984863 5.09095L3.97031 7.41066C4.7193 5.18336 6.79167 3.57188 9.23336 3.57188Z" fill="#EB4335"/>
</svg>
