<svg width="32" height="32" viewBox="0 0 32 32" fill="none" xmlns="http://www.w3.org/2000/svg">
<path fill-rule="evenodd" clip-rule="evenodd" d="M13.3333 17.3339C13.3333 15.8611 14.5272 14.6672 15.9999 14.6672C17.4727 14.6672 18.6666 15.8611 18.6666 17.3339C18.6666 18.8067 17.4727 20.0006 15.9999 20.0006C15.2927 20.0006 14.6144 19.7196 14.1143 19.2195C13.6142 18.7194 13.3333 18.0411 13.3333 17.3339Z" stroke="white" stroke-width="2" stroke-linecap="round" stroke-linejoin="round"/>
<path fill-rule="evenodd" clip-rule="evenodd" d="M9.50263 9.4312L13.1453 7.40453C14.9217 6.42066 17.0795 6.42066 18.856 7.40453L22.4986 9.4312C24.237 10.3815 25.3225 12.2007 25.3333 14.1819V19.7579C25.2865 22.8836 22.7151 25.3799 19.5893 25.3339H12.4106C9.28485 25.3799 6.71341 22.8836 6.66663 19.7579V14.1819C6.67768 12.2004 7.7637 10.3812 9.50263 9.4312Z" stroke="white" stroke-width="2" stroke-linecap="round" stroke-linejoin="round"/>
</svg>
