<svg width="28" height="28" viewBox="0 0 28 28" fill="none" xmlns="http://www.w3.org/2000/svg">
<rect width="28" height="28" rx="14" fill="#EBF3FF"/>
<path fill-rule="evenodd" clip-rule="evenodd" d="M10.8593 4.66676H17.3004C17.3673 4.66676 17.4338 4.67103 17.4999 4.67959C20.1218 4.86294 22.1577 7.03881 22.1666 9.66709V17.1676C22.1569 19.935 19.908 22.1719 17.1406 22.1668H10.8593C8.09135 22.1719 5.84226 19.9343 5.83325 17.1664V9.66709C5.84226 6.8992 8.09135 4.66159 10.8593 4.66676Z" stroke="#2469E9" stroke-width="1.5" stroke-linecap="round" stroke-linejoin="round"/>
<path d="M17.5 19.4169C17.9142 19.4169 18.25 19.0811 18.25 18.6669C18.25 18.2526 17.9142 17.9169 17.5 17.9169V19.4169ZM10.5 17.9169C10.0858 17.9169 9.75 18.2526 9.75 18.6669C9.75 19.0811 10.0858 19.4169 10.5 19.4169V17.9169ZM22.1667 10.4172C22.5809 10.4172 22.9167 10.0814 22.9167 9.66719C22.9167 9.25297 22.5809 8.91719 22.1667 8.91719V10.4172ZM17.5 9.66719H16.75C16.75 10.0814 17.0858 10.4172 17.5 10.4172V9.66719ZM18.25 4.67969C18.25 4.26547 17.9142 3.92969 17.5 3.92969C17.0858 3.92969 16.75 4.26547 16.75 4.67969H18.25ZM16.8637 13.3639C17.1566 13.071 17.1566 12.5961 16.8637 12.3032C16.5708 12.0103 16.0959 12.0103 15.803 12.3032L16.8637 13.3639ZM13.4697 14.6365C13.1768 14.9294 13.1768 15.4043 13.4697 15.6972C13.7626 15.9901 14.2374 15.9901 14.5303 15.6972L13.4697 14.6365ZM13.4697 15.6972C13.7626 15.9901 14.2374 15.9901 14.5303 15.6972C14.8232 15.4043 14.8232 14.9294 14.5303 14.6365L13.4697 15.6972ZM12.197 12.3032C11.9041 12.0103 11.4292 12.0103 11.1363 12.3032C10.8434 12.5961 10.8434 13.071 11.1363 13.3639L12.197 12.3032ZM13.25 15.1669C13.25 15.5811 13.5858 15.9169 14 15.9169C14.4142 15.9169 14.75 15.5811 14.75 15.1669H13.25ZM14.75 8.16685C14.75 7.75264 14.4142 7.41685 14 7.41685C13.5858 7.41685 13.25 7.75264 13.25 8.16685H14.75ZM17.5 17.9169H10.5V19.4169H17.5V17.9169ZM22.1667 8.91719H17.5V10.4172H22.1667V8.91719ZM18.25 9.66719V4.67969H16.75V9.66719H18.25ZM15.803 12.3032L13.4697 14.6365L14.5303 15.6972L16.8637 13.3639L15.803 12.3032ZM14.5303 14.6365L12.197 12.3032L11.1363 13.3639L13.4697 15.6972L14.5303 14.6365ZM14.75 15.1669V8.16685H13.25V15.1669H14.75Z" fill="#2469E9"/>
</svg>
