<svg width="28" height="28" viewBox="0 0 28 28" fill="none" xmlns="http://www.w3.org/2000/svg">
<rect width="28" height="28" rx="14" fill="#FFEBEB"/>
<path d="M21.456 11.5317C21.1624 11.2395 21.1612 10.7646 21.4533 10.471C21.7455 10.1774 22.2204 10.1762 22.514 10.4683L21.456 11.5317ZM25.529 13.4683C25.8226 13.7605 25.8238 14.2354 25.5317 14.529C25.2395 14.8226 24.7646 14.8238 24.471 14.5317L25.529 13.4683ZM24.471 13.4683C24.7646 13.1762 25.2395 13.1774 25.5317 13.471C25.8238 13.7646 25.8226 14.2395 25.529 14.5317L24.471 13.4683ZM22.514 17.5317C22.2204 17.8238 21.7455 17.8226 21.4533 17.529C21.1612 17.2354 21.1624 16.7605 21.456 16.4683L22.514 17.5317ZM25 13.25C25.4142 13.25 25.75 13.5858 25.75 14C25.75 14.4142 25.4142 14.75 25 14.75V13.25ZM11 14.75C10.5858 14.75 10.25 14.4142 10.25 14C10.25 13.5858 10.5858 13.25 11 13.25V14.75ZM22.514 10.4683L25.529 13.4683L24.471 14.5317L21.456 11.5317L22.514 10.4683ZM25.529 14.5317L22.514 17.5317L21.456 16.4683L24.471 13.4683L25.529 14.5317ZM25 14.75L11 14.75V13.25L25 13.25V14.75Z" fill="#FF0000"/>
<path d="M19 17C19 19.2091 17.2091 21 15 21H11C8.79086 21 7 19.2091 7 17V11C7 8.79086 8.79086 7 11 7H15C17.2091 7 19 8.79086 19 11" stroke="#FF0000" stroke-width="1.5" stroke-linecap="round" stroke-linejoin="round"/>
</svg>
