<svg width="12" height="12" viewBox="0 0 12 12" fill="none" xmlns="http://www.w3.org/2000/svg">
<path d="M6.59999 10.8C6.54694 10.8 6.49607 10.7789 6.45857 10.7414C6.42106 10.7039 6.39999 10.653 6.39999 10.6V10.2C6.39999 10.147 6.42106 10.0961 6.45857 10.0586C6.49607 10.0211 6.54694 10 6.59999 10C6.65303 10 6.7039 10.0211 6.74141 10.0586C6.77892 10.0961 6.79999 10.147 6.79999 10.2V10.6C6.79999 10.653 6.77892 10.7039 6.74141 10.7414C6.7039 10.7789 6.65303 10.8 6.59999 10.8Z" fill="#2469E9"/>
<path d="M11.8 12H0.2C0.146956 12 0.0960855 11.9789 0.0585785 11.9414C0.0210714 11.9039 0 11.853 0 11.8C0 11.747 0.0210714 11.6961 0.0585785 11.6586C0.0960855 11.6211 0.146956 11.6 0.2 11.6H0.8V3.5152C0.621872 3.43746 0.470259 3.3095 0.3637 3.14696C0.257141 2.98442 0.200255 2.79435 0.2 2.6V2.2C0.2 2.1972 0.2016 2.1948 0.2016 2.1918C0.202149 2.16815 0.206889 2.14479 0.2156 2.1228C0.2156 2.1214 0.2172 2.1204 0.2178 2.119C0.224549 2.10328 0.233288 2.08849 0.2438 2.075L1.8438 0.075C1.86255 0.0515863 1.88632 0.0326887 1.91336 0.0197062C1.94039 0.00672371 1.97001 -1.12393e-05 2 1.40792e-08H10C10.03 -1.12393e-05 10.0596 0.00672371 10.0866 0.0197062C10.1137 0.0326887 10.1375 0.0515863 10.1562 0.075L11.7562 2.075C11.7666 2.08855 11.7754 2.10332 11.7822 2.119C11.7822 2.1204 11.7838 2.1214 11.7844 2.1228C11.7931 2.14479 11.7979 2.16815 11.7984 2.1918C11.7984 2.1948 11.8 2.1972 11.8 2.2V2.6C11.7997 2.79435 11.7429 2.98442 11.6363 3.14696C11.5297 3.3095 11.3781 3.43746 11.2 3.5152V11.6H11.8C11.853 11.6 11.9039 11.6211 11.9414 11.6586C11.9789 11.6961 12 11.747 12 11.8C12 11.853 11.9789 11.9039 11.9414 11.9414C11.9039 11.9789 11.853 12 11.8 12ZM5 11.6H7V8.8H5V11.6ZM1.2 10H4C4.05304 10 4.10391 10.0211 4.14142 10.0586C4.17893 10.0961 4.2 10.147 4.2 10.2C4.2 10.253 4.17893 10.3039 4.14142 10.3414C4.10391 10.3789 4.05304 10.4 4 10.4H1.2V11.6H4.6V8.6C4.6 8.54696 4.62107 8.49609 4.65858 8.45858C4.69609 8.42107 4.74696 8.4 4.8 8.4H7.2C7.25304 8.4 7.30391 8.42107 7.34142 8.45858C7.37893 8.49609 7.4 8.54696 7.4 8.6V11.6H10.8V10.4H8C7.94696 10.4 7.89609 10.3789 7.85858 10.3414C7.82107 10.3039 7.8 10.253 7.8 10.2C7.8 10.147 7.82107 10.0961 7.85858 10.0586C7.89609 10.0211 7.94696 10 8 10H10.8V6.8H1.2V10ZM0.599999 2.6C0.599999 2.75913 0.663215 2.91174 0.775736 3.02426C0.888258 3.13679 1.04087 3.2 1.2 3.2C1.35913 3.2 1.51174 3.13679 1.62426 3.02426C1.73679 2.91174 1.8 2.75913 1.8 2.6V2.4H0.599999V2.6ZM2.096 0.4L0.816 2H1.8646L2.5046 0.4H2.096ZM2.936 0.4L2.296 2H3.436L3.756 0.4H2.936ZM2.2 2.4V2.6C2.2 2.75913 2.26321 2.91174 2.37574 3.02426C2.48826 3.13679 2.64087 3.2 2.8 3.2C2.95913 3.2 3.11174 3.13679 3.22426 3.02426C3.33679 2.91174 3.4 2.75913 3.4 2.6V2.4H2.2ZM5 0.4H4.164L3.844 2H5V0.4ZM5 2.4H3.8V2.6C3.8 2.75913 3.86321 2.91174 3.97574 3.02426C4.08826 3.13679 4.24087 3.2 4.4 3.2C4.55913 3.2 4.71174 3.13679 4.82426 3.02426C4.93679 2.91174 5 2.75913 5 2.6V2.4ZM6.6 0.4H5.4V2H6.6V0.4ZM6.6 2.4H5.4V2.6C5.4 2.75913 5.46321 2.91174 5.57574 3.02426C5.68826 3.13679 5.84087 3.2 6 3.2C6.15913 3.2 6.31174 3.13679 6.42426 3.02426C6.53679 2.91174 6.6 2.75913 6.6 2.6V2.4ZM6.8 3.1938C6.70802 3.31968 6.58763 3.42208 6.44862 3.49268C6.30961 3.56327 6.15591 3.60006 6 3.60006C5.84409 3.60006 5.69039 3.56327 5.55138 3.49268C5.41237 3.42208 5.29198 3.31968 5.2 3.1938C5.10802 3.31968 4.98763 3.42208 4.84862 3.49268C4.70961 3.56327 4.55591 3.60006 4.4 3.60006C4.24409 3.60006 4.09039 3.56327 3.95138 3.49268C3.81237 3.42208 3.69198 3.31968 3.6 3.1938C3.50802 3.31968 3.38763 3.42208 3.24862 3.49268C3.10961 3.56327 2.95591 3.60006 2.8 3.60006C2.64409 3.60006 2.49039 3.56327 2.35138 3.49268C2.21237 3.42208 2.09198 3.31968 2 3.1938C1.9077 3.31935 1.78724 3.42149 1.64831 3.49204C1.50937 3.56259 1.35582 3.59956 1.2 3.6V6.4H10.8V3.6C10.6442 3.59956 10.4906 3.56259 10.3517 3.49204C10.2128 3.42149 10.0923 3.31935 10 3.1938C9.90802 3.31968 9.78763 3.42208 9.64862 3.49268C9.50961 3.56327 9.35591 3.60006 9.2 3.60006C9.04409 3.60006 8.89039 3.56327 8.75138 3.49268C8.61237 3.42208 8.49198 3.31968 8.4 3.1938C8.30802 3.31968 8.18763 3.42208 8.04862 3.49268C7.90961 3.56327 7.75591 3.60006 7.6 3.60006C7.44409 3.60006 7.29039 3.56327 7.15138 3.49268C7.01237 3.42208 6.89198 3.31968 6.8 3.1938ZM9.8 2.6V2.4H8.6V2.6C8.6 2.75913 8.66321 2.91174 8.77574 3.02426C8.88826 3.13679 9.04087 3.2 9.2 3.2C9.35913 3.2 9.51174 3.13679 9.62426 3.02426C9.73679 2.91174 9.8 2.75913 9.8 2.6ZM7.836 0.4H7V2H8.156L7.836 0.4ZM8.2 2.4H7V2.6C7 2.75913 7.06321 2.91174 7.17574 3.02426C7.28826 3.13679 7.44087 3.2 7.6 3.2C7.75913 3.2 7.91174 3.13679 8.02426 3.02426C8.13679 2.91174 8.2 2.75913 8.2 2.6V2.4ZM8.244 0.4L8.564 2H9.704L9.064 0.4H8.244ZM9.904 0.4H9.4954L10.1354 2H11.1838L9.904 0.4ZM11.4 2.6V2.4H10.2V2.6C10.2 2.75913 10.2632 2.91174 10.3757 3.02426C10.4883 3.13679 10.6409 3.2 10.8 3.2C10.9591 3.2 11.1117 3.13679 11.2243 3.02426C11.3368 2.91174 11.4 2.75913 11.4 2.6Z" fill="#2469E9"/>
</svg>
