<svg width="26" height="16" viewBox="0 0 26 16" fill="none" xmlns="http://www.w3.org/2000/svg">
<rect width="26" height="15.3636" rx="7.68182" fill="#EBF3FF"/>
<path d="M9.67169 4.80203V10.3635H9.01995L5.98937 5.99688H5.93506V10.3635H5.2616V4.80203H5.91334L8.95478 9.17953H9.00909V4.80203H9.67169ZM12.6812 10.4504C12.2793 10.4504 11.9326 10.3617 11.6412 10.1843C11.3515 10.0051 11.1279 9.75524 10.9704 9.4348C10.8147 9.11255 10.7369 8.7378 10.7369 8.31055C10.7369 7.8833 10.8147 7.50674 10.9704 7.18087C11.1279 6.85319 11.347 6.59793 11.6276 6.41508C11.91 6.23042 12.2395 6.13809 12.6161 6.13809C12.8333 6.13809 13.0478 6.1743 13.2596 6.24671C13.4715 6.31913 13.6643 6.4368 13.8381 6.59974C14.0119 6.76086 14.1504 6.97449 14.2535 7.24061C14.3567 7.50674 14.4083 7.83442 14.4083 8.22365V8.49521H11.1931V7.94123H13.7566C13.7566 7.70588 13.7095 7.49588 13.6154 7.31122C13.5231 7.12656 13.3909 6.98082 13.2189 6.87401C13.0487 6.7672 12.8478 6.71379 12.6161 6.71379C12.3608 6.71379 12.1399 6.77716 11.9535 6.90388C11.7688 7.0288 11.6267 7.19173 11.5271 7.39269C11.4275 7.59364 11.3778 7.80907 11.3778 8.03899V8.40831C11.3778 8.72332 11.4321 8.99035 11.5407 9.20941C11.6511 9.42665 11.8041 9.5923 11.9996 9.70636C12.1951 9.8186 12.4223 9.87472 12.6812 9.87472C12.8496 9.87472 13.0017 9.85119 13.1374 9.80412C13.275 9.75524 13.3936 9.68282 13.4932 9.58687C13.5928 9.48911 13.6697 9.36781 13.724 9.22298L14.3432 9.39678C14.278 9.60679 14.1685 9.79144 14.0146 9.95076C13.8607 10.1083 13.6706 10.2314 13.4443 10.3201C13.218 10.407 12.9636 10.4504 12.6812 10.4504ZM16.3282 10.3635L15.0574 6.1924H15.7308L16.6324 9.38592H16.6758L17.5665 6.1924H18.2509L19.1307 9.37506H19.1742L20.0757 6.1924H20.7492L19.4783 10.3635H18.8483L17.9359 7.15915H17.8707L16.9583 10.3635H16.3282Z" fill="#2469E9"/>
</svg>
