<svg width="42" height="42" viewBox="0 0 42 42" fill="none" xmlns="http://www.w3.org/2000/svg">
<rect width="42" height="42" rx="21" fill="#E4FFE7"/>
<g clip-path="url(#clip0_96_529)">
<path d="M30 31H12C10.3 31 9 29.7 9 28V11H27V18" stroke="#65B45E" stroke-width="1.5" stroke-miterlimit="10"/>
<path d="M30 31C28.3 31 27 29.7 27 28V18H33V28C33 29.7 31.7 31 30 31Z" stroke="#65B45E" stroke-width="1.5" stroke-miterlimit="10"/>
<path d="M23 15H13V18H23V15Z" stroke="#65B45E" stroke-width="1.5" stroke-miterlimit="10"/>
<path d="M12 21H17" stroke="#65B45E" stroke-width="1.5" stroke-miterlimit="10"/>
<path d="M19 21H24" stroke="#65B45E" stroke-width="1.5" stroke-miterlimit="10"/>
<path d="M12 24H17" stroke="#65B45E" stroke-width="1.5" stroke-miterlimit="10"/>
<path d="M19 24H24" stroke="#65B45E" stroke-width="1.5" stroke-miterlimit="10"/>
<path d="M12 27H17" stroke="#65B45E" stroke-width="1.5" stroke-miterlimit="10"/>
<path d="M19 27H24" stroke="#65B45E" stroke-width="1.5" stroke-miterlimit="10"/>
</g>
<defs>
<clipPath id="clip0_96_529">
<rect width="26" height="22" fill="white" transform="translate(8 10)"/>
</clipPath>
</defs>
</svg>
