<svg width="32" height="32" viewBox="0 0 32 32" fill="none" xmlns="http://www.w3.org/2000/svg">
<path fill-rule="evenodd" clip-rule="evenodd" d="M18.6667 11.3334C18.6667 11.7016 18.9652 12.0001 19.3334 12.0001C19.7016 12.0001 20.0001 11.7016 20.0001 11.3334C20.0001 10.9652 19.7016 10.6667 19.3334 10.6667C18.9652 10.6667 18.6667 10.9652 18.6667 11.3334Z" stroke="white" stroke-opacity="0.44" stroke-width="1.5" stroke-linecap="round" stroke-linejoin="round"/>
<path d="M6.66675 22H5.91675C5.91675 22.2914 6.08553 22.5565 6.34958 22.6797L6.66675 22ZM6.66675 10.6667L6.31381 10.0049C6.06941 10.1353 5.91675 10.3897 5.91675 10.6667H6.66675ZM16.6667 26.6667L16.3496 27.3463C16.5643 27.4465 16.8137 27.4394 17.0223 27.3271L16.6667 26.6667ZM25.3334 22L25.689 22.6604C25.9319 22.5296 26.0834 22.276 26.0834 22H25.3334ZM25.3334 10.6667H26.0834C26.0834 10.4063 25.9483 10.1645 25.7265 10.028L25.3334 10.6667ZM16.6667 5.33337L17.0598 4.69463C16.8329 4.55498 16.5489 4.54622 16.3138 4.67161L16.6667 5.33337ZM19.0667 19.0147L19.5756 19.5657C19.5829 19.559 19.59 19.5521 19.5971 19.545L19.0667 19.0147ZM17.1094 18.8534L17.7016 18.3931L17.7013 18.3927L17.1094 18.8534ZM14.4307 15.412L15.0226 14.9514L15.0215 14.9499L14.4307 15.412ZM13.3531 14.9005L13.3376 14.1507L13.3531 14.9005ZM12.2974 15.456L11.6881 15.0187L11.6873 15.0199L12.2974 15.456ZM7.11395 21.4172C6.87306 21.7542 6.95095 22.2226 7.28791 22.4635C7.62488 22.7044 8.09332 22.6265 8.33421 22.2895L7.11395 21.4172ZM25.8638 13.2783C26.1567 12.9854 26.1567 12.5106 25.8638 12.2177C25.5709 11.9248 25.096 11.9248 24.8031 12.2177L25.8638 13.2783ZM7.41675 22V10.6667H5.91675V22H7.41675ZM16.9839 25.9871L6.98391 21.3204L6.34958 22.6797L16.3496 27.3463L16.9839 25.9871ZM24.9778 21.3397L16.3112 26.0064L17.0223 27.3271L25.689 22.6604L24.9778 21.3397ZM24.5834 10.6667V22H26.0834V10.6667H24.5834ZM16.2737 5.97212L24.9403 11.3054L25.7265 10.028L17.0598 4.69463L16.2737 5.97212ZM7.01969 11.3285L17.0197 5.99514L16.3138 4.67161L6.31381 10.0049L7.01969 11.3285ZM18.5579 18.4637C18.4379 18.5745 18.277 18.6299 18.1143 18.6165L17.991 20.1114C18.5723 20.1594 19.1471 19.9614 19.5756 19.5657L18.5579 18.4637ZM18.1143 18.6165C17.9515 18.6031 17.8018 18.5221 17.7016 18.3931L16.5172 19.3136C16.8752 19.7741 17.4097 20.0635 17.991 20.1114L18.1143 18.6165ZM17.7013 18.3927L15.0226 14.9514L13.8389 15.8727L16.5176 19.314L17.7013 18.3927ZM15.0215 14.9499C14.6173 14.4333 13.9934 14.1371 13.3376 14.1507L13.3685 15.6504C13.5522 15.6466 13.7269 15.7295 13.84 15.8741L15.0215 14.9499ZM13.3376 14.1507C12.6818 14.1642 12.0707 14.4858 11.6881 15.0187L12.9067 15.8934C13.0138 15.7442 13.1849 15.6541 13.3685 15.6504L13.3376 14.1507ZM11.6873 15.0199L7.11395 21.4172L8.33421 22.2895L12.9075 15.8922L11.6873 15.0199ZM19.5971 19.545L25.8638 13.2783L24.8031 12.2177L18.5364 18.4844L19.5971 19.545Z" fill="white" fill-opacity="0.44"/>
</svg>
