<svg width="12" height="12" viewBox="0 0 12 12" fill="none" xmlns="http://www.w3.org/2000/svg">
<path fill-rule="evenodd" clip-rule="evenodd" d="M5.994 0C2.682 0 0 2.688 0 6C0 9.312 2.682 12 5.994 12C9.312 12 12 9.312 12 6C12 2.688 9.312 0 5.994 0ZM10.482 4.296L7.47599 4.038L6.27599 1.212C8.20199 1.326 9.82199 2.574 10.482 4.296ZM5.99999 7.18799L7.43999 8.05199L7.05599 6.41399L8.32199 5.31599L6.65399 5.17199L5.99999 3.63599L5.34599 5.17799L3.67799 5.32199L4.94399 6.41999L4.56599 8.05199L5.99999 7.18799ZM5.72399 1.212L4.52399 4.044L1.51199 4.302C2.17199 2.574 3.79199 1.32 5.72399 1.212ZM1.33803 4.884C1.24803 5.244 1.20003 5.61599 1.20003 6C1.20003 7.488 1.87803 8.81999 2.94603 9.70199L3.61203 6.85199L1.33803 4.884ZM3.504 10.092L6 8.586L8.496 10.086C7.764 10.536 6.912 10.8 5.994 10.8C5.082 10.8 4.23 10.536 3.504 10.092ZM8.38802 6.85199L9.05402 9.70199C10.116 8.81999 10.8 7.488 10.8 6C10.8 5.61599 10.746 5.238 10.662 4.884L8.38802 6.85199Z" fill="#2469E9"/>
</svg>
