<svg width="28" height="28" viewBox="0 0 28 28" fill="none" xmlns="http://www.w3.org/2000/svg">
<rect width="28" height="28" rx="14" fill="#EBF3FF"/>
<path d="M14.7499 5.83347C14.7499 5.41926 14.4141 5.08347 13.9999 5.08347C13.5857 5.08347 13.2499 5.41926 13.2499 5.83347H14.7499ZM13.9999 14.0001H13.2499C13.2499 14.4144 13.5857 14.7501 13.9999 14.7501V14.0001ZM22.1666 14.7501C22.5808 14.7501 22.9166 14.4144 22.9166 14.0001C22.9166 13.5859 22.5808 13.2501 22.1666 13.2501V14.7501ZM5.83325 14.0001L5.08325 14.0001L5.83325 14.0001ZM12.4072 5.99087L12.5535 6.72647L12.4072 5.99087ZM21.5451 10.8759L22.2381 10.589L21.5451 10.8759ZM18.5367 20.7913L18.9533 21.4149L18.5367 20.7913ZM8.22492 19.7751L8.75528 19.2448H8.75528L8.22492 19.7751ZM13.2499 5.83347V14.0001H14.7499V5.83347H13.2499ZM13.9999 14.7501H22.1666V13.2501H13.9999V14.7501ZM6.58325 14.0002C6.58351 10.4619 9.08314 7.41653 12.5535 6.72647L12.2609 5.25527C8.08873 6.08489 5.08356 9.74619 5.08325 14.0001L6.58325 14.0002ZM12.5535 6.72647C16.0238 6.03642 19.4984 7.89388 20.8522 11.1629L22.2381 10.589C20.6104 6.65879 16.4332 4.42566 12.2609 5.25527L12.5535 6.72647ZM20.8522 11.1629C22.206 14.4319 21.0621 18.2021 18.12 20.1677L18.9533 21.4149C22.4905 19.0518 23.8657 14.5192 22.2381 10.589L20.8522 11.1629ZM18.12 20.1677C15.178 22.1333 11.2571 21.7469 8.75528 19.2448L7.69456 20.3054C10.7024 23.3136 15.4162 23.7781 18.9533 21.4149L18.12 20.1677ZM8.75528 19.2448C7.36441 17.8538 6.58311 15.9673 6.58325 14.0002L5.08325 14.0001C5.08308 16.365 6.0224 18.6331 7.69456 20.3054L8.75528 19.2448Z" fill="#2469E9"/>
</svg>
