<svg width="32" height="32" viewBox="0 0 32 32" fill="none" xmlns="http://www.w3.org/2000/svg">
<path d="M7.00016 12C7.00016 12.5523 7.44788 13 8.00016 13C8.55245 13 9.00016 12.5523 9.00016 12H7.00016ZM8.00016 8V7C7.44788 7 7.00016 7.44772 7.00016 8H8.00016ZM12.0002 9C12.5524 9 13.0002 8.55228 13.0002 8C13.0002 7.44772 12.5524 7 12.0002 7V9ZM23.0002 12C23.0002 12.5523 23.4479 13 24.0002 13C24.5524 13 25.0002 12.5523 25.0002 12H23.0002ZM24.0002 8H25.0002C25.0002 7.44772 24.5524 7 24.0002 7V8ZM20.0002 7C19.4479 7 19.0002 7.44772 19.0002 8C19.0002 8.55228 19.4479 9 20.0002 9V7ZM25.0002 20C25.0002 19.4477 24.5524 19 24.0002 19C23.4479 19 23.0002 19.4477 23.0002 20H25.0002ZM24.0002 24V25C24.5524 25 25.0002 24.5523 25.0002 24H24.0002ZM20.0002 23C19.4479 23 19.0002 23.4477 19.0002 24C19.0002 24.5523 19.4479 25 20.0002 25V23ZM9.00016 20C9.00016 19.4477 8.55245 19 8.00016 19C7.44788 19 7.00016 19.4477 7.00016 20H9.00016ZM8.00016 24H7.00016C7.00016 24.5523 7.44788 25 8.00016 25V24ZM12.0002 25C12.5524 25 13.0002 24.5523 13.0002 24C13.0002 23.4477 12.5524 23 12.0002 23V25ZM26.6668 17C27.2191 17 27.6668 16.5523 27.6668 16C27.6668 15.4477 27.2191 15 26.6668 15V17ZM5.3335 15C4.78121 15 4.3335 15.4477 4.3335 16C4.3335 16.5523 4.78121 17 5.3335 17V15ZM9.00016 12V8H7.00016V12H9.00016ZM8.00016 9H12.0002V7H8.00016V9ZM25.0002 12V8H23.0002V12H25.0002ZM24.0002 7H20.0002V9H24.0002V7ZM23.0002 20V24H25.0002V20H23.0002ZM24.0002 23H20.0002V25H24.0002V23ZM7.00016 20V24H9.00016V20H7.00016ZM8.00016 25H12.0002V23H8.00016V25ZM26.6668 15H5.3335V17H26.6668V15Z" fill="white"/>
</svg>
