<svg width="28" height="28" viewBox="0 0 28 28" fill="none" xmlns="http://www.w3.org/2000/svg">
<rect width="28" height="28" rx="14" fill="#EBF3FF"/>
<path d="M6.24984 10.5C6.24984 10.9142 6.58562 11.25 6.99984 11.25C7.41405 11.25 7.74984 10.9142 7.74984 10.5H6.24984ZM6.99984 7V6.25C6.58562 6.25 6.24984 6.58579 6.24984 7H6.99984ZM10.4998 7.75C10.9141 7.75 11.2498 7.41421 11.2498 7C11.2498 6.58579 10.9141 6.25 10.4998 6.25V7.75ZM20.2498 10.5C20.2498 10.9142 20.5856 11.25 20.9998 11.25C21.4141 11.25 21.7498 10.9142 21.7498 10.5H20.2498ZM20.9998 7H21.7498C21.7498 6.58579 21.4141 6.25 20.9998 6.25V7ZM17.4998 6.25C17.0856 6.25 16.7498 6.58579 16.7498 7C16.7498 7.41421 17.0856 7.75 17.4998 7.75V6.25ZM21.7498 17.5C21.7498 17.0858 21.4141 16.75 20.9998 16.75C20.5856 16.75 20.2498 17.0858 20.2498 17.5H21.7498ZM20.9998 21V21.75C21.4141 21.75 21.7498 21.4142 21.7498 21H20.9998ZM17.4998 20.25C17.0856 20.25 16.7498 20.5858 16.7498 21C16.7498 21.4142 17.0856 21.75 17.4998 21.75V20.25ZM7.74984 17.5C7.74984 17.0858 7.41405 16.75 6.99984 16.75C6.58562 16.75 6.24984 17.0858 6.24984 17.5H7.74984ZM6.99984 21H6.24984C6.24984 21.4142 6.58562 21.75 6.99984 21.75V21ZM10.4998 21.75C10.9141 21.75 11.2498 21.4142 11.2498 21C11.2498 20.5858 10.9141 20.25 10.4998 20.25V21.75ZM23.3332 14.75C23.7474 14.75 24.0832 14.4142 24.0832 14C24.0832 13.5858 23.7474 13.25 23.3332 13.25V14.75ZM4.6665 13.25C4.25229 13.25 3.9165 13.5858 3.9165 14C3.9165 14.4142 4.25229 14.75 4.6665 14.75V13.25ZM7.74984 10.5V7H6.24984V10.5H7.74984ZM6.99984 7.75H10.4998V6.25H6.99984V7.75ZM21.7498 10.5V7H20.2498V10.5H21.7498ZM20.9998 6.25H17.4998V7.75H20.9998V6.25ZM20.2498 17.5V21H21.7498V17.5H20.2498ZM20.9998 20.25H17.4998V21.75H20.9998V20.25ZM6.24984 17.5V21H7.74984V17.5H6.24984ZM6.99984 21.75H10.4998V20.25H6.99984V21.75ZM23.3332 13.25H4.6665V14.75H23.3332V13.25Z" fill="#2469E9"/>
</svg>
