<svg width="22" height="22" viewBox="0 0 22 22" fill="none" xmlns="http://www.w3.org/2000/svg">
<path d="M17.1111 0H15.8889C15.1556 0 14.6667 0.488889 14.6667 1.22222C14.6667 1.95556 15.1556 2.44444 15.8889 2.44444H17.1111C18.4556 2.44444 19.5556 3.54444 19.5556 4.88889V6.23333C19.5556 6.96667 20.0444 7.45556 20.7778 7.45556C21.5111 7.45556 22 6.96667 22 6.23333V4.88889C22 2.2 19.8 0 17.1111 0ZM20.7778 14.6667C20.0444 14.6667 19.5556 15.1556 19.5556 15.8889V17.1111C19.5556 18.4556 18.4556 19.5556 17.1111 19.5556H15.8889C15.1556 19.5556 14.6667 20.0444 14.6667 20.7778C14.6667 21.5111 15.1556 22 15.8889 22H17.1111C19.8 22 22 19.8 22 17.1111V15.8889C22 15.1556 21.5111 14.6667 20.7778 14.6667ZM6.11111 19.5556H4.88889C3.54444 19.5556 2.44444 18.4556 2.44444 17.1111V15.8889C2.44444 15.1556 1.95556 14.6667 1.22222 14.6667C0.488889 14.6667 0 15.1556 0 15.8889V17.1111C0 19.8 2.2 22 4.88889 22H6.11111C6.84444 22 7.33333 21.5111 7.33333 20.7778C7.33333 20.0444 6.84444 19.5556 6.11111 19.5556ZM1.22222 7.33333C1.95556 7.33333 2.44444 6.84444 2.44444 6.11111V4.88889C2.44444 3.54444 3.54444 2.44444 4.88889 2.44444H6.11111C6.84444 2.44444 7.33333 1.95556 7.33333 1.22222C7.33333 0.488889 6.84444 0 6.11111 0H4.88889C2.2 0 0 2.2 0 4.88889V6.11111C0 6.72222 0.488889 7.33333 1.22222 7.33333ZM20.7778 9.77778H1.22222C0.488889 9.77778 0 10.2667 0 11C0 11.7333 0.488889 12.2222 1.22222 12.2222H20.7778C21.5111 12.2222 22 11.7333 22 11C22 10.2667 21.5111 9.77778 20.7778 9.77778Z" fill="#2469E9"/>
</svg>
