<svg width="40" height="40" viewBox="0 0 40 40" fill="none" xmlns="http://www.w3.org/2000/svg">
<rect width="40" height="40" rx="20" fill="#EBF3FF"/>
<path fill-rule="evenodd" clip-rule="evenodd" d="M19.1459 29.3055C18.6622 29.3055 18.2496 28.9555 18.1708 28.4782C18.0983 28.0922 17.8203 27.7767 17.4464 27.6562C17.1418 27.5516 16.8439 27.4283 16.5545 27.2868C16.2101 27.1107 15.797 27.137 15.4778 27.3554C15.0915 27.6332 14.5609 27.5902 14.2244 27.2538L12.9155 25.9449C12.5632 25.5926 12.5174 25.0373 12.8073 24.6321C13.0308 24.3055 13.063 23.8844 12.8917 23.5277C12.7789 23.2798 12.6793 23.0261 12.5935 22.7677C12.4706 22.3604 12.1314 22.0553 11.7135 21.976C11.2094 21.8955 10.8373 21.4626 10.8334 20.9521V19.3147C10.8307 18.7263 11.2557 18.2231 11.8362 18.1272C12.2765 18.0434 12.6443 17.7418 12.8126 17.3263C12.8627 17.2093 12.9155 17.0932 12.9709 16.978C13.1947 16.5471 13.1638 16.0281 12.8904 15.6269C12.5485 15.1517 12.601 14.4989 13.0144 14.0844L13.9763 13.1225C14.4507 12.648 15.1989 12.5866 15.7444 12.9774L15.7747 12.9985C16.182 13.2727 16.7003 13.3223 17.1522 13.1305C17.6357 12.9564 17.992 12.541 18.0903 12.0366L18.1035 11.9918C18.2122 11.3241 18.7887 10.8336 19.4652 10.8333H20.6263C21.321 10.833 21.9139 11.3355 22.0276 12.0208L22.0487 12.1132C22.1419 12.5963 22.4798 12.9962 22.9406 13.1687C23.3847 13.3593 23.8954 13.3096 24.2944 13.0368L24.3603 12.9893C24.9199 12.586 25.6894 12.648 26.1772 13.1357L27.0626 14.0224C27.5062 14.4686 27.562 15.1702 27.1945 15.681C26.9066 16.1078 26.8698 16.6564 27.0982 17.1178L27.1549 17.2498C27.3399 17.7003 27.7399 18.0269 28.2184 18.118C28.8437 18.2199 29.3035 18.759 29.3056 19.3925V20.8611C29.3054 21.4197 28.9014 21.8963 28.3503 21.9879C27.8971 22.0748 27.5279 22.403 27.3885 22.8429C27.3269 23.0188 27.2583 23.1947 27.1826 23.3707C27.0066 23.7572 27.0456 24.2077 27.2855 24.5582C27.6022 24.9986 27.553 25.6036 27.1694 25.9871L25.941 27.2169C25.5897 27.5681 25.0358 27.6133 24.6321 27.3237C24.2952 27.0936 23.8587 27.0682 23.4974 27.2578C23.24 27.3853 22.9757 27.4985 22.7057 27.5969C22.3284 27.727 22.0502 28.0501 21.9774 28.4426C21.9005 28.9365 21.4771 29.3018 20.9773 29.3055H19.1459Z" stroke="#2469E9" stroke-width="1.5" stroke-linecap="round" stroke-linejoin="round"/>
<path fill-rule="evenodd" clip-rule="evenodd" d="M23.1477 20.0694C23.1477 21.7695 21.7696 23.1477 20.0695 23.1477C18.3694 23.1477 16.9912 21.7695 16.9912 20.0694C16.9912 18.3693 18.3694 16.9911 20.0695 16.9911C21.7696 16.9911 23.1477 18.3693 23.1477 20.0694Z" stroke="#2469E9" stroke-width="1.5" stroke-linecap="round" stroke-linejoin="round"/>
</svg>
