<svg width="40" height="40" viewBox="0 0 40 40" fill="none" xmlns="http://www.w3.org/2000/svg">
<rect width="40" height="40" rx="20" fill="#EBF3FF" fill-opacity="0.3"/>
<path fill-rule="evenodd" clip-rule="evenodd" d="M19.1458 29.3055C18.6621 29.3055 18.2495 28.9555 18.1707 28.4782C18.0982 28.0922 17.8202 27.7767 17.4463 27.6562C17.1417 27.5516 16.8438 27.4283 16.5544 27.2868C16.21 27.1107 15.7969 27.137 15.4777 27.3554C15.0914 27.6332 14.5608 27.5902 14.2242 27.2538L12.9153 25.9449C12.5631 25.5926 12.5173 25.0373 12.8072 24.6321C13.0307 24.3055 13.0629 23.8844 12.8916 23.5277C12.7787 23.2798 12.6792 23.0261 12.5934 22.7677C12.4705 22.3604 12.1313 22.0553 11.7133 21.976C11.2093 21.8955 10.8372 21.4626 10.8333 20.9521V19.3147C10.8306 18.7263 11.2555 18.2231 11.836 18.1272C12.2764 18.0434 12.6442 17.7418 12.8124 17.3263C12.8626 17.2093 12.9153 17.0932 12.9708 16.978C13.1946 16.5471 13.1637 16.0281 12.8903 15.6269C12.5484 15.1517 12.6009 14.4989 13.0143 14.0844L13.9762 13.1225C14.4506 12.648 15.1988 12.5866 15.7442 12.9774L15.7746 12.9985C16.1819 13.2727 16.7002 13.3223 17.1521 13.1305C17.6356 12.9564 17.9919 12.541 18.0902 12.0366L18.1034 11.9918C18.2121 11.3241 18.7886 10.8336 19.4651 10.8333H20.6262C21.3209 10.833 21.9138 11.3355 22.0274 12.0208L22.0485 12.1132C22.1418 12.5963 22.4797 12.9962 22.9405 13.1687C23.3846 13.3593 23.8953 13.3096 24.2942 13.0368L24.3602 12.9893C24.9198 12.586 25.6893 12.648 26.1771 13.1357L27.0624 14.0224C27.5061 14.4686 27.5619 15.1702 27.1944 15.681C26.9064 16.1078 26.8697 16.6564 27.0981 17.1178L27.1548 17.2498C27.3398 17.7003 27.7398 18.0269 28.2183 18.118C28.8435 18.2199 29.3034 18.759 29.3055 19.3925V20.8611C29.3053 21.4197 28.9013 21.8963 28.3502 21.9879C27.897 22.0748 27.5278 22.403 27.3883 22.8429C27.3268 23.0188 27.2581 23.1947 27.1825 23.3707C27.0065 23.7572 27.0455 24.2077 27.2854 24.5582C27.602 24.9986 27.5529 25.6036 27.1693 25.9871L25.9409 27.2169C25.5896 27.5681 25.0356 27.6133 24.632 27.3237C24.2951 27.0936 23.8586 27.0682 23.4973 27.2578C23.2399 27.3853 22.9756 27.4985 22.7056 27.5969C22.3283 27.727 22.05 28.0501 21.9773 28.4426C21.9004 28.9365 21.4769 29.3018 20.9772 29.3055H19.1458Z" stroke="white" stroke-width="1.5" stroke-linecap="round" stroke-linejoin="round"/>
<path fill-rule="evenodd" clip-rule="evenodd" d="M23.1477 20.0694C23.1477 21.7695 21.7696 23.1477 20.0695 23.1477C18.3694 23.1477 16.9912 21.7695 16.9912 20.0694C16.9912 18.3693 18.3694 16.9911 20.0695 16.9911C21.7696 16.9911 23.1477 18.3693 23.1477 20.0694Z" stroke="white" stroke-width="1.5" stroke-linecap="round" stroke-linejoin="round"/>
<rect x="0.5" y="0.5" width="39" height="39" rx="19.5" stroke="black" stroke-opacity="0.05"/>
</svg>
