<svg width="28" height="28" viewBox="0 0 28 28" fill="none" xmlns="http://www.w3.org/2000/svg">
<rect width="28" height="28" rx="14" fill="#EBF3FF"/>
<path fill-rule="evenodd" clip-rule="evenodd" d="M9.50709 20.471L7.90759 22.0752L5.83325 19.995L13.2859 12.5284C12.2869 10.4584 12.9438 7.96934 14.8341 6.66193C16.7244 5.35452 19.2852 5.61812 20.8695 7.2832C22.4538 8.94827 22.5899 11.519 21.1902 13.342C19.7905 15.165 17.2718 15.6974 15.2541 14.5969L11.1568 18.7059L12.8683 20.4232L11.1638 22.1324L9.50709 20.471Z" stroke="#2469E9" stroke-width="1.5" stroke-linecap="round" stroke-linejoin="round"/>
<path fill-rule="evenodd" clip-rule="evenodd" d="M18.8159 9.15905C19.5434 9.88859 19.5422 11.0695 18.8134 11.7977C18.0846 12.5258 16.9036 12.5258 16.1748 11.7977C15.446 11.0695 15.4448 9.88859 16.1723 9.15905C16.9041 8.43331 18.0841 8.43331 18.8159 9.15905Z" stroke="#2469E9" stroke-width="1.5" stroke-linecap="round" stroke-linejoin="round"/>
</svg>
