<svg width="42" height="42" viewBox="0 0 42 42" fill="none" xmlns="http://www.w3.org/2000/svg">
<rect width="42" height="42" rx="21" fill="#EBF3FF"/>
<g clip-path="url(#clip0_96_412)">
<path d="M21.5998 31.7C27.0122 31.7 31.3998 27.3124 31.3998 21.9C31.3998 16.4876 27.0122 12.1 21.5998 12.1C16.1874 12.1 11.7998 16.4876 11.7998 21.9C11.7998 27.3124 16.1874 31.7 21.5998 31.7Z" stroke="#2469E9" stroke-width="1.5" stroke-miterlimit="10"/>
<path d="M29.0002 31.5C30.8227 31.5 32.3002 30.0225 32.3002 28.2C32.3002 26.3775 30.8227 24.9 29.0002 24.9C27.1777 24.9 25.7002 26.3775 25.7002 28.2C25.7002 30.0225 27.1777 31.5 29.0002 31.5Z" fill="#2469E9"/>
<path d="M12.3 28.3C14.1225 28.3 15.6 26.8226 15.6 25C15.6 23.1775 14.1225 21.7 12.3 21.7C10.4775 21.7 9 23.1775 9 25C9 26.8226 10.4775 28.3 12.3 28.3Z" fill="#2469E9"/>
<path d="M22.9001 15.6C24.7226 15.6 26.2001 14.1225 26.2001 12.3C26.2001 10.4775 24.7226 9 22.9001 9C21.0776 9 19.6001 10.4775 19.6001 12.3C19.6001 14.1225 21.0776 15.6 22.9001 15.6Z" fill="#2469E9"/>
</g>
<defs>
<clipPath id="clip0_96_412">
<rect width="23.3" height="23.2" fill="white" transform="translate(9 9)"/>
</clipPath>
</defs>
</svg>
