<svg width="14" height="14" viewBox="0 0 14 14" fill="none" xmlns="http://www.w3.org/2000/svg">
<path d="M12.9959 5.99594C12.5147 5.99594 12.1144 6.335 12.0159 6.78781H11.2088C11.1584 5.78375 10.7581 4.87375 10.1259 4.17375L10.6991 3.60062C10.8631 3.70562 11.0534 3.76031 11.2416 3.76031C11.4975 3.76031 11.7556 3.66188 11.9503 3.46719C12.3419 3.07563 12.3419 2.43906 11.9503 2.0475C11.5588 1.65594 10.9222 1.65594 10.5306 2.0475C10.1916 2.38656 10.1478 2.91156 10.3972 3.29875L9.82406 3.87188C9.12406 3.23969 8.21406 2.83938 7.21 2.78906V1.98406C7.66062 1.88562 8.00187 1.48531 8.00187 1.00406C8.00406 0.450625 7.55344 0 7 0C6.44656 0 5.99594 0.450625 5.99594 1.00406C5.99594 1.48531 6.335 1.88562 6.78781 1.98406V2.79125C5.78375 2.84156 4.87375 3.24187 4.17375 3.87406L3.60062 3.30094C3.70344 3.14125 3.76031 2.95312 3.76031 2.75844C3.76031 2.49156 3.65531 2.23781 3.46719 2.04969C3.27688 1.85938 3.02531 1.75656 2.75844 1.75656C2.49156 1.75656 2.23781 1.86156 2.04969 2.04969C1.85938 2.24 1.75656 2.49156 1.75656 2.75844C1.75656 3.0275 1.86156 3.27906 2.04969 3.46719C2.24 3.6575 2.49156 3.76031 2.75844 3.76031C2.95312 3.76031 3.14125 3.70344 3.30094 3.60062L3.87406 4.17375C3.24187 4.87375 2.84156 5.78375 2.79125 6.78781H1.98406C1.88562 6.33719 1.48531 5.99594 1.00406 5.99594C0.450625 5.99594 0 6.44656 0 7C0 7.55344 0.450625 8.00406 1.00406 8.00406C1.48531 8.00406 1.88562 7.665 1.98406 7.21219H2.79125C2.84156 8.21625 3.24187 9.12625 3.87406 9.82625L3.30094 10.3994C3.14125 10.2966 2.95312 10.2397 2.75844 10.2397C2.49156 10.2397 2.23781 10.3447 2.04969 10.5328C1.85938 10.7231 1.75656 10.9747 1.75656 11.2416C1.75656 11.5084 1.86156 11.7622 2.04969 11.9503C2.24 12.1406 2.49156 12.2434 2.75844 12.2434C3.0275 12.2434 3.27906 12.1384 3.46719 11.9503C3.6575 11.76 3.76031 11.5084 3.76031 11.2416C3.76031 11.0469 3.70344 10.8588 3.60062 10.6991L4.17375 10.1259C4.87375 10.7581 5.78375 11.1584 6.78781 11.2088V12.0159C6.33719 12.1144 5.99594 12.5147 5.99594 12.9959C5.99594 13.5494 6.44656 14 7 14C7.55344 14 8.00406 13.5494 8.00406 12.9959C8.00406 12.5147 7.665 12.1144 7.21219 12.0159V11.2088C8.21625 11.1584 9.12625 10.7581 9.82625 10.1259L10.3994 10.6991C10.15 11.0884 10.1938 11.6112 10.5328 11.9503C10.7275 12.145 10.9856 12.2434 11.2416 12.2434C11.4975 12.2434 11.7556 12.145 11.9503 11.9503C12.3419 11.5588 12.3419 10.9222 11.9503 10.5306C11.6112 10.1916 11.0863 10.1478 10.6991 10.3972L10.1259 9.82406C10.7581 9.12406 11.1584 8.21406 11.2088 7.21H12.0159C12.1144 7.66062 12.5147 8.00187 12.9959 8.00187C13.5494 8.00187 14 7.55125 14 6.99781C14 6.44438 13.5494 5.99594 12.9959 5.99594ZM10.8303 2.34938C10.9441 2.23563 11.0906 2.18094 11.2394 2.18094C11.3881 2.18094 11.5369 2.23781 11.6484 2.34938C11.8737 2.57469 11.8737 2.94219 11.6484 3.1675C11.4231 3.39281 11.0556 3.39281 10.8303 3.1675C10.605 2.94437 10.605 2.57687 10.8303 2.34938ZM3.16969 3.16969C2.95094 3.38844 2.57031 3.38844 2.35156 3.16969C2.24219 3.06031 2.18094 2.91594 2.18094 2.76062C2.18094 2.60531 2.24219 2.46094 2.35156 2.35156C2.46094 2.24219 2.60531 2.18094 2.76062 2.18094C2.91594 2.18094 3.06031 2.24219 3.16969 2.35156C3.27906 2.46094 3.34031 2.60531 3.34031 2.76062C3.33812 2.91375 3.27906 3.06031 3.16969 3.16969ZM1.00406 7.57969C0.684687 7.57969 0.424375 7.31938 0.424375 7C0.424375 6.68062 0.684687 6.42031 1.00406 6.42031C1.32344 6.42031 1.58375 6.68062 1.58375 7C1.58156 7.31938 1.32344 7.57969 1.00406 7.57969ZM3.16969 11.6506C2.95094 11.8694 2.57031 11.8694 2.35156 11.6506C2.24219 11.5412 2.18094 11.3969 2.18094 11.2416C2.18094 11.0863 2.24219 10.9419 2.35156 10.8325C2.46094 10.7231 2.60531 10.6619 2.76062 10.6619C2.91594 10.6619 3.06031 10.7231 3.16969 10.8325C3.27906 10.9419 3.34031 11.0863 3.34031 11.2416C3.33812 11.3947 3.27906 11.5412 3.16969 11.6506ZM10.8303 10.8303C11.0556 10.605 11.4231 10.605 11.6484 10.8303C11.8737 11.0556 11.8737 11.4231 11.6484 11.6484C11.4231 11.8737 11.0556 11.8737 10.8303 11.6484C10.605 11.4231 10.605 11.0556 10.8303 10.8303ZM6.42031 1.00406C6.42031 0.684687 6.68062 0.424375 7 0.424375C7.31938 0.424375 7.57969 0.684687 7.57969 1.00406C7.57969 1.32344 7.31938 1.58375 7 1.58375C6.68062 1.58156 6.42031 1.32344 6.42031 1.00406ZM7.57969 12.9959C7.57969 13.3153 7.31938 13.5756 7 13.5756C6.68062 13.5756 6.42031 13.3153 6.42031 12.9959C6.42031 12.6766 6.68062 12.4162 7 12.4162C7.31938 12.4184 7.57969 12.6766 7.57969 12.9959ZM7 10.7953C4.90656 10.7953 3.20469 9.09344 3.20469 7C3.20469 4.90656 4.90656 3.20469 7 3.20469C9.09344 3.20469 10.7953 4.90656 10.7953 7C10.7953 9.09344 9.09344 10.7953 7 10.7953ZM12.9959 7.57969C12.6766 7.57969 12.4162 7.31938 12.4162 7C12.4162 6.68062 12.6766 6.42031 12.9959 6.42031C13.3153 6.42031 13.5756 6.68062 13.5756 7C13.5756 7.31938 13.3153 7.57969 12.9959 7.57969Z" fill="#2469E9"/>
<path d="M8.00628 6.67843C8.11565 6.49906 8.17909 6.29125 8.17909 6.06593C8.17909 5.41625 7.64972 4.88687 7.00003 4.88687C6.35034 4.88687 5.82097 5.41625 5.82097 6.06593C5.82097 6.29125 5.8844 6.49906 5.99378 6.67843C5.77503 6.78343 5.57378 6.92343 5.40315 7.09406C4.99409 7.50093 4.77097 8.04343 4.77097 8.62093C4.77097 8.89218 4.9919 9.11093 5.26097 9.11093H8.73472C8.86378 9.11093 8.98628 9.06062 9.08253 8.96656C9.1744 8.87468 9.22472 8.75 9.22472 8.62093C9.2269 7.78093 8.74565 7.03281 8.00628 6.67843ZM7.00003 5.31125C7.41565 5.31125 7.75472 5.65031 7.75472 6.06593C7.75472 6.48156 7.41565 6.82062 7.00003 6.82062C6.5844 6.82062 6.24534 6.48156 6.24534 6.06593C6.24534 5.65031 6.5844 5.31125 7.00003 5.31125ZM8.78503 8.66687C8.7719 8.68 8.7544 8.68656 8.7369 8.68656H5.26315C5.22597 8.68656 5.19753 8.65812 5.19753 8.62093C5.19753 8.15718 5.37909 7.72187 5.70503 7.39375C5.87347 7.22531 6.0769 7.09625 6.29784 7.00875C6.49472 7.15531 6.73753 7.24281 7.00003 7.24281C7.26253 7.24281 7.50315 7.15531 7.70003 7.01093C8.36284 7.26906 8.80253 7.90125 8.80253 8.62093C8.80253 8.64062 8.79597 8.65593 8.78503 8.66687Z" fill="#2469E9"/>
</svg>
