<svg width="42" height="42" viewBox="0 0 42 42" fill="none" xmlns="http://www.w3.org/2000/svg">
<rect width="42" height="42" rx="21" fill="#EBF3FF"/>
<path d="M14.4984 18.8514C12.988 18.8514 11.5115 19.2993 10.2557 20.1384C8.99983 20.9776 8.02101 22.1703 7.44301 23.5657C6.865 24.9611 6.71377 26.4966 7.00843 27.978C7.3031 29.4593 8.03042 30.8201 9.09844 31.8881C10.1665 32.9561 11.5272 33.6834 13.0086 33.9781C14.4899 34.2728 16.0254 34.1215 17.4208 33.5435C18.8163 32.9655 20.009 31.9867 20.8481 30.7308C21.6872 29.475 22.1351 27.9985 22.1351 26.4881C22.1243 24.4661 21.3163 22.5299 19.8864 21.1001C18.4566 19.6703 16.5205 18.8622 14.4984 18.8514ZM14.4984 33.0028C13.2204 33.0028 11.971 32.6238 10.9084 31.9138C9.84576 31.2038 9.01753 30.1946 8.52845 29.0138C8.03937 27.8331 7.91141 26.5338 8.16074 25.2803C8.41007 24.0269 9.0255 22.8755 9.9292 21.9718C10.8329 21.0681 11.9843 20.4527 13.2378 20.2033C14.4912 19.954 15.7905 20.082 16.9712 20.571C18.152 21.0601 19.1612 21.8883 19.8712 22.951C20.5813 24.0136 20.9602 25.263 20.9602 26.541C20.951 28.2519 20.2672 29.8901 19.0574 31.1C17.8476 32.3098 16.2093 32.9936 14.4984 33.0028ZM28.7967 16.2138C28.4465 16.0748 28.0848 15.9667 27.7158 15.8907V13.8817C27.9817 13.9069 28.2357 14.0044 28.4501 14.1636C28.5749 14.2798 28.6755 14.4196 28.7461 14.5749C28.8167 14.7301 28.8558 14.8978 28.8613 15.0683L29.6602 15.0096C29.6515 14.6569 29.5458 14.3134 29.3547 14.0168C29.1534 13.7157 28.8642 13.4839 28.5265 13.353C28.2589 13.2494 27.9781 13.1841 27.6923 13.1591V12.2251H27.0167V13.1356C26.723 13.1543 26.4337 13.2177 26.1591 13.3236C25.832 13.4542 25.5558 13.687 25.3719 13.9874C25.1929 14.2509 25.0968 14.5618 25.0958 14.8803C25.1024 15.1543 25.1859 15.421 25.3367 15.6499C25.5041 15.9036 25.7377 16.1067 26.0122 16.2373C26.3394 16.3895 26.6821 16.5057 27.0344 16.5839V18.8573C26.8712 18.8272 26.7117 18.78 26.5585 18.7163C26.3044 18.6127 26.0845 18.4396 25.9241 18.217C25.7742 17.9839 25.6835 17.7177 25.6597 17.4416L24.855 17.512C24.8626 17.9149 24.9826 18.3076 25.2015 18.6458C25.4251 18.9786 25.7418 19.2381 26.1121 19.3919C26.4022 19.5046 26.7067 19.5758 27.0167 19.6033V20.5256H27.7158V19.6268C28.0755 19.6161 28.4301 19.5384 28.7614 19.3977C29.0994 19.2467 29.3854 18.9995 29.5838 18.6869C29.7723 18.4054 29.8725 18.0741 29.8717 17.7353C29.8792 17.4182 29.789 17.1064 29.6132 16.8424C29.4029 16.5628 29.1207 16.3456 28.7967 16.2138ZM27.0344 15.7204C26.7254 15.657 26.4308 15.5376 26.1649 15.3679C26.0817 15.2954 26.0161 15.2047 25.9733 15.1028C25.9306 15.001 25.9117 14.8907 25.9182 14.7805C25.9198 14.6504 25.952 14.5225 26.0122 14.4072C26.0724 14.2918 26.159 14.1923 26.2648 14.1167C26.4913 13.9578 26.7581 13.8662 27.0344 13.8523V15.7204ZM28.9083 18.3638C28.7692 18.5424 28.5816 18.6771 28.3678 18.7515C28.1642 18.8267 27.9502 18.8702 27.7334 18.8808V16.7543C27.9361 16.7999 28.1362 16.8568 28.3326 16.9246C28.5597 16.9895 28.7635 17.1179 28.92 17.2947C29.0377 17.441 29.1001 17.624 29.0963 17.8116C29.09 18.0132 29.0177 18.2072 28.8907 18.3638H28.9083Z" fill="#2469E9"/>
<path d="M27.3634 8.70055C25.853 8.70055 24.3765 9.14844 23.1206 9.98757C21.8648 10.8267 20.886 12.0194 20.308 13.4148C19.73 14.8102 19.5787 16.3457 19.8734 17.8271C20.1681 19.3085 20.8954 20.6692 21.9634 21.7372C23.0314 22.8052 24.3921 23.5326 25.8735 23.8272C27.3549 24.1219 28.8904 23.9707 30.2858 23.3927C31.6812 22.8147 32.8739 21.8358 33.7131 20.58C34.5522 19.3241 35.0001 17.8477 35.0001 16.3373C34.9908 14.3147 34.1833 12.3777 32.7531 10.9475C31.3229 9.51738 29.3859 8.70982 27.3634 8.70055ZM27.3634 22.852C26.0853 22.852 24.836 22.473 23.7734 21.7629C22.7107 21.0529 21.8825 20.0437 21.3934 18.863C20.9043 17.6822 20.7764 16.383 21.0257 15.1295C21.275 13.876 21.8905 12.7246 22.7942 11.8209C23.6979 10.9172 24.8493 10.3018 26.1027 10.0525C27.3562 9.80313 28.6555 9.93109 29.8362 10.4202C31.017 10.9093 32.0262 11.7375 32.7362 12.8001C33.4462 13.8628 33.8252 15.1121 33.8252 16.3901C33.8221 18.1051 33.1411 19.7494 31.9306 20.9643C30.7201 22.1791 29.0784 22.8662 27.3634 22.8755V22.852ZM17.5884 12.2252C17.6913 12.3419 17.8363 12.413 17.9916 12.4229C18.1469 12.4328 18.2998 12.3807 18.4167 12.2781L20.7664 10.2338C20.8284 10.1794 20.8781 10.1126 20.9126 10.0377C20.947 9.96277 20.9652 9.88148 20.9662 9.79906C20.9641 9.63315 20.8965 9.47477 20.7782 9.35848L18.728 7.46105C18.6725 7.40302 18.6056 7.35699 18.5316 7.32582C18.4575 7.29465 18.3779 7.27899 18.2976 7.27982C18.2172 7.28064 18.1379 7.29794 18.0646 7.33063C17.9912 7.36332 17.9253 7.41071 17.871 7.46988C17.8166 7.52904 17.775 7.59873 17.7487 7.67462C17.7223 7.75051 17.7118 7.83099 17.7178 7.9111C17.7238 7.99121 17.7462 8.06923 17.7835 8.14035C17.8209 8.21147 17.8724 8.27418 17.935 8.32459L18.8749 9.17638C16.4488 9.17638 14.5337 9.84606 13.1591 11.2089C10.6507 13.6585 10.9327 17.377 10.9444 17.5121C10.9563 17.6597 11.0234 17.7973 11.1323 17.8975C11.2412 17.9977 11.3839 18.0531 11.5319 18.0526H11.5789C11.6561 18.0467 11.7314 18.0255 11.8004 17.9904C11.8695 17.9552 11.9309 17.9068 11.9811 17.8478C12.0313 17.7888 12.0694 17.7205 12.0931 17.6468C12.1168 17.573 12.1258 17.4953 12.1193 17.4181C12.1193 17.3888 11.8961 14.0697 13.9756 12.0078C15.1035 10.8917 16.7249 10.3336 18.7926 10.3336L17.6178 11.344C17.5534 11.397 17.501 11.4632 17.4642 11.538C17.4273 11.6128 17.4068 11.6946 17.404 11.778C17.4012 11.8613 17.4162 11.9443 17.448 12.0214C17.4798 12.0985 17.5277 12.168 17.5884 12.2252ZM33.0615 24.3617C32.9117 24.3614 32.7673 24.4184 32.6581 24.5211C32.5489 24.6237 32.4831 24.7643 32.4741 24.9139C32.4741 24.9491 32.2685 28.2505 29.9305 30.0305C28.6616 30.9939 26.9933 31.3405 24.9255 31.0644L26.2002 30.2126C26.2648 30.1699 26.3203 30.1149 26.3636 30.0507C26.4068 29.9865 26.4369 29.9144 26.4522 29.8385C26.4675 29.7626 26.4676 29.6845 26.4526 29.6085C26.4376 29.5326 26.4077 29.4604 26.3647 29.396C26.3197 29.3296 26.2615 29.273 26.1938 29.2299C26.1261 29.1868 26.0503 29.158 25.971 29.1454C25.8917 29.1327 25.8107 29.1364 25.7329 29.1563C25.6552 29.1762 25.5823 29.2118 25.5188 29.2609L22.94 30.9821C22.8708 31.028 22.8122 31.0879 22.7679 31.1581C22.7236 31.2283 22.6947 31.307 22.6831 31.3891C22.6714 31.4713 22.6773 31.5549 22.7003 31.6346C22.7233 31.7143 22.7629 31.7882 22.8166 31.8515L24.5789 33.9663C24.6341 34.0326 24.7033 34.0859 24.7815 34.1225C24.8597 34.159 24.9449 34.1779 25.0312 34.1778C25.1425 34.1769 25.2511 34.1444 25.3446 34.0841C25.4381 34.0238 25.5126 33.9383 25.5593 33.8374C25.6061 33.7364 25.6232 33.6243 25.6088 33.514C25.5943 33.4038 25.5489 33.2998 25.4777 33.2144L24.6788 32.1981C25.1826 32.2719 25.6911 32.3092 26.2002 32.3097C27.7835 32.3672 29.3405 31.8937 30.6237 30.9645C33.3905 28.8556 33.6196 25.1371 33.6313 24.9785C33.6353 24.9004 33.6236 24.8223 33.5969 24.7487C33.5703 24.6752 33.5292 24.6077 33.4762 24.5503C33.4231 24.4928 33.3591 24.4465 33.2879 24.4141C33.2167 24.3818 33.1397 24.3639 33.0615 24.3617Z" fill="#2469E9"/>
<rect x="14.3926" y="27.972" width="4.76416" height="4.76416" stroke="#2469E9" stroke-width="1.19104"/>
</svg>
