<svg width="40" height="40" viewBox="0 0 40 40" fill="none" xmlns="http://www.w3.org/2000/svg">
<rect width="40" height="40" rx="20" fill="white"/>
<path d="M24.8465 14.6729V13.95C24.9291 11.2986 22.7606 9.08376 20 9C17.2394 9.08376 15.0709 11.2986 15.1535 13.95V14.6729C12.6748 15.3432 10.9724 17.527 11.0008 20V25.5C10.9497 28.4873 13.4289 30.9492 16.5394 31H23.4606C26.5711 30.9492 29.0503 28.4873 28.9992 25.5V20C29.0276 17.527 27.3252 15.3432 24.8465 14.6729ZM24.8465 14.6729C24.3949 14.5577 23.9295 14.4996 23.4622 14.5H16.5394C16.0721 14.4996 15.6068 14.5577 15.1551 14.6728M20 25.5V22.75" stroke="#E9B224" stroke-width="1.5" stroke-linecap="round" stroke-linejoin="round"/>
</svg>
