<svg width="100" height="36" viewBox="0 0 100 36" fill="none" xmlns="http://www.w3.org/2000/svg">
<path d="M44.1197 6.337C44.0941 6.07919 43.9844 5.87891 43.7905 5.73615C43.5966 5.59339 43.3335 5.52202 43.0011 5.52202C42.7752 5.52202 42.5845 5.55398 42.429 5.6179C42.2734 5.67969 42.1541 5.76598 42.071 5.87678C41.9901 5.98757 41.9496 6.11328 41.9496 6.25391C41.9453 6.37109 41.9698 6.47337 42.0231 6.56072C42.0785 6.64808 42.1541 6.72372 42.25 6.78764C42.3459 6.84943 42.4567 6.90376 42.5824 6.95064C42.7081 6.99538 42.8423 7.03374 42.9851 7.0657L43.5732 7.20632C43.8587 7.27024 44.1207 7.35547 44.3594 7.462C44.598 7.56854 44.8047 7.69957 44.9794 7.85511C45.1541 8.01065 45.2894 8.19389 45.3853 8.40483C45.4833 8.61577 45.5334 8.8576 45.5355 9.13033C45.5334 9.53089 45.4311 9.8782 45.2287 10.1722C45.0284 10.4641 44.7386 10.6911 44.3594 10.853C43.9822 11.0128 43.5273 11.0927 42.9947 11.0927C42.4663 11.0927 42.006 11.0117 41.614 10.8498C41.2241 10.6879 40.9194 10.4482 40.6999 10.1307C40.4826 9.81108 40.3686 9.41584 40.358 8.94496H41.6971C41.712 9.16442 41.7749 9.34766 41.8857 9.49467C41.9986 9.63956 42.1488 9.74929 42.3363 9.82386C42.5259 9.89631 42.7401 9.93253 42.9787 9.93253C43.2131 9.93253 43.4165 9.89844 43.5891 9.83026C43.7638 9.76207 43.8991 9.66726 43.995 9.54581C44.0909 9.42436 44.1388 9.2848 44.1388 9.12713C44.1388 8.98011 44.0952 8.85653 44.0078 8.75639C43.9226 8.65625 43.7969 8.57102 43.6307 8.50071C43.4666 8.4304 43.2653 8.36648 43.0266 8.30895L42.3139 8.12997C41.7621 7.99574 41.3263 7.78587 41.0067 7.50036C40.6871 7.21484 40.5284 6.83026 40.5305 6.34659C40.5284 5.95028 40.6339 5.60405 40.8469 5.30788C41.0621 5.01172 41.3572 4.78054 41.7322 4.61435C42.1072 4.44815 42.5334 4.36506 43.0107 4.36506C43.4964 4.36506 43.9205 4.44815 44.2827 4.61435C44.647 4.78054 44.9304 5.01172 45.1328 5.30788C45.3352 5.60405 45.4396 5.94709 45.446 6.337H44.1197ZM49.0519 6.09091V7.11364H46.0956V6.09091H49.0519ZM46.7668 4.91477H48.1283V9.49148C48.1283 9.61719 48.1475 9.7152 48.1858 9.78551C48.2242 9.85369 48.2774 9.90163 48.3456 9.92933C48.4159 9.95703 48.4969 9.97088 48.5885 9.97088C48.6524 9.97088 48.7164 9.96555 48.7803 9.9549C48.8442 9.94212 48.8932 9.93253 48.9273 9.92614L49.1414 10.9393C49.0732 10.9606 48.9774 10.9851 48.8538 11.0128C48.7302 11.0426 48.58 11.0607 48.4031 11.0671C48.075 11.0799 47.7874 11.0362 47.5402 10.9361C47.2952 10.8359 47.1045 10.6804 46.9681 10.4695C46.8318 10.2585 46.7646 9.99219 46.7668 9.67045V4.91477ZM51.3387 11.0927C51.0255 11.0927 50.7464 11.0384 50.5013 10.9297C50.2563 10.8189 50.0624 10.6559 49.9197 10.4407C49.779 10.2234 49.7087 9.95277 49.7087 9.62891C49.7087 9.35618 49.7588 9.12713 49.8589 8.94176C49.9591 8.75639 50.0954 8.60724 50.268 8.49432C50.4406 8.38139 50.6366 8.29616 50.8561 8.23864C51.0777 8.18111 51.3099 8.14062 51.5528 8.11719C51.8383 8.08736 52.0684 8.05966 52.2432 8.03409C52.4179 8.00639 52.5447 7.96591 52.6235 7.91264C52.7023 7.85937 52.7417 7.78054 52.7417 7.67614V7.65696C52.7417 7.45455 52.6778 7.29794 52.55 7.18714C52.4243 7.07635 52.2453 7.02095 52.0131 7.02095C51.768 7.02095 51.5731 7.07528 51.4282 7.18395C51.2833 7.29048 51.1874 7.42472 51.1405 7.58665L49.8813 7.48438C49.9452 7.18608 50.0709 6.92827 50.2584 6.71094C50.4459 6.49148 50.6878 6.32315 50.9839 6.20597C51.2822 6.08665 51.6274 6.02699 52.0194 6.02699C52.2922 6.02699 52.5532 6.05895 52.8025 6.12287C53.0539 6.18679 53.2765 6.28587 53.4704 6.4201C53.6665 6.55433 53.8209 6.72692 53.9339 6.93786C54.0468 7.14666 54.1032 7.39702 54.1032 7.68892V11H52.8121V10.3192H52.7737C52.6949 10.4727 52.5894 10.608 52.4573 10.7251C52.3252 10.8402 52.1665 10.9308 51.9811 10.9968C51.7957 11.0607 51.5816 11.0927 51.3387 11.0927ZM51.7286 10.1531C51.9289 10.1531 52.1057 10.1136 52.2591 10.0348C52.4126 9.95384 52.5329 9.84517 52.6203 9.70881C52.7077 9.57244 52.7513 9.41797 52.7513 9.24538V8.72443C52.7087 8.75213 52.6501 8.7777 52.5756 8.80114C52.5031 8.82244 52.4211 8.84268 52.3295 8.86186C52.2378 8.87891 52.1462 8.89489 52.0546 8.9098C51.963 8.92259 51.8799 8.9343 51.8053 8.94496C51.6455 8.96839 51.5059 9.00568 51.3866 9.05682C51.2673 9.10795 51.1746 9.1772 51.1086 9.26456C51.0425 9.34979 51.0095 9.45632 51.0095 9.58416C51.0095 9.76953 51.0766 9.91122 51.2108 10.0092C51.3472 10.1051 51.5198 10.1531 51.7286 10.1531ZM56.3932 9.58736L56.3964 7.95419H56.5945L58.167 6.09091H59.7298L57.6173 8.55824H57.2945L56.3932 9.58736ZM55.1595 11V4.45455H56.521V11H55.1595ZM58.2277 11L56.7831 8.86186L57.6908 7.89986L59.8225 11H58.2277ZM60.3978 11V6.09091H61.7593V11H60.3978ZM61.0818 5.4581C60.8794 5.4581 60.7057 5.39098 60.5608 5.25675C60.4181 5.12038 60.3467 4.95739 60.3467 4.76776C60.3467 4.58026 60.4181 4.41939 60.5608 4.28516C60.7057 4.14879 60.8794 4.08061 61.0818 4.08061C61.2842 4.08061 61.4568 4.14879 61.5995 4.28516C61.7444 4.41939 61.8169 4.58026 61.8169 4.76776C61.8169 4.95739 61.7444 5.12038 61.5995 5.25675C61.4568 5.39098 61.2842 5.4581 61.0818 5.4581ZM64.2115 8.16193V11H62.85V6.09091H64.1475V6.95703H64.2051C64.3137 6.67152 64.4959 6.44567 64.7516 6.27947C65.0073 6.11115 65.3173 6.02699 65.6816 6.02699C66.0225 6.02699 66.3198 6.10156 66.5733 6.25071C66.8269 6.39986 67.024 6.61293 67.1646 6.88991C67.3052 7.16477 67.3755 7.4929 67.3755 7.87429V11H66.014V8.11719C66.0162 7.81676 65.9395 7.58239 65.7839 7.41406C65.6284 7.24361 65.4142 7.15838 65.1415 7.15838C64.9583 7.15838 64.7963 7.1978 64.6557 7.27663C64.5172 7.35547 64.4086 7.47053 64.3297 7.6218C64.253 7.77095 64.2136 7.95099 64.2115 8.16193ZM70.6602 12.9432C70.2192 12.9432 69.841 12.8825 69.5257 12.761C69.2124 12.6417 68.9632 12.4787 68.7778 12.272C68.5924 12.0653 68.472 11.8331 68.4166 11.5753L69.6759 11.4059C69.7142 11.5039 69.7749 11.5955 69.858 11.6808C69.9411 11.766 70.0509 11.8342 70.1872 11.8853C70.3257 11.9386 70.4941 11.9652 70.6922 11.9652C70.9884 11.9652 71.2323 11.8928 71.4241 11.7479C71.618 11.6051 71.7149 11.3654 71.7149 11.0288V10.1307H71.6574C71.5977 10.267 71.5083 10.396 71.3889 10.5174C71.2696 10.6388 71.1162 10.7379 70.9287 10.8146C70.7412 10.8913 70.5175 10.9297 70.2575 10.9297C69.8889 10.9297 69.5534 10.8445 69.2508 10.674C68.9504 10.5014 68.7107 10.2383 68.5317 9.88459C68.3548 9.52876 68.2664 9.07919 68.2664 8.53587C68.2664 7.97976 68.357 7.51527 68.5381 7.1424C68.7192 6.76953 68.96 6.49041 69.2604 6.30504C69.5629 6.11967 69.8943 6.02699 70.2544 6.02699C70.5292 6.02699 70.7593 6.07386 70.9447 6.16761C71.1301 6.25923 71.2792 6.37429 71.3921 6.51278C71.5072 6.64915 71.5956 6.78338 71.6574 6.91548H71.7085V6.09091H73.0605V11.0479C73.0605 11.4656 72.9582 11.815 72.7536 12.0962C72.5491 12.3775 72.2657 12.5884 71.9035 12.729C71.5434 12.8718 71.129 12.9432 70.6602 12.9432ZM70.689 9.90696C70.9085 9.90696 71.0938 9.85263 71.2451 9.74396C71.3985 9.63317 71.5157 9.4755 71.5967 9.27095C71.6798 9.06428 71.7213 8.81712 71.7213 8.52947C71.7213 8.24183 71.6808 7.99254 71.5999 7.78161C71.5189 7.56854 71.4017 7.40341 71.2483 7.28622C71.0949 7.16903 70.9085 7.11044 70.689 7.11044C70.4653 7.11044 70.2767 7.17116 70.1233 7.29261C69.9699 7.41193 69.8538 7.57812 69.7749 7.79119C69.6961 8.00426 69.6567 8.25035 69.6567 8.52947C69.6567 8.81286 69.6961 9.05788 69.7749 9.26456C69.8559 9.46911 69.972 9.62784 70.1233 9.74077C70.2767 9.85156 70.4653 9.90696 70.689 9.90696ZM76.2525 11V4.45455H80.663V5.59553H77.6364V7.15518H80.4361V8.29616H77.6364V9.85902H80.6758V11H76.2525ZM87.5384 6.74609H86.1386C86.113 6.56499 86.0608 6.40412 85.982 6.26349C85.9031 6.12074 85.8019 5.99929 85.6784 5.89915C85.5548 5.79901 85.412 5.7223 85.2501 5.66903C85.0903 5.61577 84.9166 5.58913 84.7291 5.58913C84.3904 5.58913 84.0953 5.6733 83.8438 5.84162C83.5924 6.00781 83.3975 6.25071 83.259 6.57031C83.1205 6.88778 83.0512 7.27344 83.0512 7.72727C83.0512 8.19389 83.1205 8.58594 83.259 8.90341C83.3996 9.22088 83.5956 9.46058 83.847 9.62251C84.0985 9.78445 84.3893 9.86541 84.7195 9.86541C84.9049 9.86541 85.0764 9.84091 85.2341 9.7919C85.3939 9.7429 85.5356 9.67152 85.6592 9.57777C85.7828 9.48189 85.885 9.36577 85.966 9.2294C86.0491 9.09304 86.1066 8.9375 86.1386 8.76278L87.5384 8.76918C87.5022 9.0696 87.4117 9.35938 87.2668 9.63849C87.124 9.91548 86.9312 10.1637 86.6883 10.3832C86.4475 10.6005 86.1599 10.7731 85.8254 10.9009C85.493 11.0266 85.1169 11.0895 84.6972 11.0895C84.1134 11.0895 83.5914 10.9574 83.1311 10.6932C82.673 10.429 82.3108 10.0465 82.0445 9.54581C81.7803 9.0451 81.6482 8.43892 81.6482 7.72727C81.6482 7.01349 81.7824 6.40625 82.0509 5.90554C82.3193 5.40483 82.6837 5.02344 83.1439 4.76136C83.6041 4.49716 84.1219 4.36506 84.6972 4.36506C85.0764 4.36506 85.428 4.41832 85.7519 4.52486C86.0779 4.63139 86.3666 4.78693 86.618 4.99148C86.8694 5.19389 87.074 5.44212 87.2316 5.73615C87.3914 6.03018 87.4937 6.36683 87.5384 6.74609ZM88.5308 11V4.45455H89.9147V9.85902H92.7208V11H88.5308ZM94.9324 11H93.4495L95.7091 4.45455H97.4925L99.7488 11H98.2659L96.6263 5.95028H96.5752L94.9324 11ZM94.8398 8.4272H98.3426V9.50746H94.8398V8.4272Z" fill="#171840"/>
<path d="M6.72 9.72002V4.84C6.72 2.71922 8.43922 1 10.56 1C12.6808 1 14.4 2.71922 14.4 4.84V9.72002" stroke="#2469E8" stroke-width="2"/>
<path d="M15.32 6.64008H5.68C4.19988 6.64008 3 7.83995 3 9.32007V12.0801C3 13.5602 4.19988 14.7601 5.68 14.7601H15.32C16.8001 14.7601 18 13.5602 18 12.0801V9.32007C18 7.83995 16.8001 6.64008 15.32 6.64008Z" fill="#2469E9"/>
<g filter="url(#filter0_d_167_47)">
<path d="M11.7194 10.4393C11.4489 10.5339 11.1919 10.6962 10.989 10.8991C10.7996 11.1018 10.6508 11.3453 10.5696 11.6157C10.4885 11.3453 10.3397 11.1018 10.1503 10.8991C9.9474 10.6827 9.69039 10.5204 9.41986 10.4393C9.47396 9.66846 9.92035 8.99238 10.5561 8.62728C11.2054 8.99238 11.6518 9.66846 11.7194 10.4393Z" fill="url(#paint0_linear_167_47)"/>
<path d="M12.3417 12.2105C11.8953 12.6704 11.2324 12.8596 10.6102 12.7244V12.7109C10.6237 12.6704 10.6237 12.6433 10.6373 12.6027C10.6508 12.5621 10.6508 12.5216 10.6643 12.4946C10.6643 12.4811 10.6643 12.4675 10.6643 12.4675C10.6643 12.4269 10.6778 12.3999 10.6778 12.3593C10.6778 12.3188 10.6778 12.2782 10.6778 12.2376C10.6778 12.17 10.6778 12.1024 10.6643 12.0348C10.6643 12.0078 10.6508 11.9672 10.6508 11.9401C10.6508 11.9131 10.6373 11.886 10.6373 11.8455C10.6373 11.8184 10.6237 11.8049 10.6237 11.7779C10.6237 11.7508 10.6102 11.7373 10.6102 11.7103C10.6914 11.4398 10.8402 11.1829 11.0431 10.9665C11.246 10.7637 11.4895 10.6015 11.76 10.5068C12.0846 10.3986 12.4363 10.3851 12.7745 10.4527C12.9504 11.0747 12.7745 11.7508 12.3417 12.2105Z" fill="url(#paint1_linear_167_47)"/>
<path d="M10.5697 12.5892C10.5561 12.6298 10.5561 12.6704 10.5426 12.7109C9.90683 12.8732 9.24402 12.6838 8.79763 12.2105C8.35124 11.7508 8.18891 11.0747 8.36476 10.4527C8.70293 10.3851 9.05464 10.3986 9.37928 10.5068C9.64982 10.6015 9.90683 10.7637 10.1097 10.9665C10.3126 11.1829 10.4614 11.4263 10.5426 11.7103C10.6238 11.9942 10.6238 12.3053 10.5697 12.5892Z" fill="url(#paint2_linear_167_47)"/>
<path d="M10.9787 10.8893C10.798 11.0828 10.6539 11.3131 10.5696 11.5687C10.4854 11.3131 10.3412 11.0828 10.1606 10.8893H10.1606C9.95877 10.6741 9.70379 10.512 9.43471 10.429C9.49178 9.67055 9.93112 9.00542 10.5562 8.64343C11.1946 9.00545 11.6342 9.67073 11.7044 10.4296C11.4356 10.5254 11.1808 10.6873 10.979 10.889H10.979L10.9787 10.8893ZM10.6769 12.5009L10.6784 12.4979V12.4946V12.4945V12.4944V12.4944V12.4943V12.4942V12.4941V12.494V12.4939V12.4938V12.4937V12.4936V12.4935V12.4934V12.4933V12.4932V12.4931V12.493V12.4929V12.4928V12.4928V12.4927V12.4926V12.4925V12.4924V12.4923V12.4922V12.4921V12.492V12.4919V12.4918V12.4917V12.4916V12.4915V12.4914V12.4913V12.4912V12.4912V12.4911V12.491V12.4909V12.4908V12.4907V12.4906V12.4905V12.4904V12.4903V12.4902V12.4901V12.49V12.4899V12.4898V12.4897V12.4897V12.4896V12.4895V12.4894V12.4893V12.4892V12.4891V12.489V12.4889V12.4888V12.4887V12.4886V12.4885V12.4884V12.4883V12.4882V12.4881V12.4881V12.488V12.4879V12.4878V12.4877V12.4876V12.4875V12.4874V12.4873V12.4872V12.4871V12.487V12.4869V12.4868V12.4867V12.4866V12.4866V12.4865V12.4864V12.4863V12.4862V12.4861V12.486V12.4859V12.4858V12.4857V12.4856V12.4855V12.4854V12.4853V12.4852V12.4851V12.485V12.485V12.4849V12.4848V12.4847V12.4846V12.4845V12.4844V12.4843V12.4842V12.4841V12.484V12.4839V12.4838V12.4837V12.4836V12.4835V12.4835V12.4834V12.4833V12.4832V12.4831V12.483V12.4829V12.4828V12.4827V12.4826V12.4825V12.4824V12.4823V12.4822V12.4821V12.482V12.4819V12.4819V12.4818V12.4817V12.4816V12.4815V12.4814V12.4813V12.4812V12.4811V12.481V12.4809V12.4808V12.4807V12.4806V12.4805V12.4804V12.4804V12.4803V12.4802V12.4801V12.48V12.4799V12.4798V12.4797V12.4796V12.4795V12.4794V12.4793V12.4792V12.4791V12.479V12.4789V12.4788V12.4788V12.4787V12.4786V12.4785V12.4784V12.4783V12.4782V12.4781V12.478V12.4779V12.4778V12.4777V12.4776V12.4775V12.4774V12.4773V12.4773V12.4772V12.4771V12.477V12.4769V12.4768V12.4767V12.4766V12.4765V12.4764V12.4763V12.4762V12.4761V12.476V12.4759V12.4758V12.4757V12.4757V12.4756V12.4755V12.4754V12.4753V12.4752V12.4751V12.475V12.4749V12.4748V12.4747V12.4746V12.4745V12.4744V12.4743V12.4742V12.4741V12.4741V12.474V12.4739V12.4738V12.4737V12.4736V12.4735V12.4734V12.4733V12.4732V12.4731V12.473V12.4729V12.4728V12.4727V12.4726V12.4726V12.4725V12.4724V12.4723V12.4722V12.4721V12.472V12.4719V12.4718V12.4717V12.4716V12.4715V12.4714V12.4713V12.4712V12.4711V12.471V12.471V12.4709V12.4708V12.4707V12.4706V12.4705V12.4704V12.4703V12.4702V12.4701V12.47V12.4699V12.4698V12.4697V12.4696V12.4695V12.4695V12.4694V12.4693V12.4692V12.4691V12.469V12.4689V12.4688V12.4687V12.4686V12.4685V12.4684V12.4683V12.4682V12.4681V12.468V12.4679V12.4679V12.4678V12.4677V12.4676C10.6784 12.4489 10.6815 12.4332 10.6849 12.4163L10.685 12.4158C10.6883 12.3991 10.6919 12.381 10.6919 12.3593V12.3591V12.3589V12.3587V12.3584V12.3582V12.3579V12.3577V12.3574V12.3573V12.357V12.3568V12.3565V12.3563V12.356V12.3559V12.3556V12.3553V12.3551V12.3548V12.3546V12.3544V12.3542V12.3539V12.3537V12.3534V12.3532V12.3529V12.3528V12.3525V12.3523V12.352V12.3518V12.3515V12.3512V12.3511V12.3508V12.3506V12.3503V12.3501V12.3498V12.3497V12.3494V12.3492V12.3489V12.3487V12.3484V12.3482V12.348V12.3478V12.3475V12.3472V12.347V12.3467V12.3466V12.3463V12.3461V12.3458V12.3456V12.3453V12.3451V12.3449V12.3447V12.3444V12.3442V12.3439V12.3437V12.3434V12.3432V12.343V12.3427V12.3425V12.3422V12.342V12.3418V12.3416V12.3413V12.3411V12.3408V12.3406V12.3403V12.3402V12.3399V12.3397V12.3394V12.3391V12.3389V12.3387V12.3385V12.3382V12.338V12.3377V12.3375V12.3372V12.3371V12.3368V12.3366V12.3363V12.3361V12.3358V12.3357V12.3354V12.3351V12.3349V12.3346V12.3344V12.3341V12.334V12.3337V12.3335V12.3332V12.333V12.3327V12.3326V12.3323V12.3321V12.3318V12.3316V12.3313V12.331V12.3309V12.3306V12.3304V12.3301V12.3299V12.3296V12.3294V12.3292V12.329V12.3287V12.3285V12.3282V12.328V12.3278V12.3276V12.3273V12.327V12.3268V12.3265V12.3263V12.3261V12.3259V12.3256V12.3254V12.3251V12.3249V12.3247V12.3245V12.3242V12.324V12.3237V12.3234V12.3232V12.323V12.3228V12.3225V12.3223V12.322V12.3218V12.3216V12.3214V12.3211V12.3209V12.3206V12.3204V12.3201V12.32V12.3197V12.3194V12.3192V12.3189V12.3187V12.3185V12.3183V12.318V12.3178V12.3175V12.3173V12.317V12.3169V12.3166V12.3164V12.3161V12.3159V12.3156V12.3154V12.3152V12.3149V12.3147V12.3144V12.3142V12.3139V12.3138V12.3135V12.3133V12.313V12.3128V12.3125V12.3123V12.3121V12.3119V12.3116V12.3113V12.3111V12.3108V12.3107V12.3104V12.3102V12.3099V12.3097V12.3094V12.3092V12.309V12.3088V12.3085V12.3083V12.308V12.3078V12.3076V12.3073V12.3071V12.3068V12.3066V12.3063V12.3061V12.3059V12.3057V12.3054V12.3052V12.3049V12.3047V12.3045V12.3043V12.304V12.3038V12.3035V12.3032V12.303V12.3028V12.3026V12.3023V12.3021V12.3018V12.3016V12.3014V12.3012V12.3009V12.3007V12.3004V12.3002V12.2999V12.2998V12.2995V12.2992V12.299V12.2987V12.2985V12.2983V12.2981V12.2978V12.2976V12.2973V12.2971V12.2968V12.2967V12.2964V12.2962V12.2959V12.2957V12.2954V12.2952V12.295V12.2947V12.2945V12.2942V12.294V12.2937V12.2936V12.2933V12.2931V12.2928V12.2926V12.2923V12.2921V12.2919V12.2917V12.2914V12.2911V12.2909V12.2906V12.2905V12.2902V12.29V12.2897V12.2895V12.2892V12.289V12.2888V12.2886V12.2883V12.2881V12.2878V12.2876V12.2874V12.2871V12.2869V12.2866V12.2864V12.2861V12.2859V12.2857V12.2855V12.2852V12.285V12.2847V12.2845V12.2843V12.2841V12.2838V12.2836V12.2833V12.283V12.2828V12.2826V12.2824V12.2821V12.2819V12.2816V12.2814V12.2812V12.281V12.2807V12.2805V12.2802V12.28V12.2797V12.2795V12.2793V12.279V12.2788V12.2785V12.2783V12.2781V12.2779V12.2776V12.2774V12.2771V12.2769V12.2766V12.2765V12.2762V12.276V12.2757V12.2754V12.2752V12.275V12.2748V12.2745V12.2743V12.274V12.2738V12.2735V12.2734V12.2731V12.2729V12.2726V12.2724V12.2721V12.2719V12.2717V12.2714V12.2712V12.2709V12.2707V12.2704V12.2703V12.27V12.2698V12.2695V12.2693V12.269V12.2688V12.2686V12.2684V12.2681V12.2679V12.2676V12.2673V12.2672V12.2669V12.2667V12.2664V12.2662V12.2659V12.2657V12.2655V12.2653V12.265V12.2648V12.2645V12.2643V12.2641V12.2639V12.2636V12.2633V12.2631V12.2628V12.2626V12.2624V12.2622V12.2619V12.2617V12.2614V12.2612V12.261V12.2608V12.2605V12.2603V12.26V12.2598V12.2595V12.2593V12.2591V12.2588V12.2586V12.2583V12.2581V12.2579V12.2577V12.2574V12.2572V12.2569V12.2567V12.2564V12.2563V12.256V12.2558V12.2555V12.2552V12.255V12.2548V12.2546V12.2543V12.2541V12.2538V12.2536V12.2533V12.2532V12.2529V12.2527V12.2524V12.2522V12.2519V12.2517V12.2515V12.2512V12.251V12.2507V12.2505V12.2502V12.2501V12.2498V12.2496V12.2493V12.2491V12.2488V12.2486V12.2484V12.2482V12.2479V12.2477V12.2474V12.2471V12.247V12.2467V12.2465V12.2462V12.246V12.2457V12.2455V12.2453V12.2451V12.2448V12.2446V12.2443V12.2441V12.2439V12.2437V12.2434V12.2431V12.2429V12.2426V12.2424V12.2422V12.242V12.2417V12.2415V12.2412V12.241V12.2408V12.2406V12.2403V12.2401V12.2398V12.2395V12.2393V12.2391V12.2389V12.2386V12.2384V12.2381V12.2379V12.2377V12.237C10.6919 12.1703 10.6919 12.102 10.6784 12.0334C10.6782 12.0187 10.6747 12.0013 10.6716 11.9857L10.6714 11.9847C10.6679 11.9673 10.6649 11.952 10.6649 11.9402C10.6649 11.9264 10.6618 11.9126 10.6588 11.8995C10.6585 11.8979 10.6581 11.8964 10.6578 11.8949C10.6544 11.8798 10.6514 11.8642 10.6514 11.8456C10.6514 11.8297 10.6474 11.8177 10.644 11.8077L10.6439 11.8072C10.6405 11.7972 10.6378 11.7889 10.6378 11.7779C10.6378 11.7621 10.6338 11.7501 10.6305 11.74L10.6303 11.7397C10.6272 11.7302 10.6246 11.7223 10.6243 11.7123C10.705 11.4448 10.8523 11.1906 11.0532 10.9764C11.2547 10.775 11.4964 10.614 11.7645 10.5201C12.0839 10.4138 12.4299 10.3996 12.7633 10.4649C12.9338 11.0797 12.7591 11.7467 12.3315 12.2009C11.8912 12.6543 11.2387 12.8427 10.6243 12.7131C10.6309 12.693 10.6343 12.6761 10.6375 12.6598L10.6375 12.6596C10.6409 12.6427 10.6442 12.6266 10.6506 12.6072C10.6572 12.5877 10.6607 12.568 10.6638 12.5508C10.6641 12.5492 10.6644 12.5477 10.6646 12.5461C10.6681 12.5272 10.6712 12.5123 10.6769 12.5009ZM8.80785 12.2009L8.80771 12.2008C8.36693 11.7468 8.20522 11.08 8.37597 10.4649C8.70934 10.3996 9.05534 10.4138 9.3747 10.5201C9.64311 10.6141 9.89821 10.7751 10.0996 10.9764C10.3011 11.1913 10.4486 11.4327 10.529 11.7142C10.6094 11.9953 10.6096 12.3037 10.5559 12.5857C10.549 12.6067 10.5456 12.6276 10.5423 12.6473L10.5422 12.6478C10.5392 12.6656 10.5364 12.6826 10.5315 12.6992C9.90293 12.8569 9.24889 12.6686 8.80785 12.2009Z" fill="url(#paint3_linear_167_47)" stroke="white" stroke-width="0.3"/>
</g>
<defs>
<filter id="filter0_d_167_47" x="0.555621" y="0.8669" width="35.2333" height="34.8479" filterUnits="userSpaceOnUse" color-interpolation-filters="sRGB">
<feFlood flood-opacity="0" result="BackgroundImageFix"/>
<feColorMatrix in="SourceAlpha" type="matrix" values="0 0 0 0 0 0 0 0 0 0 0 0 0 0 0 0 0 0 127 0" result="hardAlpha"/>
<feOffset dx="7.60365" dy="7.60365"/>
<feGaussianBlur stdDeviation="7.60365"/>
<feColorMatrix type="matrix" values="0 0 0 0 0.15375 0 0 0 0 0.522433 0 0 0 0 0.9 0 0 0 0.5 0"/>
<feBlend mode="normal" in2="BackgroundImageFix" result="effect1_dropShadow_167_47"/>
<feBlend mode="normal" in="SourceGraphic" in2="effect1_dropShadow_167_47" result="shape"/>
</filter>
<linearGradient id="paint0_linear_167_47" x1="13.6213" y1="7.3129" x2="8.58278" y2="7.45434" gradientUnits="userSpaceOnUse">
<stop stop-color="white"/>
<stop offset="1" stop-color="white" stop-opacity="0.2"/>
</linearGradient>
<linearGradient id="paint1_linear_167_47" x1="14.6879" y1="9.37523" x2="9.79977" y2="9.54416" gradientUnits="userSpaceOnUse">
<stop stop-color="white"/>
<stop offset="1" stop-color="white" stop-opacity="0.2"/>
</linearGradient>
<linearGradient id="paint2_linear_167_47" x1="12.5197" y1="9.3749" x2="7.45603" y2="9.55615" gradientUnits="userSpaceOnUse">
<stop stop-color="white"/>
<stop offset="1" stop-color="white" stop-opacity="0.2"/>
</linearGradient>
<linearGradient id="paint3_linear_167_47" x1="16.5652" y1="6.83555" x2="6.6725" y2="7.23229" gradientUnits="userSpaceOnUse">
<stop stop-color="white"/>
<stop offset="1" stop-color="white" stop-opacity="0.2"/>
</linearGradient>
</defs>
</svg>
