<svg width="40" height="40" viewBox="0 0 40 40" fill="none" xmlns="http://www.w3.org/2000/svg">
<rect width="40" height="40" rx="20" fill="white"/>
<path d="M19.1928 15.058C19.3397 15.2246 19.5466 15.3261 19.7683 15.3402C19.9899 15.3544 20.2081 15.28 20.3749 15.1335L23.7285 12.2158C23.8169 12.1382 23.888 12.0428 23.9371 11.936C23.9862 11.8291 24.0122 11.713 24.0136 11.5954C24.0107 11.3586 23.9142 11.1326 23.7453 10.9666L20.8193 8.25859C20.74 8.17576 20.6446 8.11007 20.5389 8.06558C20.4333 8.02109 20.3196 7.99874 20.205 7.99992C20.0903 8.0011 19.9771 8.02578 19.8724 8.07244C19.7677 8.1191 19.6736 8.18674 19.5961 8.27118C19.5185 8.35562 19.4591 8.45507 19.4215 8.56338C19.3839 8.6717 19.369 8.78657 19.3775 8.9009C19.3861 9.01523 19.418 9.12658 19.4713 9.22809C19.5246 9.32959 19.5982 9.41908 19.6874 9.49103L21.0289 10.7067C17.5663 10.7067 14.8331 11.6625 12.8713 13.6076C9.29131 17.1037 9.69374 22.4108 9.7105 22.6036C9.7274 22.8141 9.82314 23.0105 9.97857 23.1535C10.134 23.2965 10.3377 23.3756 10.5489 23.3749H10.616C10.7262 23.3664 10.8337 23.3363 10.9322 23.2861C11.0307 23.2359 11.1183 23.1668 11.19 23.0826C11.2617 22.9985 11.316 22.901 11.3499 22.7957C11.3838 22.6905 11.3965 22.5796 11.3873 22.4694C11.3873 22.4275 11.0687 17.6906 14.0366 14.7478C15.6464 13.1548 17.9603 12.3584 20.9115 12.3584L19.2347 13.8004C19.1428 13.8761 19.0681 13.9704 19.0155 14.0772C18.9629 14.184 18.9336 14.3008 18.9297 14.4197C18.9257 14.5387 18.9471 14.6572 18.9925 14.7672C19.0378 14.8773 19.1061 14.9764 19.1928 15.058ZM29.4966 17.9903C29.2827 17.99 29.0767 18.0714 28.9208 18.2179C28.765 18.3644 28.671 18.5649 28.6582 18.7784C28.6582 18.8287 28.3647 23.5405 25.0279 26.0809C23.217 27.4559 20.8359 27.9505 17.8847 27.5565L19.7041 26.3408C19.7962 26.2799 19.8754 26.2014 19.9372 26.1097C19.9989 26.0181 20.0419 25.9152 20.0637 25.8069C20.0855 25.6986 20.0857 25.5871 20.0643 25.4787C20.0429 25.3703 20.0002 25.2673 19.9388 25.1754C19.8746 25.0806 19.7916 24.9999 19.6949 24.9384C19.5983 24.8768 19.49 24.8358 19.3769 24.8177C19.2638 24.7996 19.1481 24.8049 19.0371 24.8333C18.9261 24.8617 18.8221 24.9125 18.7315 24.9826L15.051 27.4391C14.9523 27.5045 14.8686 27.5901 14.8054 27.6903C14.7422 27.7904 14.701 27.9028 14.6843 28.02C14.6677 28.1372 14.6761 28.2566 14.7089 28.3704C14.7418 28.4841 14.7983 28.5896 14.8749 28.6799L17.3901 31.6982C17.4689 31.7928 17.5676 31.8689 17.6792 31.9211C17.7908 31.9732 17.9125 32.0002 18.0357 32C18.1944 31.9987 18.3495 31.9523 18.4829 31.8663C18.6163 31.7803 18.7226 31.6582 18.7893 31.5141C18.8561 31.3701 18.8806 31.2101 18.86 31.0527C18.8393 30.8953 18.7744 30.747 18.6728 30.625L17.5326 29.1746C18.2517 29.2799 18.9774 29.3331 19.7041 29.3339C21.9637 29.4159 24.1859 28.7401 26.0172 27.4139C29.9661 24.4041 30.293 19.097 30.3098 18.8707C30.3154 18.7592 30.2987 18.6477 30.2607 18.5427C30.2227 18.4378 30.1641 18.3415 30.0883 18.2595C30.0126 18.1775 29.9212 18.1114 29.8196 18.0652C29.718 18.019 29.6081 17.9935 29.4966 17.9903Z" fill="#2469E9"/>
</svg>
