<svg width="96" height="40" viewBox="0 0 96 40" fill="none" xmlns="http://www.w3.org/2000/svg">
<rect width="96" height="40" rx="20" fill="#F8F8F8"/>
<path fill-rule="evenodd" clip-rule="evenodd" d="M37.3334 20C37.3334 25.1546 33.1547 29.3333 28.0001 29.3333C22.8454 29.3333 18.6667 25.1546 18.6667 20C18.6667 14.8453 22.8454 10.6666 28.0001 10.6666C30.4754 10.6666 32.8494 11.65 34.5997 13.4003C36.3501 15.1506 37.3334 17.5246 37.3334 20Z" stroke="#2469E9" stroke-width="1.5" stroke-linecap="round" stroke-linejoin="round"/>
<path fill-rule="evenodd" clip-rule="evenodd" d="M22.6667 20C22.6667 22.9455 25.0546 25.3333 28.0001 25.3333V14.6666C25.0546 14.6666 22.6667 17.0544 22.6667 20Z" fill="#2469E9"/>
<path d="M49.375 25.5H46.233V15.3182H49.5142C50.5019 15.3182 51.3471 15.522 52.0497 15.9297C52.7524 16.334 53.291 16.9157 53.6655 17.6747C54.04 18.4304 54.2273 19.3352 54.2273 20.3892C54.2273 21.4498 54.0384 22.3629 53.6605 23.1286C53.2827 23.8909 52.7325 24.4775 52.0099 24.8885C51.2874 25.2962 50.4091 25.5 49.375 25.5ZM47.4659 24.4062H49.2955C50.1373 24.4062 50.835 24.2438 51.3885 23.919C51.942 23.5942 52.3546 23.1319 52.6264 22.532C52.8982 21.9321 53.0341 21.2178 53.0341 20.3892C53.0341 19.5672 52.8999 18.8596 52.6314 18.2663C52.3629 17.6697 51.9619 17.2124 51.4283 16.8942C50.8946 16.5727 50.2301 16.4119 49.4347 16.4119H47.4659V24.4062ZM58.3835 25.679C57.8996 25.679 57.4605 25.5878 57.0661 25.4055C56.6716 25.2199 56.3584 24.9531 56.1264 24.6051C55.8944 24.2538 55.7784 23.8295 55.7784 23.3324C55.7784 22.8949 55.8646 22.5402 56.0369 22.2685C56.2093 21.9934 56.4396 21.7779 56.728 21.6222C57.0163 21.4664 57.3345 21.3504 57.6825 21.2741C58.0339 21.1946 58.3868 21.1316 58.7415 21.0852C59.2055 21.0256 59.5817 20.9808 59.87 20.951C60.1617 20.9179 60.3738 20.8632 60.5064 20.7869C60.6423 20.7107 60.7102 20.5781 60.7102 20.3892V20.3494C60.7102 19.8589 60.576 19.4777 60.3075 19.206C60.0424 18.9342 59.6397 18.7983 59.0994 18.7983C58.5393 18.7983 58.1001 18.9209 57.782 19.1662C57.4638 19.4115 57.2401 19.6733 57.1108 19.9517L55.9972 19.554C56.196 19.09 56.4612 18.7287 56.7926 18.4702C57.1274 18.2083 57.492 18.026 57.8864 17.9233C58.2841 17.8172 58.6752 17.7642 59.0597 17.7642C59.3049 17.7642 59.5866 17.794 59.9048 17.8537C60.2263 17.91 60.5362 18.0277 60.8345 18.2067C61.1361 18.3857 61.3864 18.6558 61.5852 19.017C61.7841 19.3783 61.8835 19.8622 61.8835 20.4688V25.5H60.7102V24.4659H60.6506C60.571 24.6316 60.4384 24.8089 60.2528 24.9979C60.0672 25.1868 59.8203 25.3475 59.5121 25.4801C59.2038 25.6127 58.8277 25.679 58.3835 25.679ZM58.5625 24.625C59.0265 24.625 59.4176 24.5339 59.7358 24.3516C60.0573 24.1693 60.2992 23.9339 60.4616 23.6456C60.6274 23.3572 60.7102 23.054 60.7102 22.7358V21.6619C60.6605 21.7216 60.5511 21.7763 60.3821 21.826C60.2164 21.8724 60.0241 21.9138 59.8054 21.9503C59.59 21.9834 59.3795 22.0133 59.174 22.0398C58.9718 22.063 58.8078 22.0829 58.6818 22.0994C58.3769 22.1392 58.0919 22.2038 57.8267 22.2933C57.5649 22.3795 57.3527 22.5104 57.1903 22.6861C57.0313 22.8584 56.9517 23.0937 56.9517 23.392C56.9517 23.7997 57.1025 24.108 57.4041 24.3168C57.709 24.5223 58.0952 24.625 58.5625 24.625ZM64.025 25.5V17.8636H65.1586V19.017H65.2381C65.3773 18.6392 65.6292 18.3326 65.9938 18.0973C66.3584 17.862 66.7694 17.7443 67.2267 17.7443C67.3129 17.7443 67.4206 17.746 67.5499 17.7493C67.6792 17.7526 67.7769 17.7576 67.8432 17.7642V18.9574C67.8034 18.9474 67.7123 18.9325 67.5698 18.9126C67.4306 18.8894 67.2831 18.8778 67.1273 18.8778C66.7561 18.8778 66.4247 18.9557 66.133 19.1115C65.8446 19.264 65.6159 19.4761 65.4469 19.7479C65.2812 20.0163 65.1983 20.3229 65.1983 20.6676V25.5H64.025ZM70.3278 22.7159L70.3079 21.2642H70.5465L73.8874 17.8636H75.3391L71.7795 21.4631H71.68L70.3278 22.7159ZM69.234 25.5V15.3182H70.4073V25.5H69.234ZM74.0863 25.5L71.1033 21.7216L71.9386 20.9062L75.5778 25.5H74.0863Z" fill="black"/>
</svg>
