<svg width="28" height="28" viewBox="0 0 28 28" fill="none" xmlns="http://www.w3.org/2000/svg">
<rect width="28" height="28" rx="14" fill="#EBF3FF"/>
<path fill-rule="evenodd" clip-rule="evenodd" d="M21.0001 14.8329C21.0001 17.5944 17.3437 19.8332 12.8334 19.8332C8.32308 19.8332 4.66675 17.5944 4.66675 14.8329C4.66675 12.0714 8.32308 9.83374 12.8334 9.83374C17.3437 9.83374 21.0001 12.0714 21.0001 14.8329Z" stroke="#2469E9" stroke-width="1.5" stroke-linecap="round" stroke-linejoin="round"/>
<path fill-rule="evenodd" clip-rule="evenodd" d="M14.8752 14.8328C14.8923 15.6622 14.4058 16.4194 13.6444 16.7487C12.883 17.078 11.998 16.9138 11.4054 16.3334C10.8127 15.7529 10.6302 14.8716 10.9436 14.1035C11.257 13.3354 12.004 12.8333 12.8335 12.8331C13.3695 12.8275 13.8857 13.0351 14.2685 13.4101C14.6514 13.7851 14.8697 14.2969 14.8752 14.8328V14.8328Z" stroke="#2469E9" stroke-width="1.5" stroke-linecap="round" stroke-linejoin="round"/>
<path d="M12.0833 9.83375C12.0833 10.248 12.4191 10.5838 12.8333 10.5838C13.2475 10.5838 13.5833 10.248 13.5833 9.83375H12.0833ZM13.5833 5.83325C13.5833 5.41904 13.2475 5.08325 12.8333 5.08325C12.4191 5.08325 12.0833 5.41904 12.0833 5.83325H13.5833ZM20.6473 8.17363C20.8355 7.80462 20.6889 7.35294 20.3199 7.16477C19.9509 6.97661 19.4992 7.1232 19.311 7.49221L20.6473 8.17363ZM17.6345 10.7799C17.4464 11.1489 17.5929 11.6006 17.962 11.7887C18.331 11.9769 18.7826 11.8303 18.9708 11.4613L17.6345 10.7799ZM6.35564 7.49221C6.16747 7.1232 5.71579 6.97661 5.34679 7.16477C4.97778 7.35294 4.83119 7.80462 5.01936 8.17363L6.35564 7.49221ZM6.69586 11.4613C6.88403 11.8303 7.33571 11.9769 7.70471 11.7887C8.07372 11.6006 8.22031 11.1489 8.03214 10.7799L6.69586 11.4613ZM13.5833 9.83375V5.83325H12.0833V9.83375H13.5833ZM19.311 7.49221L17.6345 10.7799L18.9708 11.4613L20.6473 8.17363L19.311 7.49221ZM5.01936 8.17363L6.69586 11.4613L8.03214 10.7799L6.35564 7.49221L5.01936 8.17363Z" fill="#2469E9"/>
</svg>
