<svg width="42" height="42" viewBox="0 0 42 42" fill="none" xmlns="http://www.w3.org/2000/svg">
<rect width="42" height="42" rx="21" fill="#F4F4F4"/>
<g clip-path="url(#clip0_96_444)">
<path d="M28.5 15.5C29.4 15.5 30 16.1 30 17V26C30 26.9 29.4 27.5 28.5 27.5H26.1L23.55 24.95L23.1 24.5H22.5H19.5H18.9L18.45 24.95L15.9 27.5H13.5C12.6 27.5 12 26.9 12 26V17C12 16.1 12.6 15.5 13.5 15.5H28.5ZM28.5 14H13.5C11.85 14 10.5 15.35 10.5 17V26C10.5 27.65 11.85 29 13.5 29H16.5L19.5 26H22.5L25.5 29H28.5C30.15 29 31.5 27.65 31.5 26V17C31.5 15.35 30.15 14 28.5 14ZM34.5 17C33.6 17 33 17.6 33 18.5V24.5C33 25.4 33.6 26 34.5 26C35.4 26 36 25.4 36 24.5V18.5C36 17.6 35.4 17 34.5 17ZM7.5 17C6.6 17 6 17.6 6 18.5V24.5C6 25.4 6.6 26 7.5 26C8.4 26 9 25.4 9 24.5V18.5C9 17.6 8.4 17 7.5 17Z" fill="#828284"/>
</g>
<defs>
<clipPath id="clip0_96_444">
<rect width="30" height="15" fill="white" transform="translate(6 14)"/>
</clipPath>
</defs>
</svg>
