<svg width="11" height="12" viewBox="0 0 11 12" fill="none" xmlns="http://www.w3.org/2000/svg">
<path d="M10.2551 4.14047C10.2222 3.66671 10.061 2.83103 9.59708 2.05129C9.08384 1.19259 8.04089 0.13977 5.98132 0.0114581C4.05006 -0.106984 2.88209 0.715529 2.24382 1.42947C1.70096 2.03155 1.44104 2.65008 1.34892 2.9067L0.809353 2.87051C0.60208 2.85735 0.394806 2.92974 0.240174 3.0745C0.0888315 3.21597 0 3.41995 0 3.62723V6.10793C0 6.31849 0.0888315 6.51918 0.240174 6.66066C0.381646 6.79226 0.565889 6.86464 0.760002 6.86464C0.776453 6.86464 0.792903 6.86464 0.809353 6.86135L1.30615 6.82845C1.3555 7.80888 1.46078 8.91105 1.90823 9.77962C2.16156 10.2698 2.5465 10.4245 3.08278 10.4014C3.61248 10.3784 4.13889 10.2666 4.65542 10.1317C4.66529 10.6712 4.61265 11.2141 4.54356 11.7471C4.4975 12.086 5.03378 12.0827 5.07655 11.7471C5.15222 11.168 5.20815 10.5725 5.18512 9.9869C5.66876 9.85201 6.14911 9.70395 6.62288 9.53616C6.9453 9.4243 6.80712 8.90776 6.4814 9.01962C5.9879 9.19399 5.48781 9.34534 4.98772 9.48352C4.5633 9.60196 4.13231 9.71053 3.69473 9.78621C3.39862 9.83885 3.03672 9.91781 2.73732 9.85201C2.1813 9.73027 2.07602 8.60179 2.00035 8.16092C1.92468 7.70689 1.87204 7.24628 1.84572 6.78897L4.36919 6.62446C4.75084 6.59814 5.05352 6.28888 5.07326 5.91052H9.67604C9.62011 6.13096 9.53128 6.39087 9.44574 6.58169C9.17925 7.16732 8.66271 7.59503 8.44886 8.20369C8.24816 8.77945 8.34357 9.42759 8.40279 10.0198C8.44557 10.4508 8.4686 10.9673 8.69561 11.349C8.87327 11.6451 9.33388 11.3753 9.15622 11.0792C8.92591 10.6943 8.93907 10.1086 8.90288 9.67434C8.85024 8.9933 8.81076 8.39451 9.2615 7.83191C9.72211 7.25286 10.0939 6.59814 10.2255 5.86446C10.4328 5.77234 10.5742 5.56836 10.5742 5.32818V4.66688C10.5808 4.43329 10.4492 4.23589 10.2551 4.14047ZM4.54027 4.07796V5.86775C4.54027 5.98619 4.44815 6.08161 4.333 6.09148L0.773162 6.32836C0.710651 6.33165 0.65143 6.31191 0.60537 6.26914C0.559309 6.22637 0.532989 6.16715 0.532989 6.10464V3.62394C0.532989 3.56143 0.559309 3.5022 0.60537 3.45943C0.64814 3.41995 0.700781 3.40021 0.756712 3.40021C0.763292 3.40021 0.766582 3.40021 0.773162 3.40021L4.333 3.64039C4.44815 3.64697 4.54027 3.74567 4.54027 3.86411V4.07796ZM4.36919 3.1074L1.90823 2.9429C2.19118 2.27172 3.23412 0.376654 5.94842 0.544446C9.09371 0.73856 9.6234 3.25216 9.71224 4.08125H5.07326V3.8674C5.07326 3.46601 4.764 3.13372 4.36919 3.1074ZM5.07326 4.61424H9.99518C10.0215 4.61424 10.0478 4.63727 10.0478 4.66359V5.32489C10.0478 5.35121 10.0248 5.37424 9.99518 5.37424H5.07326V4.61424Z" fill="#2469E9"/>
</svg>
