<svg width="13" height="13" viewBox="0 0 13 13" fill="none" xmlns="http://www.w3.org/2000/svg">
<path d="M6.30425 2.95848C6.44064 2.82214 6.6256 2.74554 6.81845 2.74554C6.91398 2.74554 7.00858 2.76436 7.09683 2.80093C7.18509 2.8375 7.26528 2.89109 7.33282 2.95866M5.68705 2.34139C5.98712 2.04134 6.39409 1.87277 6.81845 1.87277C7.02858 1.87277 7.23666 1.91416 7.43079 1.99458C7.62493 2.075 7.80133 2.19287 7.94991 2.34146M5.06981 1.72435C5.29944 1.4947 5.57205 1.31254 5.87208 1.18825C6.17212 1.06397 6.49369 1 6.81845 1C7.47426 1 8.10321 1.26051 8.56695 1.72422M1 5.59967V4.43598H12.637V12H1V5.59967Z" stroke="#2469E9" stroke-width="0.5" stroke-linecap="round" stroke-linejoin="round"/>
<path d="M12.637 7.92706H9.72775C9.72775 7.92706 8.85498 7.92706 8.85498 8.79983C8.85498 9.67261 9.72775 9.67261 9.72775 9.67261H12.637" stroke="#2469E9" stroke-width="0.5"/>
<path d="M9.72791 9.09174C9.88883 9.09174 10.0193 8.96128 10.0193 8.80035C10.0193 8.63943 9.88883 8.50897 9.72791 8.50897C9.56698 8.50897 9.43652 8.63943 9.43652 8.80035C9.43652 8.96128 9.56698 9.09174 9.72791 9.09174Z" fill="#2469E9"/>
<path d="M1 5.89062H12.637" stroke="#2469E9" stroke-width="0.5"/>
</svg>
