<svg width="28" height="28" viewBox="0 0 28 28" fill="none" xmlns="http://www.w3.org/2000/svg">
<rect width="28" height="28" rx="14" fill="#EBF3FF"/>
<path fill-rule="evenodd" clip-rule="evenodd" d="M17.4999 22.1667H10.4999C7.92259 22.1667 5.83325 20.0774 5.83325 17.5V10.5C5.83325 7.92271 7.92259 5.83337 10.4999 5.83337H17.4999C20.0772 5.83337 22.1666 7.92271 22.1666 10.5V17.5C22.1666 20.0774 20.0772 22.1667 17.4999 22.1667Z" stroke="#2469E9" stroke-width="1.5" stroke-linecap="round" stroke-linejoin="round"/>
<path d="M22.1666 11.25C22.5808 11.25 22.9166 10.9142 22.9166 10.5C22.9166 10.0858 22.5808 9.75 22.1666 9.75V11.25ZM5.83325 9.75C5.41904 9.75 5.08325 10.0858 5.08325 10.5C5.08325 10.9142 5.41904 11.25 5.83325 11.25V9.75ZM12.8333 16.75C12.419 16.75 12.0833 17.0858 12.0833 17.5C12.0833 17.9142 12.419 18.25 12.8333 18.25V16.75ZM15.1666 18.25C15.5808 18.25 15.9166 17.9142 15.9166 17.5C15.9166 17.0858 15.5808 16.75 15.1666 16.75V18.25ZM22.1666 9.75H5.83325V11.25H22.1666V9.75ZM12.8333 18.25H15.1666V16.75H12.8333V18.25Z" fill="#2469E9"/>
</svg>
