<?xml
version="1.0" encoding="utf-8"?>
<!-- Generator: Adobe Illustrator 25.4.1, SVG Export Plug-In . SVG Version: 6.00 Build 0)  -->
<svg version="1.1" baseProfile="basic" id="Layer_1" xmlns="http://www.w3.org/2000/svg" xmlns:xlink="http://www.w3.org/1999/xlink" x="0px" y="0px" viewBox="0 0 387.6 237.6" xml:space="preserve">
    <path id="WalletConnect_00000073703063438220642730000002917717552236472496_" fill="#3B99FC" d="M79.4,46.4
	c63.2-61.9,165.7-61.9,228.9,0l7.6,7.4c3.2,3.1,3.2,8.1,0,11.2l-26,25.5c-1.6,1.5-4.1,1.5-5.7,0l-10.5-10.3
	c-44.1-43.2-115.6-43.2-159.7,0l-11.2,11c-1.6,1.5-4.1,1.5-5.7,0L71,65.8c-3.2-3.1-3.2-8.1,0-11.2L79.4,46.4z M362.1,99.1l23.2,22.7
	c3.2,3.1,3.2,8.1,0,11.2L280.8,235.3c-3.2,3.1-8.3,3.1-11.4,0c0,0,0,0,0,0l-74.1-72.6c-0.8-0.8-2.1-0.8-2.9,0c0,0,0,0,0,0
	l-74.1,72.6c-3.2,3.1-8.3,3.1-11.4,0c0,0,0,0,0,0L2.4,133c-3.2-3.1-3.2-8.1,0-11.2l23.2-22.7c3.2-3.1,8.3-3.1,11.4,0l74.1,72.6
	c0.8,0.8,2.1,0.8,2.9,0c0,0,0,0,0,0l74.1-72.6c3.2-3.1,8.3-3.1,11.4,0c0,0,0,0,0,0l74.1,72.6c0.8,0.8,2.1,0.8,2.9,0l74.1-72.6
	C353.8,96,358.9,96,362.1,99.1z"/>
</svg>
